<svg xmlns="http://www.w3.org/2000/svg" width="42.8" height="50.376" viewBox="0 0 42.8 50.376">
  <defs>
    <style>
      .cls-1 {
        fill: #4e5ad3;
      }
    </style>
  </defs>
  <g id="brain" transform="translate(-39.51 -1)">
    <g id="Group_53" data-name="Group 53" transform="translate(39.51 1)">
      <g id="Group_52" data-name="Group 52">
        <path id="Path_538" data-name="Path 538" class="cls-1" d="M81.95,25.352c1.311-7.123-.829-16.914-8.63-21.58a21.677,21.677,0,0,0-16.2-2.038C49.563,3.755,44.005,9.18,42.258,16.246a14.367,14.367,0,0,0-.489,4.4,14.775,14.775,0,0,0,.507,2.72,11.753,11.753,0,0,1,.5,3.489c-.035,1.407-1,2.866-1.86,4.154-.933,1.405-1.739,2.619-1.271,3.738a2.74,2.74,0,0,0,2.1,1.344,1,1,0,0,0,.152.016.787.787,0,0,1,.88.839c0,1.744.043,2.644.764,3.057a1.537,1.537,0,0,0-.13.414,1.5,1.5,0,0,0,.473,1.323,2.549,2.549,0,0,0,1.331.679l.1.022a2.147,2.147,0,0,1,.026.378,9.036,9.036,0,0,1-.066.934c-.139,1.343-.33,3.182,2.356,4.059a5.532,5.532,0,0,0,1.657.2,26.289,26.289,0,0,0,7.462-1.43,9.484,9.484,0,0,1,1.226,3.951.839.839,0,0,0,.839.839H79.8a.833.833,0,0,0,.784-.58.859.859,0,0,0-.3-.945c-.868-.659-3.744-7.607-3.833-10.1.253-.576.593-1.222,1-1.972A39.44,39.44,0,0,0,81.95,25.352ZM74.766,39.664c.021,2.007,1.831,7.311,3.386,10.033H59.585a12.021,12.021,0,0,0-1.234-3.682c2.432-.953,4.574-2.179,5.6-3.523a.84.84,0,0,0-1.334-1.02C60.244,44.58,50.36,46.94,48.154,46.218c-1.4-.457-1.342-.993-1.207-2.29a10.554,10.554,0,0,0,.075-1.107c0-1.414-.57-1.836-1.428-2.035a1.076,1.076,0,0,1-.452-.175,2.329,2.329,0,0,1,.555-.393.84.84,0,0,0-.37-1.593c-.3,0-.64,0-.817-.022a12.959,12.959,0,0,1-.054-1.656A2.455,2.455,0,0,0,42,34.431c-.6-.127-.789-.291-.8-.33-.122-.291.687-1.509,1.121-2.163.932-1.4,2.092-3.15,2.139-5.04a11.777,11.777,0,0,0-.347-3.113,8.366,8.366,0,0,1,3.165-1.745,2.6,2.6,0,0,1,1.247.087.839.839,0,0,0,.446-1.618,4.236,4.236,0,0,0-2.041-.112,8.649,8.649,0,0,0-3.252,1.615,9.973,9.973,0,0,1-.232-1.487,12.425,12.425,0,0,1,.445-3.878c1.623-6.559,6.6-11.4,13.67-13.294a19.938,19.938,0,0,1,14.9,1.858c7.114,4.254,9.052,13.264,7.842,19.835a37.454,37.454,0,0,1-4.333,11.936c-.462.861-.86,1.6-1.148,2.293A.82.82,0,0,0,74.766,39.664Z" transform="translate(-39.51 -1)"/>
        <path id="Path_539" data-name="Path 539" class="cls-1" d="M161.085,58.188a2.516,2.516,0,0,0-2.045-2.706l-1.607-2.228a2.49,2.49,0,0,0,.225-.576l1.557-.622a2.512,2.512,0,1,0,2.431-4.11l-1.261-2.515a2.508,2.508,0,0,0-3.084-3.9L155.9,40.359a2.509,2.509,0,0,0-4.167-2.609l-2.488-.622a2.5,2.5,0,0,0-4.816-.029l-3.326.665a2.506,2.506,0,0,0-4.007,2.958l-1.63,2.17a2.511,2.511,0,0,0-.144,4.911l1.347,3.326a2.513,2.513,0,1,0,4.132,2.628H145.3a2.431,2.431,0,0,0,2.747,1.64l2.786,4.238a2.512,2.512,0,1,0,4.339,2.115l2.08-1.663a2.505,2.505,0,0,0,3.829-1.9Zm.011-8.628a.839.839,0,1,1-.769,1.173c0-.008,0-.016,0-.023l-.005-.008a.827.827,0,0,1-.061-.3A.84.84,0,0,1,161.1,49.56Zm-3.34-6.046a.839.839,0,1,1,.822,1.01.83.83,0,0,1-.3-.061l-.007,0c-.007,0-.015,0-.023,0A.838.838,0,0,1,157.756,43.514Zm-.835,2.052h0l-1.551,3.878-2.719-2.175a2.505,2.505,0,0,0,.776-1.195l3.326-.665C156.806,45.465,156.864,45.515,156.921,45.566Zm-.894,6.739a.839.839,0,1,1-.807-1.066.83.83,0,0,1,.3.061l.007,0c.008,0,.016,0,.023,0A.839.839,0,0,1,156.028,52.3Zm-2.486-13.656a.839.839,0,1,1-.839.839A.839.839,0,0,1,153.542,38.649Zm-4.417.181,1.917.479c0,.06-.018.118-.018.18a2.521,2.521,0,0,0,2.518,2.518,2.491,2.491,0,0,0,1.276-.36l1.406,1.167a2.491,2.491,0,0,0-.165.871c0,.051.012.1.015.148l-2.734.547a2.519,2.519,0,0,0-1.931-1.5l-3.073-3.073A2.525,2.525,0,0,0,149.125,38.829Zm2.738,6.534a.839.839,0,1,1-.839-.839A.839.839,0,0,1,151.864,45.364Zm-5.036-8.393a.839.839,0,1,1-.839.839A.839.839,0,0,1,146.828,36.97Zm.166,3.872,2.52,2.52a2.514,2.514,0,0,0-.853,1.163h-1.988a2.514,2.514,0,0,0-1.094-1.323Zm-5.217-1.5,2.734-.547a2.524,2.524,0,0,0,1.048,1.179l-1.524,2.539-2.634-1.69a2.5,2.5,0,0,0,.39-1.333C141.792,39.437,141.779,39.39,141.777,39.34Zm3.372,6.024a.839.839,0,1,1-.839-.839A.839.839,0,0,1,145.149,45.364Zm-5.875-6.715a.839.839,0,1,1-.839.839A.839.839,0,0,1,139.274,38.649Zm-.914,3.18a2.355,2.355,0,0,0,1.608.068l2.591,1.663a2.513,2.513,0,0,0-.613.965h-3.667a2.52,2.52,0,0,0-.992-1.267ZM135.916,46.2a.839.839,0,1,1,.839-.839A.839.839,0,0,1,135.916,46.2Zm2.518,7.554a.839.839,0,1,1,.839-.839A.839.839,0,0,1,138.434,53.757Zm.477-3.309a2.518,2.518,0,0,0-.477-.048,2.437,2.437,0,0,0-.243.025L137.048,47.6a2.515,2.515,0,0,0,1.232-1.4h3.667a2.51,2.51,0,0,0,.758,1.084Zm6.392,1.63H140.8a2.5,2.5,0,0,0-.383-.7l4.122-3.435,1.4,3.148A2.513,2.513,0,0,0,145.3,52.078Zm1.369-5.875h1.988a2.514,2.514,0,0,0,1.094,1.323l-1.745,2.908a2.5,2.5,0,0,0-.343-.035c-.065,0-.126.014-.19.019l-1.441-3.232A2.514,2.514,0,0,0,146.673,46.2Zm.994,7.554a.839.839,0,1,1,.839-.839A.839.839,0,0,1,147.667,53.757ZM151.25,48.3l2.344,1.875a2.507,2.507,0,0,0-.776,1.195l-2.833.567a2.52,2.52,0,0,0-.48-.726ZM152.7,62.15a.839.839,0,1,1,.839-.839A.839.839,0,0,1,152.7,62.15Zm3.357-4.2a2.488,2.488,0,0,0,.149.822l-1.417,1.133a2.421,2.421,0,0,0-2.474-1.076l-2.786-4.238a2.5,2.5,0,0,0,.538-.965l2.833-.567a2.515,2.515,0,0,0,3.288,1.339l1.035,1.435A2.513,2.513,0,0,0,156.06,57.954Zm.817-7.757,1.6-4c.034,0,.065.01.1.01a2.467,2.467,0,0,0,.3-.03L159.9,48.2a2.51,2.51,0,0,0-1.318,2.2c0,.034.009.066.01.1l-1.128.451A2.516,2.516,0,0,0,156.878,50.2Zm1.7,8.6a.839.839,0,1,1,.839-.839A.839.839,0,0,1,158.578,58.793Z" transform="translate(-124.163 -31.919)"/>
      </g>
    </g>
  </g>
</svg>
