<svg xmlns="http://www.w3.org/2000/svg" xmlns:xlink="http://www.w3.org/1999/xlink" width="471.67" height="446.242" viewBox="0 0 471.67 446.242">
  <defs>
    <style>
      .cls-1 {
        fill: #939dff;
      }

      .cls-2 {
        opacity: 0.15;
      }

      .cls-10, .cls-11, .cls-12, .cls-3 {
        fill: #fff;
      }

      .cls-4 {
        fill: #f9f9fe;
      }

      .cls-5 {
        fill: #fafafa;
      }

      .cls-6 {
        fill: #eaeaff;
      }

      .cls-7 {
        fill: #ebebeb;
      }

      .cls-8 {
        fill: #455a64;
      }

      .cls-9 {
        fill: #7600b7;
      }

      .cls-10 {
        opacity: 0.8;
      }

      .cls-11 {
        opacity: 0.65;
      }

      .cls-12, .cls-14 {
        opacity: 0.5;
      }

      .cls-13 {
        fill: #f28f8f;
      }

      .cls-15 {
        fill: url(#linear-gradient);
      }

      .cls-16 {
        fill: #37474f;
      }

      .cls-17 {
        fill: #263238;
      }

      .cls-18 {
        fill: url(#linear-gradient-2);
      }

      .cls-19 {
        opacity: 0.2;
      }

      .cls-20 {
        fill: #b16668;
      }

      .cls-21 {
        fill: #f0f0f0;
      }

      .cls-22 {
        fill: #9a4a4d;
      }

      .cls-23 {
        fill: url(#linear-gradient-7);
      }
    </style>
    <linearGradient id="linear-gradient" x1="0.5" x2="0.5" y2="1" gradientUnits="objectBoundingBox">
      <stop offset="0" stop-color="#4f5bd3"/>
      <stop offset="1" stop-color="#4e5ad3"/>
    </linearGradient>
    <linearGradient id="linear-gradient-2" x1="0.5" x2="0.859" y2="1.33" gradientUnits="objectBoundingBox">
      <stop offset="0" stop-color="#8693f3"/>
      <stop offset="1" stop-color="#4e5ad3"/>
    </linearGradient>
    <linearGradient id="linear-gradient-7" x2="0.5" y2="1.166" xlink:href="#linear-gradient-2"/>
  </defs>
  <g id="Track_and_field-amico" data-name="Track and field-amico" transform="translate(-13.47 -35.372)">
    <g id="freepik--Plant--inject-29" transform="translate(424.827 194.538)">
      <g id="freepik--Plants--inject-29">
        <path id="Path_202" data-name="Path 202" class="cls-1" d="M436.529,269.718l-7.992-4.636s-4.775-19.851-2.867-37.7c2.667-25.106,19.2-34.557,25.486-32.389s8.1,9.471-2.3,24.427C442.693,228.238,435.161,246.61,436.529,269.718Z" transform="translate(-425.219 -194.69)"/>
        <path id="Path_204" data-name="Path 204" class="cls-3" d="M433.218,259.941h.07a.569.569,0,0,0,.45-.649c-4.406-23.158,3.687-49.183,13.707-60.013a.559.559,0,0,0-.819-.749c-10.2,10.99-18.452,37.474-13.987,60.942a.56.56,0,0,0,.579.47Z" transform="translate(-425.225 -194.693)"/>
        <path id="Path_205" data-name="Path 205" class="cls-1" d="M457.563,281.876c1.259.639,4.636-2.238,5.575-2.947a11.769,11.769,0,0,0,3.686-4.686,10.989,10.989,0,0,0,.639-6.664,26.124,26.124,0,0,0-1-3.477c-.39-1.119-.769-2.248-1.159-3.367a8.642,8.642,0,0,1-.669-3.417c.18-2.358,2.168-4.1,4-5.6,2-1.658,4.066-3.836,3.916-6.644a9.991,9.991,0,0,0-2.777-5.765c-1.429-1.638-3.1-3.057-4.406-4.8a6.994,6.994,0,0,1-1.638-4.3,7.194,7.194,0,0,1,.819-2.777c.9-1.888,2.128-3.627,2.707-5.635s.37-4.436-1.239-5.764c-1.319-1.1-3.2-1.159-4.905-1a11.179,11.179,0,0,0-4.416,1.818c-4.336,2.707-6.624,8.122-11.259,10.27a47.953,47.953,0,0,1-5.665,1.688c-1.878.6-3.776,1.678-4.566,3.477-1.569,3.567,1.878,7.683.839,11.429-.919,3.317-4,4.725-5.655,7.763a6.993,6.993,0,0,0-.619,4.316,20.53,20.53,0,0,0,2.168,7.123,64.129,64.129,0,0,0,4.286,6.594S457.364,281.776,457.563,281.876Z" transform="translate(-425.224 -194.709)"/>
        <path id="Path_206" data-name="Path 206" class="cls-3" d="M445.289,275.477h0a.569.569,0,0,0,.51-.609c-2-21.979,7.133-46.955,14.346-54.378a.559.559,0,0,0-.809-.769c-7.343,7.613-16.7,32.919-14.646,55.247a.549.549,0,0,0,.6.509Z" transform="translate(-425.238 -194.713)"/>
        <path id="Path_207" data-name="Path 207" class="cls-3" d="M447.479,248.346h.16a74.988,74.988,0,0,1,15.895-3.387.559.559,0,0,0,.5-.609.539.539,0,0,0-.609-.5,75.768,75.768,0,0,0-16.165,3.457.54.54,0,0,0-.33.709.559.559,0,0,0,.549.33Z" transform="translate(-425.24 -194.736)"/>
      </g>
    </g>
    <g id="freepik--Floor--inject-29" transform="translate(13.47 209.294)">
      <g id="freepik--Track--inject-29">
        <path id="freepik--floor--inject-29-2" data-name="freepik--floor--inject-29" class="cls-4" d="M235.835,0C366.083,0,471.67,60.961,471.67,136.16S366.083,272.32,235.835,272.32,0,211.359,0,136.16,105.587,0,235.835,0Z"/>
        <path id="Path_208" data-name="Path 208" class="cls-5" d="M484.637,334.96,267.984,209.88c-5.555-.25-11.129-.39-16.694-.41L485.347,344.6a80.088,80.088,0,0,0-.709-9.641Z" transform="translate(-13.697 -209.46)"/>
        <path id="Path_209" data-name="Path 209" class="cls-5" d="M79.553,251.18q-3.936,2.368-7.653,4.805L404.683,448.112q4.226-2.148,8.322-4.416Z" transform="translate(-13.526 -209.5)"/>
        <path id="Path_210" data-name="Path 210" class="cls-5" d="M19.207,375.649l178.33,102.962q9.681,1.259,19.5,2L15.69,364.4A86.426,86.426,0,0,0,19.207,375.649Z" transform="translate(-13.472 -209.608)"/>
      </g>
    </g>
    <g id="freepik--Shadow--inject-29" transform="translate(138.001 277.319)">
      <path id="freepik--shadow--inject-29-2" data-name="freepik--shadow--inject-29" class="cls-6" d="M271.67,360.089l6.654,3.846,111.683-64.479-6.654-3.836Z" transform="translate(-138.247 -277.567)"/>
      <ellipse id="freepik--shadow--inject-29-3" data-name="freepik--shadow--inject-29" class="cls-6" cx="39.592" cy="22.858" rx="39.592" ry="22.858" transform="translate(118.697)"/>
      <ellipse id="freepik--shadow--inject-29-4" data-name="freepik--shadow--inject-29" class="cls-6" cx="39.592" cy="22.858" rx="39.592" ry="22.858" transform="translate(0 61.931)"/>
      <path id="freepik--shadow--inject-29-5" data-name="freepik--shadow--inject-29" class="cls-6" d="M148.78,430.609l6.654,3.846,111.683-64.469-6.654-3.846Z" transform="translate(-138.13 -277.634)"/>
    </g>
    <g id="freepik--Clouds--inject-29" transform="translate(63.272 35.372)">
      <g id="freepik--clouds--inject-29-2" data-name="freepik--clouds--inject-29">
        <path id="Path_211" data-name="Path 211" class="cls-7" d="M110.585,39.756,102.533,44.4a9.764,9.764,0,0,0,.07-1.069V40.995c0-4.156-2.917-5.834-6.514-3.766A12.758,12.758,0,0,0,92.2,40.995c-.589-5.225-4.686-7.163-9.661-4.3C77.157,39.806,72.8,47.359,72.8,53.573v3.5a9.341,9.341,0,0,0,.819,4l-6.684,3.906a7.992,7.992,0,0,0-3.617,6.254c0,2.308,1.618,3.247,3.617,2.088l43.648-25.2a7.992,7.992,0,0,0,3.617-6.264C114.2,39.536,112.583,38.6,110.585,39.756Z" transform="translate(-63.32 -35.372)"/>
        <path id="Path_212" data-name="Path 212" class="cls-7" d="M145.106,63.247l-6.084,3.507a7.3,7.3,0,0,0,0-.8V64.186c0-3.127-2.2-4.406-4.915-2.837a9.661,9.661,0,0,0-2.927,2.817c-.44-3.936-3.537-5.4-7.293-3.237a16.264,16.264,0,0,0-7.353,12.738v2.628a6.934,6.934,0,0,0,.629,3.057l-5.055,2.917a5.994,5.994,0,0,0-2.677,4.706c0,1.738,1.219,2.448,2.727,1.578l32.969-18.982a6.054,6.054,0,0,0,2.727-4.725C147.833,63.077,146.6,62.378,145.106,63.247Z" transform="translate(-63.364 -35.396)"/>
      </g>
    </g>
    <g id="freepik--hurdle-2--inject-29" transform="translate(251.243 196.626)">
      <g id="freepik--Fence--inject-29">
        <path id="Path_213" data-name="Path 213" class="cls-8" d="M282.091,272.85v76.237a.529.529,0,0,1-.789.46l-25.825-14.906L252.15,340.4l30.271,17.483a4.216,4.216,0,0,0,6.324-3.656V276.7Z" transform="translate(-251.471 -196.852)"/>
        <path id="Path_214" data-name="Path 214" class="cls-8" d="M253.828,334.87c1.3-.749,2.348-.14,2.348,1.359a5.185,5.185,0,0,1-2.348,4.066c-1.3.749-2.358.15-2.358-1.359a5.2,5.2,0,0,1,2.358-4.066Z" transform="translate(-251.47 -196.911)"/>
        <path id="Path_215" data-name="Path 215" class="cls-8" d="M373.892,219.85V296.1a.519.519,0,0,1-.789.45l-25.825-14.906L344,287.406l30.221,17.513a4.226,4.226,0,0,0,6.334-3.656V223.7Z" transform="translate(-251.558 -196.802)"/>
        <path id="Path_216" data-name="Path 216" class="cls-8" d="M345.628,281.87c1.3-.749,2.348-.14,2.348,1.359a5.2,5.2,0,0,1-2.348,4.076c-1.3.749-2.348.14-2.348-1.359a5.2,5.2,0,0,1,2.348-4.076Z" transform="translate(-251.557 -196.861)"/>
        <path id="Path_217" data-name="Path 217" class="cls-9" d="M268.8,261.249,380.483,196.78l6.654,3.846v23.048L275.454,288.143l-6.654-3.836Z" transform="translate(-251.486 -196.78)"/>
        <path id="Path_218" data-name="Path 218" class="cls-10" d="M268.8,261.249l6.654,3.846,111.683-64.468-6.654-3.846Z" transform="translate(-251.486 -196.78)"/>
        <path id="Path_219" data-name="Path 219" class="cls-11" d="M275.46,265.1,387.143,200.63v23.048L275.46,288.147Z" transform="translate(-251.493 -196.784)"/>
        <path id="Path_220" data-name="Path 220" class="cls-12" d="M268.8,261.31l6.654,3.846V288.2l-6.654-3.836Z" transform="translate(-251.486 -196.841)"/>
      </g>
    </g>
    <g id="freepik--character-2--inject-29" transform="translate(239.64 71.466)">
      <g id="freepik--Character--inject-29">
        <path id="Path_221" data-name="Path 221" class="cls-13" d="M312,114.4s5.695-.879,8.8,3.257,2.508,10.25,1.329,15.815S312,114.4,312,114.4Z" transform="translate(-239.925 -71.541)"/>
        <path id="Path_222" data-name="Path 222" class="cls-9" d="M332.453,184.408c4.805-3.666,9.391-1.778,10.24,4.206s-2.358,13.807-7.173,17.473-9.391,1.778-10.24-4.206S327.638,188.075,332.453,184.408Z" transform="translate(-239.937 -71.606)"/>
        <path id="Path_223" data-name="Path 223" class="cls-14" d="M332.453,184.408c4.805-3.666,9.391-1.778,10.24,4.206s-2.358,13.807-7.173,17.473-9.391,1.778-10.24-4.206S327.638,188.075,332.453,184.408Z" transform="translate(-239.937 -71.606)"/>
        <path id="Path_224" data-name="Path 224" class="cls-13" d="M314.478,166.6s30.451,19.242,36.725,24.716c4.725,4.126,5.465,6.084,15.056,21.18,8.192,12.918,22.309,35.536,22.309,35.536a9.631,9.631,0,0,1-6.114,7.5s-20.161-18.982-27.684-26.844-11.179-19.362-11.179-19.362l-41.96-12.508,1.439-12.128Z" transform="translate(-239.915 -71.591)"/>
        <path id="Path_225" data-name="Path 225" class="cls-15" d="M403.249,231.41c-3.437.19-5.545,3-7.083,5.495s-4.126,7.063-5.275,7.833-1.828,0-3.447,1.249-2.847,3.557-2.338,4.436l1.2,2.078a4.416,4.416,0,0,0-3.726,1.409c-1.788,1.778-.859,2.088.16,3.107s2.787,4.855,5.165,6.1a22.209,22.209,0,0,0,11.079-9.141C403.609,246.665,403.249,231.41,403.249,231.41Z" transform="translate(-239.991 -71.652)"/>
        <path id="Path_226" data-name="Path 226" class="cls-16" d="M389.219,264.079a1.768,1.768,0,0,1-1.409-2.238,21.889,21.889,0,0,1,3.157-6.254c1.618-2.288,4.626-6.554,5.135-8.931s1.608-8.922,3.387-11.689,3.627-4.346,5.994-3.457-5.085,18.552-7.263,21.539S389.219,264.079,389.219,264.079Z" transform="translate(-239.997 -71.652)"/>
        <path id="Path_227" data-name="Path 227" class="cls-17" d="M390.6,263.7c5.884-3.137,7.823-6.194,9.541-10.14s5.8-7.653,6.853-11.219,1.169-12.718-2.887-10.5-4.885,10.4-6.664,15.126S384.824,266.776,390.6,263.7Z" transform="translate(-239.998 -71.652)"/>
        <path id="Path_228" data-name="Path 228" class="cls-18" d="M339.5,182.836l-19.372-13.567L282.16,168.6s2.568,21.789,12.8,26.315c12.218,5.395,33.238,12.348,33.238,12.348-4.885-4-3.457-11.989-.49-17.2C332.3,182.127,336.2,181.987,339.5,182.836Z" transform="translate(-239.896 -71.593)"/>
        <path id="Path_230" data-name="Path 230" class="cls-19" d="M307.338,188.988a29.971,29.971,0,0,0,12.808-12.838,20.98,20.98,0,0,1-10.8,14.186l-.719,8.082,17.983,8.312c-6.814-2.278-13.987-4.855-21.42-7.663Z" transform="translate(-239.918 -71.6)"/>
        <path id="Path_231" data-name="Path 231" class="cls-16" d="M265.446,187.807a5.825,5.825,0,0,0-2.4-2.717,6.434,6.434,0,0,0-6.664,1.5c-2.208,2.248-3.437,5.365-4.855,7.1s-5.135,4.146-7.113,5.325-4.676,5-4.556,9.171a6.494,6.494,0,0,0,3.477,5.185Z" transform="translate(-239.856 -71.608)"/>
        <path id="Path_232" data-name="Path 232" class="cls-15" d="M264.648,186.75c-1.559-.9-4.546-.669-6.764,1.089-1.928,1.529-3.377,4.366-4.686,6.354a11.649,11.649,0,0,1-2.677,2.518c-1.139.949-4,2.727-5,3.766a11.919,11.919,0,0,0-2.088,2.877,11.29,11.29,0,0,0-1.319,3.667c-.3,2,0,5,1.4,6.514a3.7,3.7,0,0,0,5.774-.18c.54-.649,1.069-1.289,1.559-2a21.2,21.2,0,0,1,3.267-3.5,26.365,26.365,0,0,1,5.145-3.347c.2-.09.41-.21.609-.28,2.238-.869,4.506-1.559,4.865-2.308s1.439-7.493,3.257-8.812c.48-.34.3-1-.07-1.648S266.217,187.649,264.648,186.75Z" transform="translate(-239.858 -71.609)"/>
        <path id="Path_233" data-name="Path 233" class="cls-13" d="M282.995,165.28c-1,4.106-3.926,14.386-4.606,25.466-.45,7.263-.709,24.437-.709,32.809s-.43,14.576,2.528,17.463,8.991,2.468,11.909-2.807,4.616-10.99,7.063-20.98,3.936-17.064,3.936-17.064l3.177-27.274Z" transform="translate(-239.892 -71.589)"/>
        <path id="Path_234" data-name="Path 234" class="cls-13" d="M284.606,242.821c-3.686,0-5.994-1.459-10.69-10.39S259.67,200.1,259.67,200.1s-1.229-4.426,2-7.2c3.627-3.117,5.665-1.119,5.665-1.119s2.588,3.846,5.525,7.623c2.7,3.467,6.214,6.913,8.542,10.17C283.037,211.84,284.606,242.821,284.606,242.821Z" transform="translate(-239.875 -71.614)"/>
        <path id="Path_235" data-name="Path 235" class="cls-20" d="M277.938,205.308s-.519,20.63-.14,27.973a70.4,70.4,0,0,1-2.058-15.425,121.378,121.378,0,0,1,.09-14.916Z" transform="translate(-239.89 -71.625)"/>
        <path id="Path_236" data-name="Path 236" class="cls-18" d="M282.995,165.28a83.77,83.77,0,0,0-4.416,17.244c-1.269,9.261-.919,29.482-.919,29.482s2.578,4.5,11.079,6.054,12.818-2.737,12.818-2.737l5.755-26.345s11.819-5.615,14.806-18.352Z" transform="translate(-239.892 -71.589)"/>
        <path id="Path_238" data-name="Path 238" class="cls-17" d="M304.171,97.3,300.6,109.354c-9.911,0-16.035-9.661-16.035-19.571h0c0-9.99,6.334-18.283,16.294-18.283H304.1c9.99,0,17.983,6.614,17.983,16.574h0C322.124,94.558,314.092,97.3,304.171,97.3Z" transform="translate(-239.899 -71.5)"/>
        <path id="Path_239" data-name="Path 239" class="cls-16" d="M294.857,114.19h-1.928c-8.782.6-9.261,3.667-9.7,7.483a29.861,29.861,0,0,0,.22,12.468c1.369,5.375,1.808,18.273,1.808,18.273s-2.608,11.129-3.706,16.844c15.335,9.99,34.217,7.353,40.571,1.3-.13-5.425.15-11.269-.31-16.374,0,0,.24-8.672.869-12.128,4.126-5.255,3.836-9.331,2-13.6-3.107-7.543-10.71-14.067-12.708-14.057Z" transform="translate(-239.896 -71.541)"/>
        <path id="Path_240" data-name="Path 240" class="cls-13" d="M315.674,79.45c2.078,1.229,4.646,6.454,4.4,17.393-.22,9.271-3.227,11.559-4.735,12.228s-4.416.25-7.253-.22v5.565s3.916,4.546,3.667,7.1-5.645,3.147-9.3.659-5.994-7.433-5.994-7.433V102.758s-1.908,2.268-5,.19-3.237-7.2-1.429-9.051,5.735-1.259,6.464,1.289c0,0,4.516.16,10.53-3.137A16.914,16.914,0,0,0,315.674,79.45Z" transform="translate(-239.903 -71.508)"/>
        <path id="Path_241" data-name="Path 241" class="cls-17" d="M308.688,94.529a1.169,1.169,0,0,1-1.1,1.259,1.209,1.209,0,1,1,1.1-1.259Z" transform="translate(-239.919 -71.521)"/>
        <path id="Path_242" data-name="Path 242" class="cls-20" d="M310,102.4l2.707.859a1.389,1.389,0,0,1-1.758,1A1.489,1.489,0,0,1,310,102.4Z" transform="translate(-239.923 -71.529)"/>
        <path id="Path_243" data-name="Path 243" class="cls-17" d="M318.258,90.938,315.9,89.309a1.379,1.379,0,0,1,2-.41,1.509,1.509,0,0,1,.36,2.038Z" transform="translate(-239.929 -71.516)"/>
        <path id="Path_244" data-name="Path 244" class="cls-17" d="M317.718,93.679a1.165,1.165,0,1,1-1.229-1.149,1.189,1.189,0,0,1,1.229,1.149Z" transform="translate(-239.928 -71.52)"/>
        <path id="Path_245" data-name="Path 245" class="cls-20" d="M312.02,93.01l.18,7.023,3.7-1.139Z" transform="translate(-239.925 -71.521)"/>
        <path id="Path_246" data-name="Path 246" class="cls-20" d="M308.09,108.876c-3-.39-9.111-2.148-10.07-4.576a6.324,6.324,0,0,0,2.148,3.1c1.838,1.569,7.922,3.337,7.922,3.337Z" transform="translate(-239.912 -71.531)"/>
        <path id="Path_247" data-name="Path 247" class="cls-17" d="M274.177,78.425c-4.066,3.467-8.352,5.155-13.757,4.745-3.087-.24-6.574-1.069-8.991.859-2.1,1.648-2.238,4.246-1.129,6.534,1.209,2.458,4.366,4.086,6.833,5a15.985,15.985,0,0,0,9.681.52,18.153,18.153,0,0,0,8.272-4.6,49.68,49.68,0,0,0,4.4-5.774,14.337,14.337,0,0,1,5.3-4.845,25.658,25.658,0,0,1,3.726-1.189c1.339-.4,2.847-1.159,3-2.548a3,3,0,0,0-1.6-2.558,8.862,8.862,0,0,0-6.524-1,21.55,21.55,0,0,0-9.211,4.855Z" transform="translate(-239.865 -71.502)"/>
        <path id="Path_248" data-name="Path 248" class="cls-21" d="M294.669,149.867s15.525,1.4,24.826-3.337l-.37,15.505s-10.64,6.324-25.206,2.448Z" transform="translate(-239.908 -71.572)"/>
        <path id="Path_249" data-name="Path 249" d="M302.764,156.937v2.008a4.894,4.894,0,0,1-.26,1.2,2.477,2.477,0,0,1-.579.949,2.248,2.248,0,0,1-1,.6,3.686,3.686,0,0,1-1.419.14,3.776,3.776,0,0,1-1.389-.34,2.478,2.478,0,0,1-.889-.729,2.8,2.8,0,0,1-.47-1,5.471,5.471,0,0,1-.13-1.239v-1a4.482,4.482,0,0,1,.07-1,5.533,5.533,0,0,1,.27-1.2,2.428,2.428,0,0,1,.569-.929,2.308,2.308,0,0,1,1-.579,3.656,3.656,0,0,1,1.419-.13,4.116,4.116,0,0,1,1.389.32,2.4,2.4,0,0,1,1.359,1.678,5.3,5.3,0,0,1,.06,1.249Zm-4.676,1.668a2.428,2.428,0,0,0,.32,1.289,1.379,1.379,0,0,0,1.109.529,1.3,1.3,0,0,0,1.149-.37,2.308,2.308,0,0,0,.46-1.239c0-.28.05-.6.07-.939s0-.669,0-.949a2.348,2.348,0,0,0-.32-1.279,1.369,1.369,0,0,0-1.109-.52,1.289,1.289,0,0,0-1.149.36,2.238,2.238,0,0,0-.46,1.219c0,.28-.05.6-.07.949S298.089,158.316,298.089,158.605Z" transform="translate(-239.91 -71.578)"/>
        <path id="Path_250" data-name="Path 250" d="M315.766,155.047a1.768,1.768,0,0,0,.47-.629,1.709,1.709,0,0,0,.12-.539.929.929,0,0,0-.24-.739,1.059,1.059,0,0,0-.939-.16,1.508,1.508,0,0,0-.939.44,2.627,2.627,0,0,0-.46.839.34.34,0,0,1-.15.24.449.449,0,0,1-.2.11l-.909.12a.29.29,0,0,1-.22-.06.22.22,0,0,1-.07-.21,2.777,2.777,0,0,1,.31-1,3.5,3.5,0,0,1,.659-.879,3.537,3.537,0,0,1,.929-.659,3.875,3.875,0,0,1,1.119-.37,3,3,0,0,1,1.239,0,1.777,1.777,0,0,1,1.309,1.169,2.428,2.428,0,0,1,.12.849,1.462,1.462,0,0,1-.07.549,1.839,1.839,0,0,1-.19.539,3.745,3.745,0,0,1-.39.6,7.134,7.134,0,0,1-.679.709l-2.218,2.258c1.269-.2,1.908-.3,3.187-.539a.23.23,0,0,1,.21.05.19.19,0,0,1,.08.19v.809a.37.37,0,0,1-.1.23.39.39,0,0,1-.23.13c-2.138.4-3.217.569-5.345.839a.24.24,0,0,1-.22-.06.28.28,0,0,1-.08-.2v-.689a.63.63,0,0,1,.13-.35,1.129,1.129,0,0,1,.21-.22C313.628,157.115,314.338,156.435,315.766,155.047Z" transform="translate(-239.925 -71.576)"/>
        <path id="Path_251" data-name="Path 251" d="M310.234,152.79a.21.21,0,0,1,.21.05.19.19,0,0,1,.07.19l-.1.8a.52.52,0,0,1-.12.25l-.19.22c-.769.829-1.149,1.239-1.918,2a3.335,3.335,0,0,1,.919.07,1.679,1.679,0,0,1,.669.33,1.229,1.229,0,0,1,.38.579,2,2,0,0,1,0,.849,2.668,2.668,0,0,1-.37,1.089,3.567,3.567,0,0,1-.759.9,4.576,4.576,0,0,1-1.059.679,5.426,5.426,0,0,1-1.279.39,4.426,4.426,0,0,1-1.389,0,2.308,2.308,0,0,1-.939-.33,1.369,1.369,0,0,1-.53-.569,1.449,1.449,0,0,1-.15-.7.3.3,0,0,1,.11-.23.39.39,0,0,1,.24-.12l.919-.13a.21.21,0,0,1,.18,0,.78.78,0,0,1,.13.19.69.69,0,0,0,.16.22.64.64,0,0,0,.28.17,1.439,1.439,0,0,0,.46.07,3.218,3.218,0,0,0,.709-.06,2.628,2.628,0,0,0,1.179-.48,1.269,1.269,0,0,0,.539-.859.54.54,0,0,0-.35-.649,2.417,2.417,0,0,0-1.119,0l-1,.16a.24.24,0,0,1-.21-.06.22.22,0,0,1-.07-.19l.1-.8a.45.45,0,0,1,.12-.25l.19-.21c.739-.769,1.109-1.149,1.838-1.928-1.279.23-1.928.33-3.207.52a.24.24,0,0,1-.21-.06.22.22,0,0,1-.07-.2l.1-.8a.37.37,0,0,1,.12-.23.4.4,0,0,1,.23-.12A36.831,36.831,0,0,0,310.234,152.79Z" transform="translate(-239.917 -71.577)"/>
        <path id="Path_252" data-name="Path 252" class="cls-13" d="M291.493,114.31c-6.933-.1-10.24,1.748-12.858,8.911s-6.664,35.176-4.4,38.673,23.308,4.626,30.451,4.656,15.985-1.828,21.28-4.815c5.055-2.867,8.122-9.791,5.675-13.117-1.419-1.928-2.438-1.509-4.046-.13a15.525,15.525,0,0,1-7.283,3.377,17.864,17.864,0,0,0,2-3.117,9.331,9.331,0,0,0,.9-2.278,2.088,2.088,0,0,0-.18-1.788,1.469,1.469,0,0,0-1.868-.09,6.565,6.565,0,0,0-1.409,1.469,14.536,14.536,0,0,1-2.628,2.248l-4.686,3.427a24.423,24.423,0,0,1-2.478,1.668,12.808,12.808,0,0,1-6.993,1.3,94.169,94.169,0,0,1-16.165-2.288l3.926-21.43S295.259,121.993,291.493,114.31Z" transform="translate(-239.888 -71.541)"/>
      </g>
    </g>
    <g id="freepik--character-1--inject-29" transform="translate(90.411 138.136)">
      <g id="freepik--character--inject-29-2" data-name="freepik--character--inject-29">
        <path id="Path_253" data-name="Path 253" class="cls-20" d="M195.966,187.906c-.829-9.331-3.357-13.227-7.273-14.147-6.244-1.469-6.674.889-4.516,5.425a22.179,22.179,0,0,1,2,5.994,11.05,11.05,0,0,0-2.308-2.108,2.2,2.2,0,0,0-3,.31c-.28.39.749,1,1.708,2.667,1.239,2.148,1.289,3.726,3.147,5.645a6.074,6.074,0,0,1,1.179,3.377,47.075,47.075,0,0,1-1.718,12.258c-3.267-4.606-6.883-9.281-9.621-12.988-5-6.754-6.214-8.862-15.1-8.991l2.757,15.705s18.842,24.9,24.087,26.365c2.238.629,4,.23,5-.939h0l.06-.07c1.569-1.8,2.488-7.283,3-15.066h0c.34-3.9.6-8.3.909-13.038A71.77,71.77,0,0,0,195.966,187.906Z" transform="translate(-90.551 -138.268)"/>
        <path id="Path_254" data-name="Path 254" class="cls-22" d="M185.177,207.339a43.832,43.832,0,0,0-1.269,4.616,17.983,17.983,0,0,0,.12,7.942s-1.7-2-1.569-6.514a17.763,17.763,0,0,1,1.748-7.413Z" transform="translate(-90.572 -138.299)"/>
        <path id="Path_255" data-name="Path 255" class="cls-16" d="M110.391,275.168a5.614,5.614,0,0,0-2.787-2.048,6.114,6.114,0,0,0-5.874,2.747c-1.6,2.528-2.108,5.665-3.087,7.573s-3.926,4.885-5.525,6.374a10.88,10.88,0,0,0-2.378,9.441A6.154,6.154,0,0,0,95,303.361Z" transform="translate(-90.484 -138.363)"/>
        <path id="Path_256" data-name="Path 256" class="cls-15" d="M109.434,274.34c-1.638-.52-4.356.3-6.064,2.378-1.479,1.808-2.248,4.745-3.067,6.853a11.389,11.389,0,0,1-2,2.877c-.859,1.109-3.137,3.327-3.906,4.506a11.728,11.728,0,0,0-1.359,3.1,10.71,10.71,0,0,0-.48,3.676c.12,1.918,1,4.676,2.618,5.764a3.517,3.517,0,0,0,5.325-1.339,19.879,19.879,0,0,0,1-2.148,20.17,20.17,0,0,1,2.328-3.906,24.975,24.975,0,0,1,4.156-4.116c.17-.13.34-.28.51-.39,1.908-1.249,3.876-2.358,4.056-3.117s.889-9.9.889-9.9C112.4,278.266,111.062,274.859,109.434,274.34Z" transform="translate(-90.486 -138.364)"/>
        <path id="Path_257" data-name="Path 257" class="cls-20" d="M143.355,237.71l-1.748,55.237c-1.279-2.807-7.153-5.235-11.989-6.9-3.127-1.069-8.4-3.9-11.989-5.275h0l-5.675-3a6.094,6.094,0,0,0-3.157,1.549c-1.169,1-3.277,4.676-1.728,5.784a1.509,1.509,0,0,1,.779,1.339c1-.559,2.578.16,3.527.819a1.9,1.9,0,0,1,.789,1.059s19.811,13.287,26.3,17.613c8.052,5.365,12.478,3.107,15.5-.859s8.442-17.493,11.989-28.363,4.306-27.484,4.4-35.216Z" transform="translate(-90.499 -138.329)"/>
        <path id="Path_258" data-name="Path 258" class="cls-16" d="M170.412,241.536l-27.024-3.826s-2.168,38.473-2,41.381h0a6.354,6.354,0,0,0,2,4.775c3.6,3.876,10.7,6.064,15.855,4.885,2.617-.6,4.316-1.928,4.8-3.617h0s4.246-10.88,5.635-20.7S170.412,241.536,170.412,241.536Z" transform="translate(-90.533 -138.329)"/>
        <path id="Path_259" data-name="Path 259" class="cls-17" d="M159.8,254.5l8.911,10.93-6.544-9.99s5.894-2.488,7.343-7.223C169.511,248.26,165.195,253.865,159.8,254.5Z" transform="translate(-90.55 -138.339)"/>
        <ellipse id="Ellipse_55" data-name="Ellipse 55" class="cls-17" cx="14.186" cy="8.322" rx="14.186" ry="8.322" transform="translate(52.221 141.937) rotate(-46.08)"/>
        <path id="Path_260" data-name="Path 260" class="cls-16" d="M173.51,359.61c-.51.12-.549,2.128-.35,2.7a6.554,6.554,0,0,0,2.168,2.617,17.213,17.213,0,0,1,4.176,4.735,18.312,18.312,0,0,0,5.275,5.795,13.667,13.667,0,0,0,9.7,1.529c3.687-.629,4.056-2.438,4.076-3.726Z" transform="translate(-90.563 -138.445)"/>
        <path id="Path_261" data-name="Path 261" class="cls-15" d="M184.24,352.55c.549,1.389,3.377,8.232,6.883,11.089,2.8,2.268,6.574,4.865,7.653,7.513s-2.7,4.276-7.163,4.276c-4.646,0-6.913-2.308-9.081-4.7-1.529-1.668-3.577-4.666-4.676-5.994s-3.537-2.727-4.176-4.3c-.35-.859-.1-2.8.24-4.446s.629-3.177,1.149-3.067l.05.919C175.768,354.508,184.24,352.55,184.24,352.55Z" transform="translate(-90.563 -138.438)"/>
        <path id="Path_262" data-name="Path 262" class="cls-20" d="M178.5,277.3c-8.911-10.74-18.732-22.808-18.732-22.808L170.4,241.5l-37.564-5.325c-1.6,6.444-3.117,8.742-3.217,16.175-.06,5.2-.689,11.509,19.781,28.2,11.269,9.2,19.881,15.3,19.881,15.3s-2.528,4.586-2.368,12.988,7.5,36.455,8.092,43.858v.839c0,.37.26.529.5.769a4.156,4.156,0,0,1,.819,1.389,1.169,1.169,0,0,0,.52.7,1.279,1.279,0,0,0,.669.06c.669,0,1.708-.16,2,.579a2.548,2.548,0,0,1,1-1.748c1-.769,3.846-2.118,4.666-.17h0a20.32,20.32,0,0,1-1-7.093c.3-10.32,1.209-41.52,1.309-49.353C185.6,289.949,186.616,287.071,178.5,277.3Z" transform="translate(-90.521 -138.327)"/>
        <path id="Path_263" data-name="Path 263" class="cls-16" d="M148.981,286.252c-2.927-3.487-1.239-9.99,4.456-15.705,5.5-5.475,14.206-5.994,16.294-3.9l-9.941-12.158c3.9,0,9.261-4.546,10.63-8.092v-4.865l-37.564-5.325s-3.127,7.942-3.816,13.887-.919,11.989,3.547,18.073S148.981,286.252,148.981,286.252Z" transform="translate(-90.52 -138.327)"/>
        <path id="Path_264" data-name="Path 264" class="cls-17" d="M152.451,168.225l-3.567,12.048c-9.921,0-16.045-9.651-16.045-19.571h0c0-9.99,6.344-18.273,16.3-18.273h3.227c9.99,0,18.033,6.6,18.033,16.564h0C170.4,165.488,162.362,168.225,152.451,168.225Z" transform="translate(-90.524 -138.238)"/>
        <path id="Path_265" data-name="Path 265" class="cls-17" d="M172.276,149.769a7.143,7.143,0,0,0,1-4.136,4.765,4.765,0,0,0-2.068-3.647c-1.848-1.189-4.416-.629-6.144.739a5,5,0,0,0-5.365-4.476,10.91,10.91,0,0,0-4.546,1.878,23.977,23.977,0,0,1-7.723,2.378l3,1.189a5,5,0,0,0-.53,4.346,4.617,4.617,0,0,0,.47.839,20.431,20.431,0,0,0,18.572,8.991,5.894,5.894,0,0,0,2.877-.819,4.576,4.576,0,0,0,1.269-1.359,5.115,5.115,0,0,0,.889-3.207,3.327,3.327,0,0,0-1.7-2.717Z" transform="translate(-90.538 -138.234)"/>
        <path id="Path_266" data-name="Path 266" class="cls-23" d="M143.138,185.11H141.2c-8.772.609-9.251,3.666-9.7,7.493a29.871,29.871,0,0,0,.23,12.458c1.369,5.385,4,18.263,4,18.263s-3.507,11.459-4.6,17.174c15.335,9.99,32.889,6.993,39.243,1-.13-5.435.14-11.269-.31-16.374a120.525,120.525,0,0,1,.9-12.148c4.116-5.255,3.836-9.321,2.048-13.587-3.157-7.543-10.79-14.067-12.748-14.057Z" transform="translate(-90.523 -138.279)"/>
        <path id="Path_267" data-name="Path 267" class="cls-20" d="M163.974,150.38c2.078,1.229,4.636,6.444,4.386,17.383-.21,9.281-3.217,11.569-4.725,12.228s-4.426.26-7.253-.21v5.565s3.906,4.546,3.667,7.093-5.655,3.157-9.311.659-5.994-7.423-5.994-7.423V173.688s-1.908,2.268-5,.19-3.247-7.213-1.429-9.061,5.735-1.259,6.464,1.289c0,0,4.516.17,10.52-3.137a16.874,16.874,0,0,0,8.672-12.588Z" transform="translate(-90.529 -138.246)"/>
        <path id="Path_268" data-name="Path 268" class="cls-17" d="M157,165.449a1.189,1.189,0,0,1-1.109,1.269,1.209,1.209,0,0,1-1.229-1.159,1.17,1.17,0,0,1,2.338-.11Z" transform="translate(-90.545 -138.259)"/>
        <path id="Path_269" data-name="Path 269" class="cls-22" d="M158.32,173.32l2.707.869a1.4,1.4,0,0,1-1.758,1,1.489,1.489,0,0,1-.949-1.868Z" transform="translate(-90.549 -138.268)"/>
        <path id="Path_270" data-name="Path 270" class="cls-17" d="M166.538,161.868l-2.358-1.638a1.379,1.379,0,0,1,2-.4,1.509,1.509,0,0,1,.36,2.038Z" transform="translate(-90.554 -138.254)"/>
        <path id="Path_271" data-name="Path 271" class="cls-17" d="M166,164.609a1.169,1.169,0,1,1-.6-1.062,1.169,1.169,0,0,1,.6,1.062Z" transform="translate(-90.554 -138.258)"/>
        <path id="Path_272" data-name="Path 272" class="cls-22" d="M160.29,163.94l.19,7.023,3.7-1.149Z" transform="translate(-90.551 -138.259)"/>
        <path id="Path_273" data-name="Path 273" class="cls-22" d="M156.37,179.806c-3-.39-9.121-2.158-10.08-4.586a6.264,6.264,0,0,0,2.158,3.1c1.828,1.578,7.922,3.347,7.922,3.347Z" transform="translate(-90.537 -138.269)"/>
        <path id="Path_274" data-name="Path 274" class="cls-20" d="M115.826,251.717c-1.1-2.578-1.878-3.407-2.368-5.8a10.988,10.988,0,0,0,2.3,1.848c1,.519,2.428.509,2.787-.43s-1.229-1.5-1.828-2.588a31.13,31.13,0,0,0-3.277-5.225,3.587,3.587,0,0,1-1.129-2.568c.1-6.9,1.109-14.326,1.309-21.39,5.045-3.617,13.527-7.583,18.083-10.5a12.058,12.058,0,0,0,7.263-4.076,13.487,13.487,0,0,0,2.8-10.65c-.27-1.668-1-4.526-2.637-5-.769-.21-2.937-.08-5.9,1.219-2,.869-6.114,3-14.376,8.192a74.318,74.318,0,0,0-16.334,13.467c-2.138,2.448-.789,22.459-.45,27.194.18,2.568.559,6.524,1.129,9.911,1,5.715,4.176,10.47,8.292,11.479C117.984,258.41,117.325,255.2,115.826,251.717Z" transform="translate(-90.494 -138.279)"/>
        <path id="Path_275" data-name="Path 275" class="cls-21" d="M144.72,223.836s15.555,1,24.736-3.926v15.515s-10.48,6.574-25.136,3Z" transform="translate(-90.535 -138.312)"/>
        <path id="Path_276" data-name="Path 276" d="M152.994,230.717v2.008a5.086,5.086,0,0,1-.24,1.209,2.537,2.537,0,0,1-.549,1,2.348,2.348,0,0,1-.949.619,3.586,3.586,0,0,1-1.409.17,3.487,3.487,0,0,1-1.4-.31,2.388,2.388,0,0,1-.909-.7,2.787,2.787,0,0,1-.49-1,5.364,5.364,0,0,1-.16-1.229v-1a5.215,5.215,0,0,1,.06-1,5,5,0,0,1,.23-1.2,2.335,2.335,0,0,1,1.489-1.549,3.627,3.627,0,0,1,1.419-.16,4,4,0,0,1,1.4.28,2.507,2.507,0,0,1,.909.669,2.448,2.448,0,0,1,.49,1A5.2,5.2,0,0,1,152.994,230.717Zm-4.636,1.768a2.468,2.468,0,0,0,.35,1.289,1.339,1.339,0,0,0,1.119.5,1.269,1.269,0,0,0,1.139-.4,2.178,2.178,0,0,0,.43-1.239,6.5,6.5,0,0,1,.05-.949,6.006,6.006,0,0,0,0-.949,2.3,2.3,0,0,0-.36-1.269,1.686,1.686,0,0,0-2.238-.09,2.3,2.3,0,0,0-.43,1.239,6.3,6.3,0,0,1-.05.939,4.908,4.908,0,0,0-.02.929Z" transform="translate(-90.538 -138.319)"/>
        <path id="Path_277" data-name="Path 277" d="M158.456,230.417a1.739,1.739,0,0,0,.45-.649,2,2,0,0,0,.12-.539.909.909,0,0,0-.27-.729,1,1,0,0,0-.929-.14,1.479,1.479,0,0,0-.929.47,2.148,2.148,0,0,0-.44.849.489.489,0,0,1-.15.24.45.45,0,0,1-.2.11l-.909.14a.25.25,0,0,1-.22,0,.23.23,0,0,1-.08-.21,2.868,2.868,0,0,1,.3-1,3.607,3.607,0,0,1,.629-.889,3.667,3.667,0,0,1,.909-.679,3.937,3.937,0,0,1,1.119-.4,3,3,0,0,1,1.229,0,2.158,2.158,0,0,1,.859.42,1.788,1.788,0,0,1,.48.709,2.278,2.278,0,0,1,.14.859,4.5,4.5,0,0,1,0,.539,2.469,2.469,0,0,1-.17.549,3.4,3.4,0,0,1-.39.609,5.686,5.686,0,0,1-.649.719l-2.168,2.318c1.269-.23,1.9-.35,3.167-.619a.27.27,0,0,1,.22,0,.24.24,0,0,1,.08.2v.8a.39.39,0,0,1-.1.24.44.44,0,0,1-.22.14c-2.128.45-3.2.639-5.335,1a.26.26,0,0,1-.21-.06.22.22,0,0,1-.08-.2v-.689a.55.55,0,0,1,.12-.35,1.289,1.289,0,0,1,.2-.23C156.368,232.535,157.068,231.835,158.456,230.417Z" transform="translate(-90.545 -138.319)"/>
        <path id="Path_278" data-name="Path 278" d="M167.994,224.61a.25.25,0,0,1,.21,0,.21.21,0,0,1,.09.19v.8a.449.449,0,0,1-.09.26l-.17.24-1.718,2.228a3.257,3.257,0,0,1,.929,0,1.628,1.628,0,0,1,.689.26,1.149,1.149,0,0,1,.44.549,1.928,1.928,0,0,1,.13.829,2.867,2.867,0,0,1-.26,1.119,3.737,3.737,0,0,1-.669,1,4.545,4.545,0,0,1-1,.779,5.135,5.135,0,0,1-1.229.51,4.616,4.616,0,0,1-1.379.18,2.548,2.548,0,0,1-1-.24,1.448,1.448,0,0,1-.589-.529,1.5,1.5,0,0,1-.21-.679.29.29,0,0,1,.09-.24.39.39,0,0,1,.23-.13l.9-.22a.21.21,0,0,1,.18,0,.63.63,0,0,1,.15.17.729.729,0,0,0,.47.35,1.728,1.728,0,0,0,.48,0,3.847,3.847,0,0,0,.689-.13,2.7,2.7,0,0,0,1.129-.589,1.269,1.269,0,0,0,.45-.909.53.53,0,0,0-.4-.609,2.538,2.538,0,0,0-1.119.09l-1,.26a.23.23,0,0,1-.3-.23v-.809a.569.569,0,0,1,.1-.25,2.291,2.291,0,0,1,.17-.23l1.648-2.088c-1.259.35-1.9.51-3.157.809a.25.25,0,0,1-.21,0,.24.24,0,0,1-.09-.2v-.8a.38.38,0,0,1,.09-.24.48.48,0,0,1,.22-.14C165,225.479,166,225.209,167.994,224.61Z" transform="translate(-90.552 -138.316)"/>
      </g>
    </g>
    <g id="freepik--hurdle-1--inject-29" transform="translate(126.962 268.268)">
      <g id="freepik--fence--inject-29-2" data-name="freepik--fence--inject-29">
        <path id="Path_279" data-name="Path 279" class="cls-8" d="M157.691,344.57v76.237a.529.529,0,0,1-.8.45l-25.825-14.906-3.327,5.764,30.231,17.473a4.216,4.216,0,0,0,6.334-3.657V348.406Z" transform="translate(-127.071 -268.563)"/>
        <path id="Path_280" data-name="Path 280" class="cls-8" d="M129.418,406.58c1.3-.749,2.358-.14,2.358,1.359a5.215,5.215,0,0,1-2.358,4.076c-1.3.749-2.348.14-2.348-1.359A5.205,5.205,0,0,1,129.418,406.58Z" transform="translate(-127.07 -268.621)"/>
        <path id="Path_281" data-name="Path 281" class="cls-8" d="M249.491,291.57v76.237a.53.53,0,0,1-.789.46l-25.825-14.916-3.337,5.764,30.281,17.473a4.216,4.216,0,0,0,6.324-3.647V295.406Z" transform="translate(-127.158 -268.512)"/>
        <path id="Path_282" data-name="Path 282" class="cls-8" d="M221.218,353.58c1.3-.749,2.358-.14,2.358,1.359a5.215,5.215,0,0,1-2.358,4.076c-1.3.749-2.348.14-2.348-1.359A5.205,5.205,0,0,1,221.218,353.58Z" transform="translate(-127.157 -268.571)"/>
        <path id="Path_283" data-name="Path 283" class="cls-9" d="M144.4,332.969,256.073,268.49l6.654,3.846v23.048L151.054,359.863l-6.654-3.846Z" transform="translate(-127.087 -268.49)"/>
        <path id="Path_284" data-name="Path 284" class="cls-10" d="M144.4,332.969l6.654,3.836,111.673-64.469-6.654-3.846Z" transform="translate(-127.087 -268.49)"/>
        <path id="Path_285" data-name="Path 285" class="cls-11" d="M151.06,336.809,262.733,272.34v23.048L151.06,359.867Z" transform="translate(-127.093 -268.494)"/>
        <path id="Path_286" data-name="Path 286" class="cls-12" d="M144.4,333.03l6.654,3.836v23.058l-6.654-3.846Z" transform="translate(-127.087 -268.551)"/>
      </g>
    </g>
  </g>
</svg>
