<svg xmlns="http://www.w3.org/2000/svg" xmlns:xlink="http://www.w3.org/1999/xlink" width="522.929" height="466.512" viewBox="0 0 522.929 466.512">
  <defs>
    <style>
      .cls-1 {
        fill: #c1c5ef;
      }

      .cls-1, .cls-17 {
        opacity: 0.1;
      }

      .cls-2 {
        fill: #eaeaff;
      }

      .cls-3 {
        fill: #4f5bd3;
      }

      .cls-19, .cls-4 {
        opacity: 0.2;
      }

      .cls-5 {
        fill: url(#linear-gradient);
      }

      .cls-6 {
        fill: url(#linear-gradient-2);
      }

      .cls-7 {
        fill: #fff;
      }

      .cls-8 {
        fill: #fafafa;
      }

      .cls-29, .cls-9 {
        opacity: 0.35;
      }

      .cls-10, .cls-29 {
        fill: #4e5ad3;
      }

      .cls-11 {
        opacity: 0.15;
      }

      .cls-12 {
        opacity: 0.25;
      }

      .cls-13 {
        fill: url(#linear-gradient-3);
      }

      .cls-14 {
        fill: #455a64;
      }

      .cls-15, .cls-19 {
        fill: #37474f;
      }

      .cls-16 {
        fill: #4651be;
      }

      .cls-18 {
        fill: #30377f;
      }

      .cls-20 {
        fill: #939dff;
      }

      .cls-21 {
        fill: #ececec;
        opacity: 0.4;
      }

      .cls-22 {
        fill: #3c48b8;
      }

      .cls-23 {
        fill: #ffa8a7;
      }

      .cls-24 {
        fill: #263238;
      }

      .cls-25 {
        fill: #f0f0f0;
      }

      .cls-26 {
        fill: #ebebeb;
      }

      .cls-27 {
        fill: #f28f8f;
      }

      .cls-28 {
        fill: #b16668;
      }
    </style>
    <linearGradient id="linear-gradient" x1="0.5" x2="0.5" y2="1" gradientUnits="objectBoundingBox">
      <stop offset="0" stop-color="#8693f3"/>
      <stop offset="1" stop-color="#4f5bd3"/>
    </linearGradient>
    <linearGradient id="linear-gradient-2" x2="0.629" y2="1.612" xlink:href="#linear-gradient"/>
    <linearGradient id="linear-gradient-3" x1="0.5" x2="0.5" y2="1" gradientUnits="objectBoundingBox">
      <stop offset="0" stop-color="#4f5bd3"/>
      <stop offset="1" stop-color="#8693f3"/>
    </linearGradient>
  </defs>
  <g id="Pay_attention-amico" data-name="Pay attention-amico" transform="translate(-1.608)">
    <g id="freepik--Floor--inject-37" transform="translate(1.608 355.26)">
      <path id="freepik--floor--inject-37-2" data-name="freepik--floor--inject-37" class="cls-1" d="M261.465,0c144.4,0,261.465,24.9,261.465,55.626s-117.062,55.626-261.465,55.626S0,86.347,0,55.626,117.062,0,261.465,0Z"/>
    </g>
    <g id="freepik--Shadow--inject-37" transform="translate(315.503 373.284)">
      <path id="freepik--shadow--inject-37-2" data-name="freepik--shadow--inject-37" class="cls-2" d="M78.163,0c43.168,0,78.163,13.011,78.163,29.061S121.331,58.123,78.163,58.123,0,45.112,0,29.061,34.995,0,78.163,0Z"/>
    </g>
    <g id="freepik--speech-bubble-2--inject-37" transform="translate(89.321 250.92)">
      <g id="freepik--speech-bubble--inject-37" transform="translate(0 0)">
        <g id="freepik--speech-bubble--inject-37-2" data-name="freepik--speech-bubble--inject-37" transform="translate(23.033)">
          <path id="Path_14" data-name="Path 14" class="cls-3" d="M241.749,433.844l-9.009-5.2V350.684L394.784,257.13l9,5.2V340.29Z" transform="translate(-232.74 -239.933)"/>
          <path id="Path_15" data-name="Path 15" class="cls-4" d="M241.749,433.844l-9.009-5.2V350.684L394.784,257.13l9,5.2V340.29Z" transform="translate(-232.74 -239.933)"/>
          <path id="Path_16" data-name="Path 16" class="cls-5" d="M240.87,355.374,402.9,261.82v77.964L240.87,433.338Z" transform="translate(-231.861 -239.426)"/>
          <path id="Path_17" data-name="Path 17" class="cls-3" d="M328.709,305.59l-9.009-5.208a43.214,43.214,0,0,1-15.568-3.712,44.743,44.743,0,0,1-6.937-6.36c-13.707-15.513,0-44.489,0-44.489l-7.28-4.211c-28.123,25.341-37.73,57.331-19.724,87.36l9.009,5.2Z" transform="translate(-229.681 -241.61)"/>
          <path id="Path_18" data-name="Path 18" class="cls-4" d="M328.709,305.59l-9.009-5.208a43.214,43.214,0,0,1-15.568-3.712,44.743,44.743,0,0,1-6.937-6.36c-13.707-15.513,0-44.489,0-44.489l-7.28-4.211c-28.123,25.341-37.73,57.331-19.724,87.36l9.009,5.2Z" transform="translate(-229.681 -241.61)"/>
          <path id="Path_19" data-name="Path 19" class="cls-6" d="M278.371,333.756c-18.006-30.029-10.128-63.016,17.995-88.346,0,0-13.707,28.987,0,44.489a45.608,45.608,0,0,0,31.513,15.28Z" transform="translate(-228.851 -241.199)"/>
        </g>
        <path id="Path_20" data-name="Path 20" class="cls-7" d="M290.388,359.845a6.205,6.205,0,0,1,2.216-.831,2.216,2.216,0,0,1,1.651.332,2.914,2.914,0,0,1,1.108,1.54,8.4,8.4,0,0,1,.377,2.77,13,13,0,0,1-.377,3.224,11.311,11.311,0,0,1-1.108,2.748,10.249,10.249,0,0,1-3.834,3.945l-2.438,1.4v5.973a1.374,1.374,0,0,1-.155.643,1,1,0,0,1-.355.443l-2.493,1.44a.266.266,0,0,1-.355,0,.565.565,0,0,1-.155-.465V364.067a1.407,1.407,0,0,1,.155-.643,1.108,1.108,0,0,1,.355-.443Zm-2.438,10.571,2.338-1.352a3.723,3.723,0,0,0,1.319-1.308,3.812,3.812,0,0,0,.532-2.072c0-.82-.177-1.308-.532-1.474a1.485,1.485,0,0,0-1.319.222l-2.338,1.352Z" transform="translate(-204.117 -228.927)"/>
        <path id="Path_21" data-name="Path 21" class="cls-7" d="M305.518,366.662a.288.288,0,0,1,.366,0,.631.631,0,0,1,.144.465v3.1a1.507,1.507,0,0,1-.144.642,1.108,1.108,0,0,1-.366.444l-8.8,5.086a.277.277,0,0,1-.366,0,.631.631,0,0,1-.144-.465v-18.9a1.507,1.507,0,0,1,.144-.642.942.942,0,0,1,.366-.443l2.493-1.44a.266.266,0,0,1,.355,0,.631.631,0,0,1,.155.465V370.02Z" transform="translate(-202.848 -229.417)"/>
        <path id="Path_22" data-name="Path 22" class="cls-7" d="M316.07,360.928a.277.277,0,0,1,.366,0,.632.632,0,0,1,.144.465v3.1a1.508,1.508,0,0,1-.144.642.942.942,0,0,1-.366.444l-9.02,5.23a.277.277,0,0,1-.366,0,.632.632,0,0,1-.144-.465V351.421a1.507,1.507,0,0,1,.144-.642,1.108,1.108,0,0,1,.366-.443l8.865-5.108a.266.266,0,0,1,.366,0,.631.631,0,0,1,.155.465v3.1a1.518,1.518,0,0,1-.155.643.942.942,0,0,1-.366.443l-5.851,3.38v3.158l5.441-3.136a.277.277,0,0,1,.355,0,.643.643,0,0,1,.155.476v3.091a1.573,1.573,0,0,1-.155.654.953.953,0,0,1-.355.432l-5.441,3.147v3.269Z" transform="translate(-201.732 -230.42)"/>
        <path id="Path_23" data-name="Path 23" class="cls-7" d="M324.711,340.081c.255-.155.454-.155.587,0a1.108,1.108,0,0,1,.266.488l4.144,16.056a1.31,1.31,0,0,1,.078.388,1.329,1.329,0,0,1-.122.532.7.7,0,0,1-.3.355l-2.349,1.352c-.255.144-.432.166-.543.066a.686.686,0,0,1-.188-.366l-.543-2.128-5.053,2.925-.532,2.737a2.1,2.1,0,0,1-.2.6,1.308,1.308,0,0,1-.543.554l-2.393,1.385a.222.222,0,0,1-.288,0,.477.477,0,0,1-.133-.377,3.183,3.183,0,0,1,.078-.488l4.1-20.832a4.433,4.433,0,0,1,.277-.809,1.385,1.385,0,0,1,.576-.654Zm-3.08,14.56,3.08-1.784-1.54-6.128Z" transform="translate(-200.645 -230.981)"/>
        <path id="Path_24" data-name="Path 24" class="cls-7" d="M334.7,333.984a5.064,5.064,0,0,1,2.216-.754,3.324,3.324,0,0,1,1.762.377,3.058,3.058,0,0,1,1.108,1.208,3.711,3.711,0,0,1,.432,1.706,1.24,1.24,0,0,1-.122.521.809.809,0,0,1-.277.355l-2.493,1.44a.665.665,0,0,1-.421.122.654.654,0,0,1-.332-.155l-.188-.188a.875.875,0,0,0-.343-.222,1.331,1.331,0,0,0-.576-.055,2.337,2.337,0,0,0-.831.332,4.767,4.767,0,0,0-.7.465,3.623,3.623,0,0,0-.587.576,2.925,2.925,0,0,0-.421.7,2.216,2.216,0,0,0-.155.82.9.9,0,0,0,.177.632.831.831,0,0,0,.609.188,5.119,5.119,0,0,0,1.108-.166l1.751-.454a6.05,6.05,0,0,1,1.817-.244,2.216,2.216,0,0,1,1.307.5,2.66,2.66,0,0,1,.776,1.308,7.823,7.823,0,0,1,.255,2.216,10.039,10.039,0,0,1-.432,2.915,11.7,11.7,0,0,1-1.23,2.714,11.834,11.834,0,0,1-1.862,2.338,11.082,11.082,0,0,1-2.349,1.8,5.818,5.818,0,0,1-2.349.842,3.324,3.324,0,0,1-1.839-.332,3.058,3.058,0,0,1-1.208-1.252,4.265,4.265,0,0,1-.454-1.928,1.331,1.331,0,0,1,.166-.487.831.831,0,0,1,.277-.344l2.493-1.44a.9.9,0,0,1,.421-.144.6.6,0,0,1,.3.133l.233.255a1.252,1.252,0,0,0,.4.3,1.307,1.307,0,0,0,.654.111,2.217,2.217,0,0,0,.953-.344,7.146,7.146,0,0,0,1.684-1.308,2.294,2.294,0,0,0,.676-1.607.631.631,0,0,0-.244-.587,1.208,1.208,0,0,0-.742-.111,6.334,6.334,0,0,0-1.263.244c-.521.133-1.108.3-1.817.465a2.759,2.759,0,0,1-2.859-.5,5.252,5.252,0,0,1-.909-3.5,9.973,9.973,0,0,1,.377-2.615,12.355,12.355,0,0,1,2.77-5.008A9.164,9.164,0,0,1,334.7,333.984Z" transform="translate(-199.321 -231.71)"/>
        <path id="Path_25" data-name="Path 25" class="cls-7" d="M350.749,340.9a.3.3,0,0,1,.366,0,.665.665,0,0,1,.144.476v3.1a1.54,1.54,0,0,1-.144.643,1,1,0,0,1-.366.443l-9.009,5.2a.266.266,0,0,1-.355,0,.6.6,0,0,1-.155-.476V331.452a1.34,1.34,0,0,1,.155-.643.931.931,0,0,1,.355-.443l8.865-5.119a.277.277,0,0,1,.366,0,.6.6,0,0,1,.155.465v3.1a1.563,1.563,0,0,1-.155.643,1,1,0,0,1-.366.443l-5.851,3.38v3.158l5.441-3.136a.255.255,0,0,1,.355,0,.631.631,0,0,1,.155.465v3.1a1.484,1.484,0,0,1-.155.643.931.931,0,0,1-.355.443l-5.441,3.136v3.324Z" transform="translate(-197.983 -232.579)"/>
        <path id="Path_26" data-name="Path 26" class="cls-7" d="M355.524,335.395a1.562,1.562,0,0,1-.155.643,1.108,1.108,0,0,1-.355.443l-2.393,1.374a.266.266,0,0,1-.366,0,.632.632,0,0,1-.155-.465V324.757a1.484,1.484,0,0,1,.155-.643.887.887,0,0,1,.366-.443l2.393-1.385a.277.277,0,0,1,.355,0,.643.643,0,0,1,.155.476Zm0,6.294a1.562,1.562,0,0,1-.155.643.953.953,0,0,1-.355.432l-2.393,1.374a.266.266,0,0,1-.366,0,.632.632,0,0,1-.155-.465V340.7a1.518,1.518,0,0,1,.155-.643.942.942,0,0,1,.366-.443l2.393-1.385a.266.266,0,0,1,.355,0,.6.6,0,0,1,.155.465Z" transform="translate(-196.809 -232.899)"/>
        <path id="Path_27" data-name="Path 27" class="cls-7" d="M360.7,332.405a1.562,1.562,0,0,1-.155.643,1.109,1.109,0,0,1-.355.443l-2.393,1.374a.266.266,0,0,1-.366,0,.632.632,0,0,1-.155-.465V321.768a1.484,1.484,0,0,1,.155-.643.886.886,0,0,1,.366-.443l2.393-1.385a.266.266,0,0,1,.355,0,.643.643,0,0,1,.155.476Zm0,6.294a1.562,1.562,0,0,1-.155.643.953.953,0,0,1-.355.432l-2.393,1.363a.277.277,0,0,1-.366,0,.632.632,0,0,1-.155-.465v-2.959a1.518,1.518,0,0,1,.155-.643.942.942,0,0,1,.366-.443l2.393-1.385a.266.266,0,0,1,.355,0,.6.6,0,0,1,.155.465Z" transform="translate(-196.249 -233.222)"/>
        <path id="Path_28" data-name="Path 28" class="cls-7" d="M365.884,329.415a1.562,1.562,0,0,1-.155.643,1.108,1.108,0,0,1-.355.443l-2.393,1.374a.266.266,0,0,1-.366,0,.632.632,0,0,1-.155-.465V318.778a1.484,1.484,0,0,1,.155-.643.886.886,0,0,1,.366-.443l2.393-1.385a.266.266,0,0,1,.355,0,.643.643,0,0,1,.155.476Zm0,6.283a1.573,1.573,0,0,1-.155.654.953.953,0,0,1-.355.432l-2.393,1.352a.277.277,0,0,1-.366,0,.632.632,0,0,1-.155-.465v-2.959a1.518,1.518,0,0,1,.155-.643.887.887,0,0,1,.366-.443l2.393-1.385a.266.266,0,0,1,.355,0,.6.6,0,0,1,.155.465Z" transform="translate(-195.689 -233.545)"/>
        <path id="Path_29" data-name="Path 29" class="cls-7" d="M278.062,339.172c.277-.166.488-.166.643,0a1.274,1.274,0,0,1,.3.532l4.6,17.8a1.562,1.562,0,0,1,.089.432,1.429,1.429,0,0,1-.144.587.931.931,0,0,1-.321.4l-2.659,1.529q-.41.244-.6.066a.654.654,0,0,1-.222-.4l-.587-2.36-5.607,3.236-.587,3.036a2.67,2.67,0,0,1-.233.665,1.3,1.3,0,0,1-.6.62l-2.648,1.54a.266.266,0,0,1-.332,0,.6.6,0,0,1-.133-.432,2.827,2.827,0,0,1,.078-.532l4.6-23.092a3.879,3.879,0,0,1,.31-.886,1.484,1.484,0,0,1,.643-.731Zm-3.413,16.145,3.413-1.961-1.706-6.8Z" transform="translate(-205.787 -231.08)"/>
        <path id="Path_30" data-name="Path 30" class="cls-7" d="M293.4,330.467a.3.3,0,0,1,.4,0,.7.7,0,0,1,.166.521v3.435a1.706,1.706,0,0,1-.166.72,1.108,1.108,0,0,1-.4.488l-3.712,2.139v16.621a1.707,1.707,0,0,1-.166.72,1.108,1.108,0,0,1-.4.488l-2.759,1.6a.3.3,0,0,1-.4,0,.7.7,0,0,1-.177-.521V340.052l-3.734,2.15a.3.3,0,0,1-.4,0,.654.654,0,0,1-.177-.521v-3.435a1.573,1.573,0,0,1,.177-.72,1.108,1.108,0,0,1,.4-.488Z" transform="translate(-204.44 -232.016)"/>
        <path id="Path_31" data-name="Path 31" class="cls-7" d="M305.4,323.548a.288.288,0,0,1,.4,0,.7.7,0,0,1,.166.521V327.5a1.707,1.707,0,0,1-.166.72,1.108,1.108,0,0,1-.4.488l-3.712,2.139v16.621a1.707,1.707,0,0,1-.166.72,1.109,1.109,0,0,1-.4.488l-2.759,1.6a.3.3,0,0,1-.4,0,.676.676,0,0,1-.166-.51V333.144l-3.745,2.127a.3.3,0,0,1-.4,0,.654.654,0,0,1-.177-.521v-3.435a1.574,1.574,0,0,1,.177-.72,1.108,1.108,0,0,1,.4-.488Z" transform="translate(-203.143 -232.764)"/>
        <path id="Path_32" data-name="Path 32" class="cls-7" d="M317.028,334.261a.3.3,0,0,1,.4,0,.676.676,0,0,1,.166.51v3.446a1.662,1.662,0,0,1-.166.709,1.108,1.108,0,0,1-.4.5l-9.973,5.762a.31.31,0,0,1-.4,0,.72.72,0,0,1-.166-.521v-21a1.662,1.662,0,0,1,.166-.709,1.042,1.042,0,0,1,.4-.4l9.817-5.662a.3.3,0,0,1,.4,0,.676.676,0,0,1,.177.521v3.435a1.574,1.574,0,0,1-.177.72,1.109,1.109,0,0,1-.4.488l-6.493,3.712v3.513l6.028-3.479a.321.321,0,0,1,.41,0,.72.72,0,0,1,.166.521v3.435a1.707,1.707,0,0,1-.166.72,1.107,1.107,0,0,1-.41.488l-6.028,3.5v3.6Z" transform="translate(-201.737 -233.482)"/>
        <path id="Path_33" data-name="Path 33" class="cls-7" d="M328.285,333.03c-.244.133-.432.155-.576,0a.987.987,0,0,1-.288-.288l-4.831-8.31V335.39a1.706,1.706,0,0,1-.166.72,1.108,1.108,0,0,1-.4.488l-2.759,1.6a.3.3,0,0,1-.4,0,.676.676,0,0,1-.166-.51V316.752a1.662,1.662,0,0,1,.166-.709,1.041,1.041,0,0,1,.4-.5l2.216-1.263c.233-.133.432-.155.576,0a1.107,1.107,0,0,1,.288.288l4.82,8.31V311.921a1.706,1.706,0,0,1,.166-.72,1.109,1.109,0,0,1,.41-.487l2.759-1.6a.3.3,0,0,1,.4,0,.7.7,0,0,1,.166.521v20.954a1.706,1.706,0,0,1-.166.72,1.108,1.108,0,0,1-.4.488Z" transform="translate(-200.418 -234.323)"/>
        <path id="Path_34" data-name="Path 34" class="cls-7" d="M343.44,301.577a.3.3,0,0,1,.4,0,.7.7,0,0,1,.166.521v3.435a1.707,1.707,0,0,1-.166.72,1.108,1.108,0,0,1-.4.488l-3.712,2.139V325.5a1.706,1.706,0,0,1-.166.72,1.108,1.108,0,0,1-.4.488l-2.759,1.6a.3.3,0,0,1-.4,0,.643.643,0,0,1-.177-.521V311.162l-3.7,2.15a.321.321,0,0,1-.41,0,.7.7,0,0,1-.166-.521v-3.435a1.706,1.706,0,0,1,.166-.72,1.108,1.108,0,0,1,.41-.488Z" transform="translate(-199.029 -235.138)"/>
        <path id="Path_35" data-name="Path 35" class="cls-7" d="M345.056,322.867a.3.3,0,0,1-.4,0,.677.677,0,0,1-.177-.51v-21a1.674,1.674,0,0,1,.177-.709,1.041,1.041,0,0,1,.4-.488l2.759-1.6a.3.3,0,0,1,.4,0,.7.7,0,0,1,.166.521v21.02a1.706,1.706,0,0,1-.166.72,1.108,1.108,0,0,1-.4.488Z" transform="translate(-197.632 -235.463)"/>
        <path id="Path_36" data-name="Path 36" class="cls-7" d="M350.252,305.934a18.69,18.69,0,0,1,.51-3.723,17,17,0,0,1,1.285-3.535,15.037,15.037,0,0,1,2.028-3.047,10.671,10.671,0,0,1,2.748-2.294,5.54,5.54,0,0,1,2.737-.875,3.058,3.058,0,0,1,2.039.7,4.565,4.565,0,0,1,1.285,2.05,11.216,11.216,0,0,1,.521,3.125c0,.92,0,1.884,0,2.9v2.881a18.718,18.718,0,0,1-.521,3.712,16.792,16.792,0,0,1-1.285,3.557,13.684,13.684,0,0,1-2.039,3.047,10.727,10.727,0,0,1-2.737,2.216,5.673,5.673,0,0,1-2.748.9,2.959,2.959,0,0,1-2.028-.709,4.632,4.632,0,0,1-1.285-2.061,11.238,11.238,0,0,1-.51-3.125v-2.837C350.252,307.8,350.218,306.876,350.252,305.934Zm9.252.266v-5.452a5.843,5.843,0,0,0-.222-1.363,2.061,2.061,0,0,0-.51-.9,1.23,1.23,0,0,0-.809-.321,2.216,2.216,0,0,0-1.108.366,4.433,4.433,0,0,0-1.108.953,5.719,5.719,0,0,0-.809,1.263,6.987,6.987,0,0,0-.5,1.474,8.627,8.627,0,0,0-.222,1.618c0,.388,0,.809,0,1.285v4.166a3.624,3.624,0,0,0,.72,2.272c.432.465,1.108.454,1.95-.055a4.554,4.554,0,0,0,1.939-2.216,9.363,9.363,0,0,0,.676-3.091Z" transform="translate(-197.01 -236.115)"/>
        <path id="Path_37" data-name="Path 37" class="cls-7" d="M373.936,306.686a.532.532,0,0,1-.576,0,1.008,1.008,0,0,1-.288-.3l-4.82-8.3v10.959a1.708,1.708,0,0,1-.166.72,1.108,1.108,0,0,1-.41.488l-2.77,1.6a.3.3,0,0,1-.4,0,.7.7,0,0,1-.166-.521V290.386a1.705,1.705,0,0,1,.166-.72,1.108,1.108,0,0,1,.4-.488l2.216-1.263a.51.51,0,0,1,.587,0,1.106,1.106,0,0,1,.277.288l4.831,8.31v-10.97a1.7,1.7,0,0,1,.166-.709,1.109,1.109,0,0,1,.4-.488l2.77-1.64a.31.31,0,0,1,.4,0,.72.72,0,0,1,.177.521v20.965a1.674,1.674,0,0,1-.177.709,1.041,1.041,0,0,1-.4.5Z" transform="translate(-195.486 -237.177)"/>
        <g id="freepik--Exclamation--inject-37" transform="translate(42.718 119.036)">
          <path id="Path_38" data-name="Path 38" class="cls-8" d="M257.648,387.3l-4.432,2.36a.931.931,0,0,1-1.5-.875L251,356.065a2.936,2.936,0,0,1,1.429-2.427l8.421-4.432c.809-.432,1.4,0,1.319.875l-3.014,34.838a3.413,3.413,0,0,1-1.507,2.382Z" transform="translate(-250.452 -349.037)"/>
          <path id="Path_39" data-name="Path 39" class="cls-8" d="M254.832,400.545c-2.826,1.507-4.432-.621-4.321-3.513a10.549,10.549,0,0,1,4.743-8.344c2.848-1.507,4.432.621,4.333,3.513a10.526,10.526,0,0,1-4.754,8.344Z" transform="translate(-250.505 -344.806)"/>
        </g>
        <g id="freepik--Lines--inject-37" class="cls-9" transform="translate(0 78.148)">
          <path id="Path_40" data-name="Path 40" class="cls-3" d="M213.332,360.5a1.363,1.363,0,0,1-.554-2.6l14.017-6.161a1.359,1.359,0,0,1,1.108,2.482l-14.017,6.161a1.374,1.374,0,0,1-.554.122Z" transform="translate(-211.951 -307.871)"/>
          <path id="Path_41" data-name="Path 41" class="cls-3" d="M229.014,342.081a1.331,1.331,0,0,1-.5-.1l-15.591-6.161a1.363,1.363,0,1,1,1-2.526l15.59,6.161a1.363,1.363,0,0,1-.5,2.626Z" transform="translate(-211.953 -309.866)"/>
          <path id="Path_42" data-name="Path 42" class="cls-3" d="M234.543,330.307a1.374,1.374,0,0,1-1.175-.654l-7.69-12.843a1.357,1.357,0,1,1,2.327-1.4l7.756,12.842a1.352,1.352,0,0,1-1.163,2.05Z" transform="translate(-210.491 -311.854)"/>
          <path id="Path_43" data-name="Path 43" class="cls-3" d="M396.223,322.29a1.341,1.341,0,0,1-1.208-.72,1.363,1.363,0,0,1,.565-1.839l14.061-7.38a1.363,1.363,0,1,1,1.263,2.4l-14.061,7.38A1.263,1.263,0,0,1,396.223,322.29Z" transform="translate(-192.188 -312.137)"/>
          <path id="Path_44" data-name="Path 44" class="cls-3" d="M411.243,338.789a1.373,1.373,0,0,1-.366,0l-16.111-4.532a1.363,1.363,0,0,1,.731-2.615l16.111,4.51a1.363,1.363,0,0,1-.366,2.67Z" transform="translate(-192.293 -310.031)"/>
          <path id="Path_45" data-name="Path 45" class="cls-3" d="M397.458,358.836a1.341,1.341,0,0,1-1.108-.576l-8.333-11.812a1.363,1.363,0,0,1,2.216-1.562l8.3,11.812a1.357,1.357,0,0,1-1.075,2.139Z" transform="translate(-192.946 -308.648)"/>
        </g>
      </g>
    </g>
    <g id="freepik--speech-bubble-1--inject-37" transform="translate(272.833)">
      <g id="freepik--Alert--inject-37">
        <g id="freepik--Bubble--inject-37">
          <path id="Path_46" data-name="Path 46" class="cls-10" d="M212.953,22.44c-4.842-2.759-11.491-2.338-18.9,1.917-14.826,8.565-26.86,29.386-26.86,46.539,0,8.554,3,14.571,7.856,17.374l9.186,5.285c4.853,2.792,11.557,2.393,18.97-1.884,14.826-8.565,26.86-29.4,26.86-46.539,0-8.543-2.992-14.549-7.834-17.363C220.2,26.573,215.014,23.6,212.953,22.44Z" transform="translate(-161.408 -16.779)"/>
          <path id="Path_47" data-name="Path 47" class="cls-11" d="M212.953,22.44c-4.842-2.759-11.491-2.338-18.9,1.917-14.826,8.565-26.86,29.386-26.86,46.539,0,8.554,3,14.571,7.856,17.374l9.186,5.285c4.853,2.792,11.557,2.393,18.97-1.884,14.826-8.565,26.86-29.4,26.86-46.539a29.235,29.235,0,0,0-1.054-8.022,15.215,15.215,0,0,0-6.78-9.341C220.2,26.573,215.014,23.6,212.953,22.44Z" transform="translate(-161.408 -16.779)"/>
          <path id="Path_48" data-name="Path 48" class="cls-10" d="M231.769,87.784a20.222,20.222,0,0,1-6.715,6.648,18.726,18.726,0,0,1-10.083,2.537,1.108,1.108,0,0,1-.476-.111l-9.13-5.263a.909.909,0,0,1,0-1.585,16.255,16.255,0,0,0,8.388-12.621Z" transform="translate(-204.9 -10.652)"/>
          <path id="Path_49" data-name="Path 49" class="cls-12" d="M231.769,87.784a20.222,20.222,0,0,1-6.715,6.648,18.726,18.726,0,0,1-10.083,2.537,1.108,1.108,0,0,1-.476-.111l-9.13-5.263a.909.909,0,0,1,0-1.585,16.255,16.255,0,0,0,8.388-12.621Z" transform="translate(-204.9 -10.652)"/>
          <path id="Path_50" data-name="Path 50" class="cls-3" d="M212.492,78.51a16.244,16.244,0,0,1-8.3,16.621.92.92,0,0,0,.443,1.717A18.837,18.837,0,0,0,214.73,94.3c7.136-4.521,8.033-9.873,8.033-9.873Z" transform="translate(-194.598 -10.531)"/>
          <ellipse id="Ellipse_51" data-name="Ellipse 51" class="cls-13" cx="21.929" cy="37.985" rx="21.929" ry="37.985" transform="translate(41.8 87.72) rotate(-150)"/>
        </g>
        <g id="freepik--alert--inject-37-2" data-name="freepik--alert--inject-37" transform="translate(39.081 21.576)">
          <path id="Path_51" data-name="Path 51" class="cls-8" d="M190.7,66.47l-3.435,1.839a.72.72,0,0,1-1.163-.676l-.476-25.485a2.3,2.3,0,0,1,1.108-1.895l6.56-3.49c.632-.332,1.108,0,1.03.676L191.972,64.6A2.6,2.6,0,0,1,190.7,66.47Z" transform="translate(-185.181 -36.632)"/>
          <path id="Path_52" data-name="Path 52" class="cls-8" d="M190.845,76.8c-2.216,1.175-3.457-.488-3.324-2.737a8.222,8.222,0,0,1,3.712-6.5c2.216-1.186,3.457.488,3.324,2.737A8.177,8.177,0,0,1,190.845,76.8Z" transform="translate(-187.511 -33.333)"/>
        </g>
      </g>
    </g>
    <g id="freepik--Megaphone--inject-37" transform="translate(5.909 32.122)">
      <g id="freepik--megaphone--inject-37-2" data-name="freepik--megaphone--inject-37">
        <ellipse id="Ellipse_52" data-name="Ellipse 52" class="cls-14" cx="38.406" cy="38.406" rx="38.406" ry="38.406" transform="translate(0.012)"/>
        <path id="Path_53" data-name="Path 53" class="cls-15" d="M432.8,87.758l43.336,25.031A38.406,38.406,0,0,1,420.172,61.43C416.737,71.225,418.864,79.713,432.8,87.758Z" transform="translate(-413.6 -44.499)"/>
        <path id="Path_54" data-name="Path 54" class="cls-15" d="M405.459,106.253l26.76-15.513c-8.222,30.893-12.82,77.254-10.7,111.239l-10.7,6.183C404.55,187.762,403.143,146.032,405.459,106.253Z" transform="translate(-359.495 -41.331)"/>
        <path id="Path_55" data-name="Path 55" class="cls-14" d="M423.73,104.51l11.28,14.4.288,42.051a53.619,53.619,0,0,0,26.316,45.8h0c-6.4-24.377-7.136-65.742-5.352-101.942Z" transform="translate(-410.299 -39.843)"/>
        <path id="Path_56" data-name="Path 56" class="cls-16" d="M437.531,148.071l-.787.454a5.02,5.02,0,0,1-4.565,0l-6.128-3.535c-1.263-.731-2.283-.144-2.283,1.319v.942a5.02,5.02,0,0,0,2.283,3.945l6.227,3.612a4.975,4.975,0,0,0,4.543,0l.731-.443a5.141,5.141,0,0,0,2.216-3.989v-.909C439.814,147.938,438.794,147.34,437.531,148.071Z" transform="translate(-388.498 -35.503)"/>
        <path id="Path_57" data-name="Path 57" class="cls-16" d="M436.706,160.5l-.787.454a5.02,5.02,0,0,1-4.565,0l-6.128-3.535c-1.263-.731-2.283-.144-2.283,1.319v.9a5.031,5.031,0,0,0,2.216,3.945l6.227,3.612a4.975,4.975,0,0,0,4.543,0l.742-.443a5.186,5.186,0,0,0,2.216-3.989v-.909C438.989,160.313,437.969,159.77,436.706,160.5Z" transform="translate(-386.709 -34.159)"/>
        <path id="Path_58" data-name="Path 58" class="cls-16" d="M435.8,172.931l-.787.454a5.019,5.019,0,0,1-4.565,0l-6.128-3.535c-1.263-.731-2.283-.144-2.283,1.319v.886a5.019,5.019,0,0,0,2.283,3.956l6.227,3.612a4.975,4.975,0,0,0,4.543,0l.731-.443a5.152,5.152,0,0,0,2.216-3.989v-.909C438.083,172.787,437.064,172.2,435.8,172.931Z" transform="translate(-384.851 -32.816)"/>
        <path id="Path_59" data-name="Path 59" class="cls-10" d="M465.778,61.378h0c-5.13-2.947-12.056-2.837-19.735.92-.809.388-1.618.82-2.449,1.3a29.3,29.3,0,0,0-2.881,1.817,48.157,48.157,0,0,0-4.643,3.5,62.05,62.05,0,0,0-7.757,7.9,75.669,75.669,0,0,0-14.072,26.948,53.008,53.008,0,0,0-2.083,14.228c0,9.773,3.324,16.71,8.787,20.089L401.6,126.932h0a25.009,25.009,0,0,1-11.4-21.574A52.487,52.487,0,0,1,392.1,91.773a75.348,75.348,0,0,1,14.361-27.624,62.052,62.052,0,0,1,7.756-7.9,46.406,46.406,0,0,1,4.576-3.535c.953-.654,1.917-1.263,2.881-1.817a26.093,26.093,0,0,1,2.471-1.274,24.765,24.765,0,0,1,21.918.366h0l.543.3c.222.133.465.266.687.41Z" transform="translate(-377.298 -46.032)"/>
        <path id="Path_60" data-name="Path 60" class="cls-17" d="M442.039,122.589h0a25.009,25.009,0,0,1-11.4-21.574,52.49,52.49,0,0,1,1.906-13.585L454.7,99.464a53.011,53.011,0,0,0-2.083,14.228c0,9.773,3.324,16.71,8.787,20.089Z" transform="translate(-417.738 -41.689)"/>
        <path id="Path_61" data-name="Path 61" class="cls-18" d="M444.708,80.524c0,20.045-14.061,44.411-31.414,54.428-8.72,5.042-16.621,5.54-22.327,2.127a2.212,2.212,0,0,1-.31-.177c-5.441-3.324-8.787-10.316-8.787-20.089,0-20.045,14.061-44.422,31.414-54.395,8.654-5,16.51-5.485,22.161-2.216S444.708,70.485,444.708,80.524Z" transform="translate(-347.009 -44.856)"/>
        <path id="Path_63" data-name="Path 63" class="cls-10" d="M452.077,75.147s-31.7,16.277-58.727,63.16A213.968,213.968,0,0,0,380.5,164.446C366.9,197.81,368.03,220.78,368.03,220.78c-9.452-23.136-21.2-47.093-40.788-65.442a297.432,297.432,0,0,0-24.1-20.145h0c-5.186-3.014-8.211-9.552-8.222-18.56a54.406,54.406,0,0,1,3.557-18.46A72.685,72.685,0,0,1,303.818,86.6c5.54-9.54,13.12-17.862,21.5-22.7,7.756-4.5,14.981-5.153,20.178-2.216h0a296.1,296.1,0,0,0,29.5,10.793C400.685,80.344,427.312,78.538,452.077,75.147Z" transform="translate(-258.032 -44.664)"/>
        <path id="Path_64" data-name="Path 64" class="cls-19" d="M452.077,75.147s-31.7,16.277-58.727,63.16A213.968,213.968,0,0,0,380.5,164.446C366.9,197.81,368.03,220.78,368.03,220.78c-9.452-23.136-21.2-47.093-40.788-65.442a297.432,297.432,0,0,0-24.1-20.145h0c-5.186-3.014-8.211-9.552-8.222-18.56a54.406,54.406,0,0,1,3.557-18.46A72.685,72.685,0,0,1,303.818,86.6c5.54-9.54,13.12-17.862,21.5-22.7,7.756-4.5,14.981-5.153,20.178-2.216h0a296.1,296.1,0,0,0,29.5,10.793C400.685,80.344,427.312,78.538,452.077,75.147Z" transform="translate(-258.032 -44.664)"/>
        <path id="Path_65" data-name="Path 65" class="cls-17" d="M445.136,160.723c-13.6,33.364-12.466,56.334-12.466,56.334-9.452-23.136-21.2-47.093-40.788-65.442a297.436,297.436,0,0,0-24.1-20.145h0c-5.186-3.014-8.211-9.552-8.222-18.56a54.405,54.405,0,0,1,3.557-18.46C387.162,106.45,426.022,128.634,445.136,160.723Z" transform="translate(-322.716 -40.93)"/>
        <path id="Path_66" data-name="Path 66" class="cls-10" d="M390.534,119.688c0,20.9-6.427,43.78-17.142,64.9h0c-13.729,27.059-34.45,51.215-57.619,64.6C274.475,273.022,241,253.7,241,205.973a127.194,127.194,0,0,1,4.942-33.8c7.889-28.2,24.51-56.445,45.309-76.789q4.432-4.3,9.009-8.1c1.285-1.108,2.582-2.083,3.889-3.069h0c1.862-1.407,3.734-2.759,5.629-4.022s3.967-2.571,5.984-3.723C357.014,52.672,390.534,72.008,390.534,119.688Z" transform="translate(-136.741 -43.974)"/>
        <path id="Path_67" data-name="Path 67" class="cls-17" d="M388.892,174.27c-13.729,27.059-34.45,51.215-57.619,64.6-41.3,23.834-74.772,4.51-74.772-43.215a127.2,127.2,0,0,1,4.942-33.8h0c2.792,6.161,12.831,14.97,17.319,8.8a114.61,114.61,0,0,0-4.332,29.984c0,13.7,3.058,24.754,8.865,31.99,4.931,6.172,11.7,9.308,20.122,9.286,8.178,0,17.729-3,27.513-8.654,19.724-11.38,37.863-31.846,50.716-55.027C381.612,178.282,384.182,180.453,388.892,174.27Z" transform="translate(-152.274 -33.646)"/>
        <path id="Path_68" data-name="Path 68" class="cls-20" d="M372.169,120.915c0,21.053-7.391,44.821-19.3,66.251-12.854,23.181-31.026,43.647-50.716,55.027-9.817,5.651-19.336,8.676-27.513,8.654-8.421,0-15.192-3.114-20.122-9.286-5.773-7.236-8.865-18.294-8.865-31.99a114.608,114.608,0,0,1,4.333-29.984c1.108-3.867,2.294-7.756,3.712-11.635a165.1,165.1,0,0,1,8.864-20.012c.7-1.352,1.407-2.682,2.139-4,1.2-2.216,2.449-4.432,3.756-6.515a167.7,167.7,0,0,1,14.682-20.743c.055-.066.133-.144.188-.222a148.1,148.1,0,0,1,11.158-11.978c2.781-2.67,5.629-5.152,8.532-7.479,1.208-.975,2.438-1.906,3.679-2.814,1.485-1.108,2.992-2.127,4.5-3.125s2.97-1.873,4.432-2.737c9.851-5.7,19.358-8.676,27.547-8.687C361.354,79.64,372.169,95.086,372.169,120.915Z" transform="translate(-123.529 -42.531)"/>
        <path id="Path_69" data-name="Path 69" class="cls-21" d="M372.169,120.915c0,21.053-7.391,44.821-19.3,66.251-12.854,23.181-31.026,43.647-50.716,55.027-9.817,5.651-19.336,8.676-27.513,8.654-8.421,0-15.192-3.114-20.122-9.286-5.773-7.236-8.865-18.294-8.865-31.99a114.608,114.608,0,0,1,4.333-29.984c1.108-3.867,2.294-7.756,3.712-11.635a165.1,165.1,0,0,1,8.864-20.012c.7-1.352,1.407-2.682,2.139-4,1.2-2.216,2.449-4.432,3.756-6.515a167.7,167.7,0,0,1,14.682-20.743c.055-.066.133-.144.188-.222a148.1,148.1,0,0,1,11.158-11.978c2.781-2.67,5.629-5.152,8.532-7.479,1.208-.975,2.438-1.906,3.679-2.814,1.485-1.108,2.992-2.127,4.5-3.125s2.97-1.873,4.432-2.737c9.851-5.7,19.358-8.676,27.547-8.687C361.354,79.64,372.169,95.086,372.169,120.915Z" transform="translate(-123.529 -42.531)"/>
        <path id="Path_70" data-name="Path 70" class="cls-10" d="M360.158,135.746l-25.486,45.109c-10.715-5.673-23.746-12.732-40.223-12.355.421-1.285.864-2.571,1.341-3.856a166.155,166.155,0,0,1,8.865-20.023q1.042-2.017,2.127-3.989c1.208-2.216,2.46-4.432,3.756-6.527a169.446,169.446,0,0,1,14.66-20.743c0-.066.133-.144.188-.222.787-.931,1.573-1.873,2.382-2.781C336,124.964,360.158,135.746,360.158,135.746Z" transform="translate(-165.592 -39.211)"/>
        <path id="Path_71" data-name="Path 71" class="cls-22" d="M299.185,179.206c-5.54,0-8.865-4.432-8.865-12.023v-.233c0-11.823,8.344-26.261,18.582-32.134l.2-.111a15.945,15.945,0,0,1,7.756-2.416c5.54,0,8.865,4.5,8.865,12.023v.233c0,11.823-8.344,26.261-18.582,32.134l-.2.122A16.045,16.045,0,0,1,299.185,179.206Z" transform="translate(-126.58 -36.841)"/>
      </g>
    </g>
    <g id="freepik--Character--inject-37" transform="translate(315.027 57.823)">
      <g id="freepik--character--inject-37-2" data-name="freepik--character--inject-37">
        <g id="freepik--Bottom--inject-37" transform="translate(14.884 135.135)">
          <path id="Path_72" data-name="Path 72" class="cls-23" d="M153.211,366.057c-.355-4.676-3.6-51.857-3.6-51.857l22.76,16.776c-3.324,27.048-4.665,34.35-4.754,38.782h0a3.79,3.79,0,0,1,.122,1.108c0,5.352-6.05,8.233-10.77,11.8a87.373,87.373,0,0,1-12.732,8.322c-3.424,1.717-10.371,1.873-11.236-.332,5.729-4.377,12.366-9.153,16.931-14.15C152.092,374.18,153.643,371.7,153.211,366.057Z" transform="translate(-122.908 -178.019)"/>
          <path id="Path_73" data-name="Path 73" class="cls-24" d="M134.948,389.644c-.288,0-.731,3.236.864,4.621,1.839,1.585,7.247,4.188,14.4,3.269s11.014-3.136,13.873-5.54,6.87-5.773,10.106-6.482c3-.665,6.261-2.028,7.225-2.959s.831-5.053.831-5.053Z" transform="translate(-134.64 -171.178)"/>
          <path id="Path_74" data-name="Path 74" class="cls-15" d="M179.385,363.18a1.108,1.108,0,0,1,1.108.964c.222,1.108.454,4.432.931,6.3a33.663,33.663,0,0,1,.709,10.028c-.4,2.116-5.3,3.59-8.421,4.776a40.145,40.145,0,0,0-10.139,6.4c-3.324,2.77-10.416,5.651-15.081,5.618-5.54,0-11.712-1.828-13.131-4.377-1.762-3.169-.388-5,7.756-8.787,1.54-.709,6.981-3.934,8.865-5.1,5.008-3.158,9.973-7.546,12.277-13.12a3.1,3.1,0,0,1,1.175-1.706,2.571,2.571,0,0,1,1.585-.144,13.232,13.232,0,0,1,3.934,1.186c1.108.521,2.659,1.108,2.626,2.526a4.509,4.509,0,0,1-.3,1.429c-.1.288-.177.676.078.842s.543,0,.753-.211a21.054,21.054,0,0,0,2.216-2.648,8.111,8.111,0,0,1,1.3-1.319,12.082,12.082,0,0,0,1.4-.909C179.485,364.454,179.363,363.834,179.385,363.18Z" transform="translate(-134.644 -172.726)"/>
          <path id="Path_75" data-name="Path 75" class="cls-14" d="M176.457,389.7a53.6,53.6,0,0,1,4.432-3.324h0s-9.618,5.84-13.5,3.191c-2.5-1.706-1.319-3.779-1.252-4.432s-6.117-3.513-8.543-3.8h0c-.676.377-1.241.676-1.6.842-8.178,3.79-9.552,5.618-7.756,8.787,1.418,2.549,5.917,4.543,13.031,4.543C165.986,395.48,173.1,392.466,176.457,389.7Z" transform="translate(-147.55 -170.764)"/>
          <path id="Path_76" data-name="Path 76" class="cls-24" d="M139.154,385.141c-5.075,2.039-2.9,2.981-1.485,3.191s9.973-4.8,15.192-8.92c5.441-4.31,8.865-9.02,10.892-10.593.753-.6,1.562-1.319,2.283-1.995-.133-1.108-.244-2.139-.343-2.67a1.108,1.108,0,0,0-1.108-.964c0,.654.1,1.274-.4,1.762a12.091,12.091,0,0,1-1.4.909,8.107,8.107,0,0,0-1.3,1.319,21.052,21.052,0,0,1-2.216,2.648C154.922,375.445,144.24,383.1,139.154,385.141Z" transform="translate(-119.865 -172.725)"/>
          <path id="Path_77" data-name="Path 77" class="cls-25" d="M170.164,385.629a.465.465,0,0,0,.31-.111.5.5,0,0,0,.078-.709,12.122,12.122,0,0,0-9.308-3.668.51.51,0,0,0-.454.554.5.5,0,0,0,.554.443,11.2,11.2,0,0,1,8.421,3.324A.51.51,0,0,0,170.164,385.629Z" transform="translate(-151.994 -170.786)"/>
          <path id="Path_78" data-name="Path 78" class="cls-25" d="M166.163,383.169a.466.466,0,0,0,.31-.111.51.51,0,0,0,.078-.709,12.089,12.089,0,0,0-9.308-3.668.5.5,0,0,0,.1,1A11.2,11.2,0,0,1,165.764,383,.51.51,0,0,0,166.163,383.169Z" transform="translate(-143.561 -171.052)"/>
          <path id="Path_79" data-name="Path 79" class="cls-25" d="M162.159,380.839a.531.531,0,0,0,.31-.111.5.5,0,0,0,.078-.709,12.045,12.045,0,0,0-9.308-3.668.5.5,0,0,0,.1,1,11.236,11.236,0,0,1,8.432,3.324A.487.487,0,0,0,162.159,380.839Z" transform="translate(-135.125 -171.304)"/>
          <path id="Path_80" data-name="Path 80" class="cls-25" d="M158.448,378.169a.477.477,0,0,0,.321-.111.51.51,0,0,0,.078-.709,12.189,12.189,0,0,0-9.319-3.668.5.5,0,1,0,.111,1A11.2,11.2,0,0,1,158.06,378a.488.488,0,0,0,.388.166Z" transform="translate(-127.314 -171.592)"/>
          <path id="Path_81" data-name="Path 81" class="cls-25" d="M155.677,375.518a.509.509,0,0,0,.31-.111.5.5,0,0,0,.078-.7c-1.972-2.493-6.427-4.133-10.161-3.723a.5.5,0,0,0,.1,1c3.324-.366,7.524,1.108,9.274,3.324A.509.509,0,0,0,155.677,375.518Z" transform="translate(-120.51 -171.889)"/>
          <path id="Path_82" data-name="Path 82" class="cls-23" d="M68.68,327.966l20.255-8.576c3.945,14.615,6.648,34.638,10.261,48.378.687,2.593,5.186,19.945,5.773,25.486.875,8.366-8.865,10.061-10.748,5.463s-7.4-24.632-8.045-26.715C83.683,363.28,69,328.687,68.68,327.966Z" transform="translate(15.708 -177.458)"/>
          <path id="Path_83" data-name="Path 83" class="cls-24" d="M62.374,395.74c1.175,4.709,2.515,7.757,4.731,10.216s5.54,2.759,8.665,1.33,6.815-4.432,6.959-8.687-.565-7.081-2.127-11.369Z" transform="translate(44.973 -170.127)"/>
          <path id="Path_84" data-name="Path 84" class="cls-15" d="M76.726,361.54c1.352-.155,2.947,6.183,4.92,12.455,2.127,6.715,3.956,9.175,5.762,14.671,2.05,6.294,2.216,9.23.731,13.552s-8.831,9.7-13.784,4.809c-4.067-3.945-5.152-8.964-6.061-15.458a153.813,153.813,0,0,0-3.546-16.543c-1.108-4.776-2.216-8.687-1.208-9.441.222.687.476,1.573.709,2.216s.8,3.1,1.54,2.992a10.238,10.238,0,0,0-.321-1.817,2.216,2.216,0,0,1,.066-1.629,2.6,2.6,0,0,1,1.363-.864c1.263-.5,3.18-1.562,4.432-1.928a19.841,19.841,0,0,1,1.983-.465,11.593,11.593,0,0,1,2.482-.078,1.219,1.219,0,0,1,.842.521,2.071,2.071,0,0,1,.211.72,5.352,5.352,0,0,0,.465,1.23c.089.177.266.388.443.3a.377.377,0,0,0,.144-.421c-.144-.787-.343-1.33-.554-2.216-.089-.41-.266-.975-.355-1.385S76.826,361.939,76.726,361.54Z" transform="translate(37.745 -172.903)"/>
          <path id="Path_85" data-name="Path 85" class="cls-14" d="M81.468,384.42c.31.909,2.216,6.914.787,8.333s-3.49-3.1-3.49-3.1-4.5-.51-10.183,3.324c.51.942.166,4.432-1.662,4.033s-3.812-7.3-3.834-7.391c.9,6.216,2.039,11.081,5.984,14.892,4.953,4.931,12.255-.443,13.818-4.765s1.319-7.258-.731-13.552C81.911,385.572,81.69,384.985,81.468,384.42Z" transform="translate(43.032 -170.43)"/>
          <path id="Path_86" data-name="Path 86" class="cls-24" d="M73.041,392.624c.465,2.327,2.615,1.108,2.094-2.216s-3.036-10.77-4.089-16.433c-1.972-6.272-3.568-12.61-4.92-12.455a1.718,1.718,0,0,1,0,.233l.8,3.225c.122.465.244.875.332,1.385.931,4.743,2.571,13.8,3.8,18.05a77.441,77.441,0,0,1,1.983,8.211Z" transform="translate(48.344 -172.905)"/>
          <path id="Path_87" data-name="Path 87" class="cls-24" d="M87.5,394.9a76.394,76.394,0,0,1-2.814-7.934c-1.263-4.211-4.765-12.433-6.549-16.953a12.19,12.19,0,0,1-.964-2.571c-.211-.632-.454-1.44-.665-2.105V365.2c-.765.554-.332,3.136.41,6.338.521,1.828,1.64,3.779,2.582,6.493,2.216,5.319,3.734,13.142,5.086,16.2S88.364,397.112,87.5,394.9Z" transform="translate(24.822 -172.507)"/>
          <path id="Path_88" data-name="Path 88" class="cls-25" d="M67.909,392.77a.387.387,0,0,0,.177-.089,15.99,15.99,0,0,1,10.061-2.992.51.51,0,0,0,.543-.465.487.487,0,0,0-.465-.532,16.853,16.853,0,0,0-10.77,3.2.51.51,0,0,0-.078.709.5.5,0,0,0,.532.166Z" transform="translate(43.604 -169.971)"/>
          <path id="Path_89" data-name="Path 89" class="cls-25" d="M68.695,388.43a.41.41,0,0,0,.155-.078,19.768,19.768,0,0,1,11.269-3.324.521.521,0,0,0,.532-.488.51.51,0,0,0-.488-.521,20.577,20.577,0,0,0-11.912,3.546.51.51,0,0,0,.443.886Z" transform="translate(40.758 -170.474)"/>
          <path id="Path_90" data-name="Path 90" class="cls-25" d="M81.506,380.738a.521.521,0,0,0,.355-.41.5.5,0,0,0-.432-.565c-6.349-.909-11.69,3.247-11.912,3.424a.5.5,0,0,0-.078.709.51.51,0,0,0,.7.078s5.241-4.067,11.147-3.213a.487.487,0,0,0,.222-.022Z" transform="translate(38.151 -170.948)"/>
          <path id="Path_91" data-name="Path 91" class="cls-25" d="M82.837,376.713a.488.488,0,0,0,.355-.4.5.5,0,0,0-.421-.576c-7.014-1.108-12.71,3.247-12.92,3.435a.51.51,0,0,0,.676.753s5.54-4.233,12.089-3.191A.509.509,0,0,0,82.837,376.713Z" transform="translate(36.377 -171.388)"/>
          <path id="Path_92" data-name="Path 92" class="cls-26" d="M84.137,372.192a.488.488,0,0,0,.355-.388.51.51,0,0,0-.41-.587c-6.648-1.108-12.754,3.391-12.975,3.59a.488.488,0,0,0,0,.709.5.5,0,0,0,.709.055S77.843,371.14,84,372.248a.422.422,0,0,0,.133-.055Z" transform="translate(33.714 -171.876)"/>
          <path id="Path_93" data-name="Path 93" class="cls-15" d="M133.754,191.3c4.432,9.884,8.5,14.859,10.66,36.478,3.856,38.538,6.327,67.16,6.327,67.16.886,4.011,3.324,13.452,7.214,29.552,3.623,14.826,7.635,44.622,7.635,44.622s-9.973,3.025-19.424-.687c-5.64-14.183-19.524-49.2-24.222-66.351-4.621-16.865-12.466-42.539-12.466-42.539l-5.54,38.993s1.285,15.579.864,24.776c-.488,10.693-5.153,47.115-5.153,47.115s-10.227,5.1-18.35-.787c0,0-4.665-60.567-4.887-73.443C75.969,270.948,74.1,217.772,78.2,191.3Z" transform="translate(-52.525 -191.3)"/>
          <path id="Path_94" data-name="Path 94" class="cls-14" d="M94.059,345.52c-3.324,3.08-12.975,7.158-18.449,6.238l2.139,6.105s1.762,1.363,8.72-.4,8.565-5.02,8.565-5.02Z" transform="translate(18.019 -174.634)"/>
          <path id="Path_95" data-name="Path 95" class="cls-14" d="M153.77,349.07c-4.078,1.928-14.228,2.549-19.17,0l.122,6.227s1.7,2.327,8.865,2.382,9.762-2.216,9.762-2.216Z" transform="translate(-106.081 -174.25)"/>
          <path id="Path_96" data-name="Path 96" class="cls-24" d="M153.83,256.354l-4.643-28.034s-16.776-1.806-22.937-7.59c0,0,7.756,10.759,19.192,12.4l5.031,23.269-2.105,38.66Z" transform="translate(-96.889 -188.12)"/>
        </g>
        <g id="freepik--Top--inject-37">
          <path id="Path_97" data-name="Path 97" class="cls-27" d="M195.755,126.781c-7.612-.155-8.865,1.285-12.189,3.413C180.829,131.945,147,161.076,147,161.076l8.554,12.189c8-2.216,13.674-5.662,21.109-11.081s15.513-11,15.513-11Z" transform="translate(-146.923 -63.139)"/>
          <path id="Path_98" data-name="Path 98" class="cls-15" d="M84.346,121.181a9.218,9.218,0,0,1,1.108-1.529c3.069-3.324,8.377-2.925,12.421-1.983,3.657.853,7.169,2.316,10.914,2.748a13.386,13.386,0,0,0,9.773-2.859c.953-.742,2.028-1.662,3.191-1.352a2.981,2.981,0,0,1,1.828,2.083,9.973,9.973,0,0,1,.122,6.039,10.759,10.759,0,0,0,5.928-4.887,3.779,3.779,0,0,1,1.4-1.717,2.072,2.072,0,0,1,2.294.543,4.732,4.732,0,0,1,1.108,2.216,14.892,14.892,0,0,1-6.416,16.41,10.393,10.393,0,0,0,4.432-.543,2.327,2.327,0,0,1,2.216.654,3.18,3.18,0,0,1,.366,2.992,12.82,12.82,0,0,1-5.54,7.158c-11.446,7.413-30.283,5.308-40.256-3.845-4.8-4.432-7.635-11.081-6.515-17.552a13.119,13.119,0,0,1,1.629-4.576Z" transform="translate(-14.915 -64.287)"/>
          <path id="Path_99" data-name="Path 99" class="cls-5" d="M111.476,170.152c.6,6.648.321,28.234.321,28.234,20.909,12.776,55.536,0,55.536,0-1.983-4.9-5.1-9.817-4.909-14.482l4.432-25.486a55.1,55.1,0,0,1-7.546-31.137L144.4,125.73l-14.25.4-10.106.72a64.4,64.4,0,0,0-12.754,16.621C102.113,153.365,103.864,162.185,111.476,170.152Z" transform="translate(-71.221 -63.251)"/>
          <path id="Path_100" data-name="Path 100" class="cls-15" d="M116.216,121.8c-1.8-3.5-3.989-5.54-8.366-10.316-6.781-7.4-6.316-22.937-.078-27.247,4.111-5.441,10.759-8.975,17.286-10.571,5.784-1.418,12.078,1.108,17.009,4.111A44.954,44.954,0,0,1,153,87.376a17.629,17.629,0,0,1,3.779,6.294,4,4,0,0,1,0,2.826,3.324,3.324,0,0,1-2.682,1.662,9.884,9.884,0,0,1-3.258-.4c.731.177-1.452,3.734-1.95,4.011a9.6,9.6,0,0,1-4.72.831c-1.108,0-2.15-.222-3.224-.3-.831,0-2.139-.277-2.837.244a19.016,19.016,0,0,0-1.884,1.895l-2.216,2.139-8.588,8.277C122.332,117.748,119.285,118.868,116.216,121.8Z" transform="translate(-59.372 -68.921)"/>
          <path id="Path_101" data-name="Path 101" class="cls-23" d="M109.788,100.6c4-2.848,7.081-.554,8.765,2.139a4.82,4.82,0,0,0,1.385,1.751,1.773,1.773,0,0,0,1.585.122c1.44-.576,1.839-2.56,2.127-3.878a17.729,17.729,0,0,0,.288-5.817,4.432,4.432,0,0,0,2.9,1.186,3.424,3.424,0,0,0,2.759-1.352,7.1,7.1,0,0,0,.8-3.978c.055-1.6.111-3.911.9-5.341.6-1.108,2.3-1.862,3.324-2.393,2.072-1.042,4.432-2.349,6.77-2.216,1.341,0,2.693-.133,4.044-.078,1.108.055,3.036-.066,4.056.454,3.324,1.706,6.726,5.075,6.017,22.017-.565,13.3-4.166,19.6-6.438,20.765s-5.053,1.429-9.474.975v7.535c.078.454-7.468,11.491-18.305,14.106-3.324-3.69-4.61-8.676-.875-15.147l-.244-19.136a6.715,6.715,0,0,1-8.576-.066C107.893,109.274,106.519,102.925,109.788,100.6Z" transform="translate(-63.493 -68.114)"/>
          <path id="Path_102" data-name="Path 102" class="cls-27" d="M142.734,100.522a3.036,3.036,0,0,1,2.216-.731,3.324,3.324,0,0,1,3.169,2.549.609.609,0,0,1-.488.687c-.377.089-.753.089-1.108.166s-.421.3-.465.643a1.252,1.252,0,0,0,.443,1.108,1.429,1.429,0,0,0,1.163.31.975.975,0,0,1,1.108.432,3.6,3.6,0,0,1,.288.842,1.629,1.629,0,0,1,0,.609,2,2,0,0,1-1.518,1.839,3.08,3.08,0,0,1-1.385.111,1.7,1.7,0,0,1-1.208-.632,2.593,2.593,0,0,0,2.017,0,2.05,2.05,0,0,0,1.053-.787,1.175,1.175,0,0,0-.244-1.529,1.307,1.307,0,0,0-.4,0,2.093,2.093,0,0,1-.643,0,2.427,2.427,0,0,1-1.175-.654,2.139,2.139,0,0,1-.244-2.482,1.983,1.983,0,0,1,1.629-.853,2.626,2.626,0,0,0-2.382-1.5,2.859,2.859,0,0,0-1.64.41,2.615,2.615,0,0,0-.632.576,2.549,2.549,0,0,0-.377.665,2.283,2.283,0,0,1,.82-1.784Z" transform="translate(-94.622 -66.055)"/>
          <path id="Path_103" data-name="Path 103" class="cls-15" d="M151.535,83.778c-.288-.654-.609-1.285-.964-1.917-5.54-9.707-17.585-13.3-28.134-12.377-13.153,1.108-21.652,8.111-20.289,17.186l6.748.41c1.4.089,2.8-.144,4.166.078a16.41,16.41,0,0,1,6.15,2.6,55.325,55.325,0,0,0,7.258,4.51c1.2.521,2.814.809,3.634-.211s.222-2.526-.41-3.679a16.987,16.987,0,0,0,7.845,3.734c1.3.233,2.859.233,3.668-.809s.4-2.7-.2-3.978a11.723,11.723,0,0,0,7.5,1.662,4.587,4.587,0,0,0,3.712-2.083,5.019,5.019,0,0,0-.2-3.967C151.878,84.564,151.712,84.177,151.535,83.778Z" transform="translate(-53.848 -69.345)"/>
          <path id="Path_104" data-name="Path 104" class="cls-24" d="M129.094,99.352a2.028,2.028,0,0,1-1.939,2.017,1.895,1.895,0,0,1-1.995-1.862,2.017,2.017,0,0,1,1.895-2.017,1.895,1.895,0,0,1,2.039,1.862Z" transform="translate(-56.061 -66.304)"/>
          <path id="Path_105" data-name="Path 105" class="cls-24" d="M112.179,96.878l-3.324-3.324a2.216,2.216,0,0,1,3.247-.1,2.449,2.449,0,0,1,.078,3.424Z" transform="translate(-21.739 -66.81)"/>
          <path id="Path_106" data-name="Path 106" class="cls-24" d="M114.934,99.582a2.028,2.028,0,0,1-1.939,2.017A1.895,1.895,0,0,1,111,99.737a2.017,2.017,0,0,1,1.939-2.017,1.895,1.895,0,0,1,1.995,1.862Z" transform="translate(-26.211 -66.278)"/>
          <path id="Path_107" data-name="Path 107" class="cls-24" d="M130.844,93.285l-3.823,2.648a2.216,2.216,0,0,1,.521-3.213,2.449,2.449,0,0,1,3.3.565Z" transform="translate(-59.352 -66.862)"/>
          <path id="Path_108" data-name="Path 108" class="cls-27" d="M114.13,95.4l.266,13.341,6.637-1.418Z" transform="translate(-35.779 -66.529)"/>
          <path id="Path_109" data-name="Path 109" class="cls-27" d="M138.606,121.278c-4.665-.7-14.56-3.191-16.266-6.848a10.937,10.937,0,0,0,3.8,5.241c2.992,2.216,12.466,4.266,12.466,4.266Z" transform="translate(-62.449 -64.472)"/>
          <path id="Path_110" data-name="Path 110" class="cls-28" d="M122.34,111.44a2.46,2.46,0,1,0,2.46-2.46A2.46,2.46,0,0,0,122.34,111.44Z" transform="translate(-51.103 -65.061)"/>
          <path id="Path_111" data-name="Path 111" class="cls-27" d="M127.019,113.391a2.215,2.215,0,0,1,0,.266,2.283,2.283,0,0,1-.288,0,2.46,2.46,0,0,1-2.46-2.46,2.108,2.108,0,0,1,0-.277h.288a2.449,2.449,0,0,1,2.46,2.471Z" transform="translate(-53.001 -64.852)"/>
          <path id="Path_112" data-name="Path 112" class="cls-23" d="M156.423,100.062c.986-1.308,2.371-2.981,2.759-3.557.776-1.108,2.4.51,2.039,2.216a25.486,25.486,0,0,1-2.7,5.718c-.831,1.407-1.452,6.471-1.019,9.474.222,1.54,1.208,2.881,2.371,2.216s2.659-3.723,4.111-4.432,3.058-.355,3.391.476-1.175,2.216-1.817,3.923-1.108,6.4-2.216,8.5A32.222,32.222,0,0,1,158.55,130a18.682,18.682,0,0,1-6.8-6.294C148.944,119.254,149.752,106.356,156.423,100.062Z" transform="translate(-122.162 -66.449)"/>
          <path id="Path_113" data-name="Path 113" class="cls-27" d="M158.957,116.053c-.177-.587-.443-1.363-.687-2.316.521-4.931,2.4-10.349,6.05-13.8.654-.875,1.5-1.917,2.094-2.682a9.02,9.02,0,0,1-1.263,3.867,20.921,20.921,0,0,0-2.161,4.864c-.321,1.108-.709,3.324-1.186,5.263a62.168,62.168,0,0,0-.765,7.269S159.688,118.59,158.957,116.053Z" transform="translate(-130.07 -66.328)"/>
          <path id="Path_114" data-name="Path 114" class="cls-23" d="M163.1,97.337c2.283-2.848,2.848-3.524,3.324-3.446,1.729.255,1.363,4.909.122,7a18.726,18.726,0,0,0-2.327,5.751,29.751,29.751,0,0,0-.443,5.008s1.551,7.125,2.039,9.286c0,0-4.975-2.659-5.7-5.2S156.7,107.487,163.1,97.337Z" transform="translate(-131.994 -66.693)"/>
          <path id="Path_115" data-name="Path 115" class="cls-27" d="M162.492,114.319c-.909-2.936-2.216-8.377,3.324-17.23l.975-1.219a3.324,3.324,0,0,1,.421,2.449c-.288,2.05-2.006,5.13-2.36,6.648a37.675,37.675,0,0,0-.809,5.175Z" transform="translate(-134.713 -66.478)"/>
          <path id="Path_116" data-name="Path 116" class="cls-23" d="M165.257,98.782c1.429-2.294,1.673-3.623,2.216-4.056s2.216,1.418,1.917,3.468a50.439,50.439,0,0,1-2.216,7.081c-.5,2.094-.4,7.468.366,9.23,0,0-3.18.609-4.432-1.573S162.121,104.843,165.257,98.782Z" transform="translate(-137.666 -66.609)"/>
          <path id="Path_117" data-name="Path 117" class="cls-27" d="M167.614,98.488l.621-1.108h0c.92.986,1.108,1.729.488,4.133-.753,2.848-1.961,5.54-1.817,7.845a5.973,5.973,0,0,0-2.061-1.219A23.613,23.613,0,0,1,167.614,98.488Z" transform="translate(-140.023 -66.315)"/>
          <path id="Path_118" data-name="Path 118" class="cls-23" d="M175.334,129.786c2.925-3.49.244-6.648-1.108-8.754-1.828-2.97-6.238-7.59-7.114-9.031a7.391,7.391,0,0,1-1.385-3.091c-.288-1.529.465-3.779.975-5.828,1.108-4.5.377-5.33-.532-5.54s-1.95,2.9-2.682,4.432-2.87,6.416-2.8,8.211a58.229,58.229,0,0,0,1.8,10.926c.864,3.08-5.4,10.959-5.4,10.959l12.621,8.72a87.531,87.531,0,0,1,5.629-11Z" transform="translate(-138.99 -66.299)"/>
          <path id="Path_119" data-name="Path 119" class="cls-27" d="M157.88,110.7a27.47,27.47,0,0,0,4.82,5.319c1.839,1.8,3.413,4.909,3.413,6.77A13.02,13.02,0,0,0,162,116.54,12.51,12.51,0,0,1,157.88,110.7Z" transform="translate(-129.337 -64.875)"/>
          <path id="Path_120" data-name="Path 120" class="cls-23" d="M194.3,132.753c-2.992,6.914-9.585,25.607-12.023,30.239-3.734,7.114-13.3,12.61-17.042,10.538s-5.308-10.582-2.914-18.194c2.8-8.942,17.186-25.486,20.344-31.026Z" transform="translate(-161.18 -63.405)"/>
          <path id="Path_121" data-name="Path 121" class="cls-23" d="M35.538,127.17c13.74,0,17.441,6.117,21.6,16.222s13.341,37,13.341,37a96.091,96.091,0,0,1,7.092,15.147c2.216,6.272,9.153,31.3,11.856,32.566s14.6,1.108,19.114,2.294,10.394,5.219,13.485,7.756c.488,1.529-1.64,1.939-3.147,1.729-2.781-.4-7.1-2.67-10.15-2.781a55.284,55.284,0,0,0-11.712.831c-1.263.355-.886,1.374,3.247,3.6s4.875,4.7,4.51,5.961-1.983,0-4.875-1.263-7.934-2.7-12.455-4.7-7.214-2.161-9.74-5.053-3.258-5.884-6.316-11.845-9.485-16.089-12.089-21.2c-3.6-7.036-5.175-12.765-8.964-20.444-4.5-9.1-14.05-29.053-14.05-29.053S30.363,136.212,35.538,127.17Z" transform="translate(52.597 -63.096)"/>
        </g>
        <path id="Path_122" data-name="Path 122" class="cls-29" d="M178.889,95.208a.543.543,0,0,0,.377-.155.521.521,0,0,0,0-.742l-7.579-7.125a.521.521,0,0,0-.742,0,.51.51,0,0,0,0,.731l7.579,7.136a.576.576,0,0,0,.366.155Z" transform="translate(-156.95 -67.433)"/>
        <path id="Path_123" data-name="Path 123" class="cls-29" d="M182.924,98.262a.51.51,0,0,0,.5-.377.521.521,0,0,0-.355-.643L173.1,94.362a.521.521,0,0,0-.643.355.532.532,0,0,0,.355.654l9.973,2.87Z" transform="translate(-162.79 -66.643)"/>
        <path id="Path_124" data-name="Path 124" class="cls-29" d="M173.82,103.387h.1l10.294-1.285a.521.521,0,0,0,.454-.587.543.543,0,0,0-.587-.454l-10.327,1.3a.532.532,0,0,0-.454.587.521.521,0,0,0,.521.443Z" transform="translate(-164.978 -65.917)"/>
      </g>
    </g>
  </g>
</svg>
