<svg xmlns="http://www.w3.org/2000/svg" width="1395.586" height="631.791" viewBox="0 0 1395.586 631.791">
  <defs>
    <style>
      .cls-1 {
        fill: #f5f5f5;
      }

      .cls-2 {
        fill: #e0e0e0;
      }

      .cls-3 {
        fill: #4f5bd3;
      }

      .cls-4 {
        opacity: 0.15;
      }

      .cls-14, .cls-5 {
        fill: #fff;
      }

      .cls-6 {
        opacity: 0.07;
      }

      .cls-7 {
        fill: #263238;
      }

      .cls-8 {
        fill: #ebebeb;
      }

      .cls-9 {
        opacity: 0.1;
      }

      .cls-10 {
        opacity: 0.2;
      }

      .cls-11 {
        opacity: 0.3;
      }

      .cls-12 {
        fill: #455a64;
      }

      .cls-13 {
        fill: #8693f3;
      }

      .cls-14 {
        opacity: 0.4;
      }

      .cls-15 {
        fill: #ffa8a7;
      }

      .cls-16 {
        fill: #37474f;
      }

      .cls-17 {
        fill: #f28f8f;
      }
    </style>
  </defs>
  <g id="Processing-amico" transform="translate(291.834 -60.036)">
    <g id="freepik--Floor--inject-3" transform="translate(42.13 350.286)">
      <path id="freepik--floor--inject-3-2" data-name="freepik--floor--inject-3" class="cls-1" d="M246.466,492.547c272.514,58.105,714.345,58.105,986.827,0s272.514-152.34,0-210.445-714.312-58.186-986.827,0S-26.049,434.429,246.466,492.547Z" transform="translate(-376.044 -194.585)"/>
    </g>
    <g id="freepik--Shadows--inject-3" transform="translate(157.921 479.779)">
      <path id="freepik--Shadow--inject-3" class="cls-2" d="M175.561,491.961a12.1,12.1,0,0,1-5.953-1.48l-52.437-30.268a6.977,6.977,0,0,1,0-12.524l147.746-85.258-28.837-16.655c-4.2-2.423-3.838-5.823-3.627-6.8s1.269-4.229,6.1-4.717l158.4-16.151h1.073a10.2,10.2,0,0,1,8.669,4.668h0a4.88,4.88,0,0,1,.553,4.05l-27.682,90.317a7.9,7.9,0,0,1-7.612,5.806,8.475,8.475,0,0,1-4.2-1.139l-33.7-19.517L181.53,490.335A12,12,0,0,1,175.561,491.961Z" transform="translate(-113.272 -318.11)"/>
      <ellipse id="freepik--shadow--inject-3-2" data-name="freepik--shadow--inject-3" class="cls-2" cx="77.224" cy="41.979" rx="77.224" ry="41.979" transform="translate(394.67 25.292)"/>
    </g>
    <g id="freepik--Plants--inject-3" transform="translate(653.544 452.91)">
      <g id="freepik--plants--inject-3-2" data-name="freepik--plants--inject-3" transform="translate(0 0)">
        <path id="Path_1218" data-name="Path 1218" class="cls-3" d="M418,353.149s.683-15.89,7.661-28.69,17.224-21.144,27.227-22.689,18.769,7.173,8.458,14.28S432.378,331,425.254,355.393Z" transform="translate(-418 -301.589)"/>
        <path id="Path_1219" data-name="Path 1219" class="cls-4" d="M418,353.149s.683-15.89,7.661-28.69,17.224-21.144,27.227-22.689,18.769,7.173,8.458,14.28S432.378,331,425.254,355.393Z" transform="translate(-418 -301.589)"/>
        <path id="Path_1220" data-name="Path 1220" class="cls-5" d="M419.816,347.092H419.7a.537.537,0,0,1-.341-.683c8.767-26.885,28.2-39.214,37.262-41.979a.52.52,0,0,1,.667.358.537.537,0,0,1-.358.667c-8.864,2.716-27.91,14.833-36.546,41.3A.569.569,0,0,1,419.816,347.092Z" transform="translate(-417.165 -299.827)"/>
        <path id="Path_1221" data-name="Path 1221" class="cls-3" d="M474.126,333.028c-.813,2.261-3.107,3.562-5.27,4.6s-4.489,2.179-5.546,4.326c-2.114,4.343,2.261,9.921,0,14.166a7.514,7.514,0,0,1-4.879,3.253,48.131,48.131,0,0,1-4.977.8,23.417,23.417,0,0,1-2.391,0,10.734,10.734,0,0,0-6.847,1.22c-3.253,2.1-3.9,6.343-5.693,9.759a15.793,15.793,0,0,1-10.669,7.791,10.93,10.93,0,0,1-5.79,0l-.341-.179h0a7.525,7.525,0,0,1-.634-.651v-.1c-.748-2.114,0-4.44,0-6.668a3.251,3.251,0,0,0,0-.407c-.277-2.586-.521-5.156-.764-7.742q-.683-7.156-1.155-14.3c-.179-3.107-.8-6.506.309-9.482,1.22-3.253,4.879-3.627,5.969-6.864.455-1.3.651-2.667,1.09-3.969a11.076,11.076,0,0,1,8.832-7.254c6.278-.781,12.3,3.936,18.541,3.025a44.768,44.768,0,0,0,4.765-1.269c5.026-1.3,11.027-.276,14.2,3.838a6.506,6.506,0,0,1,1.252,6.1Z" transform="translate(-417.477 -289.276)"/>
        <g id="Group_110" data-name="Group 110" class="cls-6" transform="translate(1.358 31.971)">
          <path id="Path_1222" data-name="Path 1222" class="cls-7" d="M474.126,333.028c-.813,2.261-3.107,3.562-5.27,4.6s-4.489,2.179-5.546,4.326c-2.114,4.343,2.261,9.921,0,14.166a7.514,7.514,0,0,1-4.879,3.253,26.905,26.905,0,0,1-4.977.8,23.417,23.417,0,0,1-2.391,0,10.734,10.734,0,0,0-6.847,1.22c-3.253,2.1-3.9,6.343-5.693,9.759a15.793,15.793,0,0,1-10.669,7.791,10.93,10.93,0,0,1-5.79,0l-.341-.179h0a.782.782,0,0,1-.26-.2,1.629,1.629,0,0,1-.374-.455v-.1c-.976-1.724,0-4.733,0-6.668a3.251,3.251,0,0,0,0-.407c-.277-2.586-.521-5.156-.764-7.742q-.683-7.156-1.155-14.3c-.179-3.107-.8-6.506.309-9.482,1.22-3.253,4.879-3.627,5.969-6.864.455-1.3.651-2.667,1.09-3.969a11.076,11.076,0,0,1,8.832-7.254c6.278-.781,12.3,3.936,18.541,3.025a44.768,44.768,0,0,0,4.765-1.269c5.026-1.3,11.027-.276,14.2,3.838a6.506,6.506,0,0,1,1.252,6.1Z" transform="translate(-418.835 -321.246)"/>
        </g>
        <path id="Path_1223" data-name="Path 1223" class="cls-5" d="M419.556,365.869h0a.553.553,0,0,1-.423-.634c6.294-33.261,40.45-40.4,48.582-40.385a.537.537,0,1,1,0,1.073c-7.9,0-41.23,6.977-47.492,39.523a.52.52,0,0,1-.667.423Z" transform="translate(-417.295 -287.018)"/>
        <path id="Path_1224" data-name="Path 1224" class="cls-5" d="M451.728,340.9a.684.684,0,0,1-.293-.13,28.642,28.642,0,0,0-23.876-4.879.553.553,0,0,1-.634-.423.537.537,0,0,1,.407-.634,29.78,29.78,0,0,1,24.82,5.188.537.537,0,0,1,0,.764A.585.585,0,0,1,451.728,340.9Z" transform="translate(-412.417 -281.272)"/>
      </g>
    </g>
    <g id="freepik--Clouds--inject-3" transform="translate(138.074 60.398)">
      <g id="freepik--clouds--inject-3-2" data-name="freepik--clouds--inject-3">
        <path id="freepik--Cloud--inject-3" class="cls-8" d="M185.743,68.133,171.316,76.46a18.948,18.948,0,0,0,.114-1.9v-4.18c0-7.433-5.221-10.458-11.662-6.733a22.771,22.771,0,0,0-6.945,6.685c-1.057-9.352-8.392-12.833-17.289-7.693C125.89,68.2,118.083,81.73,118.083,92.855V99.1a16.46,16.46,0,0,0,1.48,7.238l-11.987,6.912a14.313,14.313,0,0,0-6.506,11.206c0,4.131,2.9,5.79,6.506,3.741l78.167-45.134a14.28,14.28,0,0,0,6.506-11.19C192.2,67.743,189.3,66.067,185.743,68.133Z" transform="translate(-101.07 -60.259)"/>
        <path id="freepik--cloud--inject-3-2" data-name="freepik--cloud--inject-3" class="cls-8" d="M213.893,90.116l-10.572,6.115a13.722,13.722,0,0,0,.081-1.4V91.84c0-5.449-3.822-7.661-8.539-4.879a16.557,16.557,0,0,0-5.107,4.879c-.764-6.847-6.148-9.4-12.67-5.627A28.235,28.235,0,0,0,164.3,108.348v4.587a12.15,12.15,0,0,0,1.073,5.3l-8.783,5.075a10.474,10.474,0,0,0-4.733,8.132c0,3.025,2.114,4.245,4.733,2.732l57.3-33.1a10.474,10.474,0,0,0,4.733-8.214C218.577,89.839,216.462,88.587,213.893,90.116Z" transform="translate(-69.253 -45.094)"/>
      </g>
    </g>
    <g id="freepik--Arrow--inject-3" transform="translate(160.731 458.42)">
      <path id="Path_1225" data-name="Path 1225" class="cls-3" d="M402.442,310.528v10.751a50.724,50.724,0,0,1-1.756,11.873l-26.2,85.665a4.879,4.879,0,0,1-1.789,2.635,4.652,4.652,0,0,1-5.27.146l-34.367-19.843L179.749,490.266a10.833,10.833,0,0,1-5.27,1.269,10.686,10.686,0,0,1-5.221-1.236L120.3,462.015a11.645,11.645,0,0,1-5.3-9.141V442.124a10.735,10.735,0,0,1,1.626-5.2,10.88,10.88,0,0,1,3.757-3.952l133.483-77.045-14.54-8.393a11.629,11.629,0,0,1-5.286-9.141v-10.6a6.88,6.88,0,0,1,2.114-4.879h0a6.506,6.506,0,0,1,3.92-1.87l156.3-16.021a5.433,5.433,0,0,1,5.156,2.391,5.546,5.546,0,0,1,.911,3.123Z" transform="translate(-115 -304.977)"/>
      <path id="Path_1226" data-name="Path 1226" class="cls-9" d="M174.479,419.523v21.144a10.687,10.687,0,0,1-5.221-1.236L120.3,411.147a11.645,11.645,0,0,1-5.3-9.141V391.3a10.735,10.735,0,0,1,1.626-5.2Z" transform="translate(-115 -254.158)"/>
      <path id="Path_1227" data-name="Path 1227" class="cls-9" d="M227.777,337.583l-19.81,11.385-14.54-8.392a11.678,11.678,0,0,1-5.286-9.157V320.879A6.815,6.815,0,0,1,190.254,316h0Z" transform="translate(-69.182 -298.072)"/>
      <path id="Path_1228" data-name="Path 1228" class="cls-9" d="M288.706,373.264v19.68a4.619,4.619,0,0,1-5.27.146L249.07,373.264V350.38Z" transform="translate(-31.012 -276.535)"/>
      <path id="Path_1229" data-name="Path 1229" class="cls-10" d="M310.149,350.38v22.884L156.84,461.759a10.833,10.833,0,0,1-5.27,1.269V441.884Z" transform="translate(-92.091 -276.535)"/>
      <path id="Path_1230" data-name="Path 1230" class="cls-10" d="M303.188,309.612v10.751a50.724,50.724,0,0,1-1.756,11.873l-26.2,85.665a4.879,4.879,0,0,1-1.789,2.635V400.774l28.821-94.334A5.546,5.546,0,0,1,303.188,309.612Z" transform="translate(-15.746 -304.061)"/>
    </g>
    <g id="freepik--Gears--inject-3" transform="translate(42 60.036)">
      <path id="Path_1231" data-name="Path 1231" class="cls-3" d="M394.83,128.105l-46.484-26.836A75.741,75.741,0,0,0,343.06,77.3a44.955,44.955,0,0,1,26.983,4.668l1.025.6C384.42,90.274,393.187,105.969,394.83,128.105Z" transform="translate(146.598 -49.493)"/>
      <path id="Path_1232" data-name="Path 1232" class="cls-11" d="M394.83,128.105l-46.484-26.836A75.741,75.741,0,0,0,343.06,77.3a44.955,44.955,0,0,1,26.983,4.668l1.025.6C384.42,90.274,393.187,105.969,394.83,128.105Z" transform="translate(146.598 -49.493)"/>
      <path id="Path_1233" data-name="Path 1233" class="cls-12" d="M384.354,119.017h0a2.326,2.326,0,0,0-1.545.163l-17.4,7.839a2.066,2.066,0,0,1-2.9-1.334c-.683-2.2-12.6-4.733-13.581-6.62l6.62-16.606Z" transform="translate(150.275 -33.46)"/>
      <path id="Path_1234" data-name="Path 1234" class="cls-7" d="M411.706,118.184h0a1.626,1.626,0,0,0-1.513,0L397.344,88.453a2.651,2.651,0,0,0-1.025-3.416l-12.589-7.254a2.619,2.619,0,0,0-3.464.8l-14.459,21.746a4.879,4.879,0,0,1-3.79,1.887,35.517,35.517,0,0,0-5.042.228V86.485l-9.661-5.579h0a1.626,1.626,0,0,0-1.626.146L326.171,92.34a5.319,5.319,0,0,0-2.375,3.692l-1.952,21.746a7.205,7.205,0,0,1-2.033,4.066,118.035,118.035,0,0,0-10.865,11.5,3.773,3.773,0,0,1-3.838,1.09l-12.54-4.391a3.074,3.074,0,0,0-3.529,1.317l-14.378,24.885a3.074,3.074,0,0,0,.634,3.708l10.068,8.685a3.725,3.725,0,0,1,.976,3.871,115.467,115.467,0,0,0-4.522,15.142,7.173,7.173,0,0,1-2.5,3.79l-17.891,12.572a5.286,5.286,0,0,0-2,3.855v22.575a1.626,1.626,0,0,0,.7,1.448h0L282.745,244.9,274.5,261.539a2.619,2.619,0,0,0,1.025,3.4L306.3,282.83a2.619,2.619,0,0,0,3.464-.8l13.987-14.313a1.626,1.626,0,0,0,.748,1.35l28.658,16.541.764-22.445s-6.05-7.823-5.936-9.173l31.244-34.025a3.058,3.058,0,0,0,3.529-1.3l14.378-24.885a3.074,3.074,0,0,0-.634-3.708L410.339,146a5.2,5.2,0,0,0,1.984-3.838Zm-75.744,94.968c-8.393,4.879-15.321,5.871-20.363,3.529-5.92-2.749,42.076-85.014,47.167-80.525,4.082,3.627,6.294,10.36,6.294,19.778-.065,21.079-14.866,46.679-33.1,57.218Z" transform="translate(94.201 -49.136)"/>
      <path id="Path_1235" data-name="Path 1235" class="cls-12" d="M375.921,99.492l-3.887,7.856-12.491,14.41-14.719-8.506L324.2,101.33a3.432,3.432,0,0,0,1.041-1.008L339.7,78.592a2.635,2.635,0,0,1,3.432-.829l12.621,7.286L374.9,96.093a2.635,2.635,0,0,1,1.025,3.4Z" transform="translate(134.783 -49.131)"/>
      <path id="Path_1236" data-name="Path 1236" class="cls-12" d="M280.364,146.68a5.659,5.659,0,0,1-1.317,1.382l-17.891,12.572a4.878,4.878,0,0,0-1.236,1.431l30.04,17.37,23.762-13.483Z" transform="translate(94.515 -5.758)"/>
      <path id="Path_1237" data-name="Path 1237" class="cls-12" d="M285.68,109.7a3.058,3.058,0,0,0-2.342,1.448L268.96,136.032a3.009,3.009,0,0,0-.325,1.919l31.521,18.216,19.68-26.625Z" transform="translate(99.95 -28.924)"/>
      <path id="Path_1238" data-name="Path 1238" class="cls-12" d="M351.114,96.246V103.4l-17.4,10.051L299.23,93.53a5.2,5.2,0,0,1,2.017-2.44L320.764,79.8a2.017,2.017,0,0,1,.976-.293,1.22,1.22,0,0,1,.6.146l9.417,5.416.244.146,13.012,7.514Z" transform="translate(119.141 -47.837)"/>
      <path id="Path_1239" data-name="Path 1239" class="cls-13" d="M430.06,152.373V129.8a1.448,1.448,0,0,0-2.212-1.431l-17.4,7.839a2.066,2.066,0,0,1-2.9-1.35,39.845,39.845,0,0,0-3.887-8.62,4.879,4.879,0,0,1-.26-4.212L415,98.635a2.651,2.651,0,0,0-1.025-3.416l-12.589-7.27a2.635,2.635,0,0,0-3.464.813l-14.459,21.746a4.766,4.766,0,0,1-3.79,1.87,39.863,39.863,0,0,0-9.4.96,2.066,2.066,0,0,1-2.619-1.838l-1.9-19a1.464,1.464,0,0,0-2.358-1.2l-19.517,11.288a5.253,5.253,0,0,0-2.326,3.643l-1.968,21.762a7.205,7.205,0,0,1-2.033,4.066,118.031,118.031,0,0,0-10.865,11.5,3.773,3.773,0,0,1-3.838,1.09l-12.572-4.359a3.074,3.074,0,0,0-3.529,1.3l-14.378,24.9A3.074,3.074,0,0,0,293,170.2l10.068,8.685a3.725,3.725,0,0,1,.976,3.871,115.488,115.488,0,0,0-4.522,15.142,7.173,7.173,0,0,1-2.5,3.79L279.125,214.26a5.286,5.286,0,0,0-2,3.855v22.575a1.464,1.464,0,0,0,2.228,1.431l17.4-7.84a2.066,2.066,0,0,1,2.9,1.334,38.872,38.872,0,0,0,3.887,8.636,4.88,4.88,0,0,1,.26,4.212l-11.6,23.388a2.619,2.619,0,0,0,.992,3.432l12.589,7.27a2.619,2.619,0,0,0,3.464-.813l14.459-21.729a4.879,4.879,0,0,1,3.773-1.887,38.35,38.35,0,0,0,9.417-.96A2.082,2.082,0,0,1,339.515,259l1.9,19a1.464,1.464,0,0,0,2.358,1.22l19.517-11.288a5.253,5.253,0,0,0,2.326-3.659l1.968-21.746a7.2,7.2,0,0,1,2.033-4.066,117.768,117.768,0,0,0,10.848-11.5,3.757,3.757,0,0,1,3.855-1.09l12.54,4.391a3.09,3.09,0,0,0,3.529-1.317l14.378-24.9a3.058,3.058,0,0,0-.634-3.692l-10.068-8.685a3.725,3.725,0,0,1-.976-3.871,120.106,120.106,0,0,0,4.521-15.158,7.3,7.3,0,0,1,2.5-3.79l17.891-12.572a5.2,5.2,0,0,0,2.049-3.9Zm-76.443,70.994c-18.249,10.523-33.033,1.984-33.033-19.078s14.784-46.679,33.033-57.2,33.033-2,33.033,19.062S371.849,212.828,353.617,223.368Z" transform="translate(105.285 -42.761)"/>
      <path id="Path_1240" data-name="Path 1240" class="cls-3" d="M351.734,135.341l-8.7-5.009h-.081c-3.855-2.179-9.157-1.854-15.012,1.529-11.775,6.8-21.339,23.356-21.339,36.969,0,6.782,2.391,11.564,6.229,13.792h0l7.9,4.522,1.887-3.155a21.973,21.973,0,0,0,6.115-2.391c11.792-6.8,21.339-23.356,21.355-36.969a22.383,22.383,0,0,0-.683-5.449Z" transform="translate(123.758 -16.864)"/>
      <path id="Path_1241" data-name="Path 1241" class="cls-9" d="M306.6,162.107c0,6.8,2.391,11.564,6.229,13.792h0l7.9,4.522,1.887-3.155a22.169,22.169,0,0,0,6.116-2.391,44.37,44.37,0,0,0,15.923-17.354l-30.9-17.891a44.385,44.385,0,0,0-7.156,22.477Z" transform="translate(123.758 -10.175)"/>
      <path id="Path_1242" data-name="Path 1242" class="cls-14" d="M349,135.341l-8.7-5.009h-.1c-3.855-2.179-9.157-1.854-15.012,1.529a42.45,42.45,0,0,0-14.231,14.524l30.9,17.891a42.662,42.662,0,0,0,5.465-19.517,22.385,22.385,0,0,0-.683-5.449Z" transform="translate(126.489 -16.864)"/>
      <path id="Path_1243" data-name="Path 1243" class="cls-3" d="M333.019,134.755c-11.792,6.8-21.339,23.356-21.339,36.969s9.547,19.127,21.339,12.312,21.339-23.356,21.339-36.969S344.811,127.94,333.019,134.755Z" transform="translate(126.94 -15.059)"/>
      <path id="Path_1244" data-name="Path 1244" class="cls-5" d="M332.151,139.672a.293.293,0,0,1,.407,0,.667.667,0,0,1,.163.52v3.448a2.1,2.1,0,0,1-.146.732,6.5,6.5,0,0,1-.277.651l-2.553,5.432a2.96,2.96,0,0,1,2.684.651,4.586,4.586,0,0,1,1.041,3.481,12.508,12.508,0,0,1-1.626,6.506,12.361,12.361,0,0,1-4.6,4.505,7,7,0,0,1-2.684,1.008,3.367,3.367,0,0,1-1.984-.325,2.944,2.944,0,0,1-1.236-1.35,4.977,4.977,0,0,1-.455-2.1,1.3,1.3,0,0,1,.146-.586.733.733,0,0,1,.325-.39l2.667-1.545c.293-.163.52-.2.667-.081l.52.374a1.448,1.448,0,0,0,.732.228,2.375,2.375,0,0,0,1.3-.439,5.27,5.27,0,0,0,1.626-1.48,3.253,3.253,0,0,0,.667-2.049c0-.764-.211-1.187-.667-1.269a2.456,2.456,0,0,0-1.626.439l-1.757,1.025a.293.293,0,0,1-.39,0,.7.7,0,0,1-.179-.52v-2.8a1.953,1.953,0,0,1,.146-.732c.1-.26.211-.488.309-.7l2.228-4.765-5.514,3.172a.293.293,0,0,1-.39,0,.716.716,0,0,1-.179-.52v-3.432a1.627,1.627,0,0,1,.179-.716,1.073,1.073,0,0,1,.39-.5Z" transform="translate(132.704 -10.2)"/>
      <path id="Path_1245" data-name="Path 1245" class="cls-3" d="M430.6,66.223l-.781-.455c-14.963-8.88-35.782-7.742-58.78,5.53-45.541,26.3-82.575,90.349-82.575,143.03S251.481,331.09,205.876,357.455a80.656,80.656,0,0,1-30.5,10.881A45.02,45.02,0,0,0,192.946,390l.813.488c14.963,8.815,35.782,7.628,58.666-5.611C297.965,358.544,335,294.478,335,241.749s36.969-116.714,82.591-143.03A80.445,80.445,0,0,1,448.1,87.838a44.955,44.955,0,0,1,26.983,4.668Z" transform="translate(41.556 -60.036)"/>
      <path id="Path_1246" data-name="Path 1246" class="cls-7" d="M297.512,229.8l40.173-9.01H337.6l-17.175-9.938-15.939-9.222a2.228,2.228,0,0,0-1.122-.325l-14.1-.8a2.293,2.293,0,0,1-2.375-2.293,75.935,75.935,0,0,0,0-13.6,6.766,6.766,0,0,1,1.626-4.164l22.559-1.838c.96-1.171,19.42-18.981,19.42-18.981h-.1l-33.147-19.208a1.35,1.35,0,0,0-.634-.13c-9.547-5.514-26.283-15.207-26.674-15.451a2.668,2.668,0,0,0-1.626-.309l-16.443,1.626a4.587,4.587,0,0,0-3.594,2.5l-8.913,23.909a7.856,7.856,0,0,1-3.594,3.481c-1.74.813-3.481,1.74-5.237,2.749l-17.257-9.986c-.683-.455-1.773-.163-2.667.781l-18.054,19.062a4.766,4.766,0,0,0-1.4,3.969l5.026,17.013a5.709,5.709,0,0,1-.927,4.1,137.588,137.588,0,0,0-8.295,14.427,6.506,6.506,0,0,1-3.92,2.911l-15.451,3.725a5.075,5.075,0,0,0-3.5,2.911l-7.774,26.17a1.626,1.626,0,0,0,.586,1.9c.342.276,17.5,10.149,17.5,10.149a55.251,55.251,0,0,0,.293,7.01,6.7,6.7,0,0,1-1.529,4.164l-15.76,19.062a4.294,4.294,0,0,0-.943,3.92l7.482,16.541a1.188,1.188,0,0,0,.472.537l33.2,19.208h0a.374.374,0,0,0,.1-.146l.488.293h0l26.69,15.435h0c.455-1.236,14-57.365,14.638-56.47l8.425,12.865a1.512,1.512,0,0,0,.26.293l16.053,9.32L281.589,318h0L269.065,278.97C280.125,282.662,305.352,235.088,297.512,229.8Zm-97.262,26.121L261.291,191.5a32.106,32.106,0,0,1,2.521,13.4,36.991,36.991,0,0,1,4.147-2.114q.2,2.131.2,4.489c0,21.144-14.784,46.679-33.033,57.218-1.334.764-2.651,1.448-3.9,2.033a35.358,35.358,0,0,1-.26-4.782C217.93,269.357,205.553,267.617,200.251,255.923Z" transform="translate(29.55 -19.643)"/>
      <path id="Path_1247" data-name="Path 1247" class="cls-12" d="M197.6,263.324l-1.626-15.386-39.62-22.868a3.042,3.042,0,0,0,0,1.952l7.482,16.541a1.188,1.188,0,0,0,.472.537h.081Z" transform="translate(29.535 43.349)"/>
      <path id="Path_1248" data-name="Path 1248" class="cls-12" d="M202.618,203l-38.01-21.859a2.96,2.96,0,0,0-.553,1.008l-7.774,26.186a1.627,1.627,0,0,0,.586,1.9l.276.179,17.126,9.905h.1l15.923,9.222Z" transform="translate(29.525 15.829)"/>
      <path id="Path_1249" data-name="Path 1249" class="cls-12" d="M177.73,161.6l33.245,19.078,21.925-21.99-33.163-19.208h0c-.683-.439-1.757-.146-2.651.8l-18.07,19.062A5.79,5.79,0,0,0,177.73,161.6Z" transform="translate(43.028 -10.396)"/>
      <path id="Path_1250" data-name="Path 1250" class="cls-12" d="M234.119,124.8a2.554,2.554,0,0,0-1.626-.309l-16.443,1.626a4.733,4.733,0,0,0-2.749,1.3l43.231,24.966,11.044-6.392-.309-2S234.655,125.141,234.119,124.8Z" transform="translate(65.31 -19.676)"/>
      <path id="Path_1251" data-name="Path 1251" class="cls-13" d="M324.906,213.382h-.081a2.44,2.44,0,0,0-1.025-.26l-14.1-.8a2.293,2.293,0,0,1-2.375-2.293c.2-2.228.309-4.44.325-6.587a66.025,66.025,0,0,0-.309-7.01,6.831,6.831,0,0,1,1.545-4.164l15.744-19.078a4.31,4.31,0,0,0,.96-3.92l-7.482-16.541a1.106,1.106,0,0,0-.455-.52h-.1a2.293,2.293,0,0,0-2.407.748l-16.817,15.354a2.976,2.976,0,0,1-3.676.618,26.136,26.136,0,0,0-7.189-4.18,2.684,2.684,0,0,1-1.626-2.944l5.188-23.535a1.464,1.464,0,0,0-.716-1.626,2.749,2.749,0,0,0-1.626-.276L272.241,138a4.521,4.521,0,0,0-3.594,2.5l-8.913,23.909a7.677,7.677,0,0,1-3.594,3.464,74.215,74.215,0,0,0-10.182,5.9c-1.382.927-2.928.992-3.529,0l-8.409-12.849c-.6-.911-1.952-.716-3.041.407l-18.054,19.078a4.749,4.749,0,0,0-1.4,3.952l5.026,17.029a5.806,5.806,0,0,1-.911,4.1,137.528,137.528,0,0,0-8.311,14.41,6.506,6.506,0,0,1-3.92,2.928l-15.451,3.725a5.123,5.123,0,0,0-3.5,2.9l-7.774,26.186A1.854,1.854,0,0,0,178.607,258l14.118.8a2.293,2.293,0,0,1,2.407,2.228,74.5,74.5,0,0,0,0,13.6,6.636,6.636,0,0,1-1.626,4.294L177.761,297.99a4.294,4.294,0,0,0-.96,3.92l7.482,16.525a1.025,1.025,0,0,0,.455.521h0a1.2,1.2,0,0,0,.586.146h0a2.911,2.911,0,0,0,1.838-.862l16.8-15.37a2.993,2.993,0,0,1,3.676-.618,26.623,26.623,0,0,0,7.189,4.18,2.667,2.667,0,0,1,1.626,2.944l-5.058,23.5a1.447,1.447,0,0,0,.683,1.626h0a2.554,2.554,0,0,0,1.626.277l16.443-1.626a4.587,4.587,0,0,0,3.595-2.5l8.929-23.909a7.775,7.775,0,0,1,3.594-3.481c1.724-.813,3.481-1.74,5.221-2.749s3.253-2.017,4.961-3.139c1.366-.943,2.928-1.008,3.513-.1l8.425,12.865a1.106,1.106,0,0,0,.407.374c.683.423,1.74.13,2.619-.8l18.054-19.062a4.782,4.782,0,0,0,1.382-3.952l-5.026-17.013a5.79,5.79,0,0,1,.927-4.1,134.76,134.76,0,0,0,8.295-14.427,6.506,6.506,0,0,1,3.936-2.911l15.435-3.725a5.042,5.042,0,0,0,3.5-2.911l7.823-26.137a1.74,1.74,0,0,0-.829-2.1Zm-82.445,63.9-.911.228-.651.146q-.732.146-1.464.244c-.586.1-1.139.13-1.708.179h-1.545A16.509,16.509,0,0,1,220.7,267.657a28.366,28.366,0,0,1-2.261-8.62,35.358,35.358,0,0,1-.26-4.782c.1-14.915,7.758-33.391,20.4-46.744a56.667,56.667,0,0,1,12.459-10.1,36.99,36.99,0,0,1,4.147-2.114,26.235,26.235,0,0,1,11.662-2.472h1.317a4.226,4.226,0,0,1,.634.081A16.492,16.492,0,0,1,281.8,203.119c6.977,15.435-1.025,42.288-17.891,60.179C256.79,270.91,249.292,275.659,242.461,277.285Z" transform="translate(42.33 -12.233)"/>
      <line id="Line_2" data-name="Line 2" class="cls-7" x2="33.245" y2="19.241" transform="translate(326.721 120.705)"/>
      <path id="Path_1252" data-name="Path 1252" class="cls-3" d="M250.146,184.661l-8.685-5.009h0c-3.855-2.179-9.157-1.854-15.012,1.529-11.775,6.8-21.339,23.356-21.339,36.969,0,6.8,2.375,11.564,6.229,13.809h0l7.9,4.505,1.887-3.155a21.568,21.568,0,0,0,6.132-2.391c11.792-6.8,21.339-23.356,21.339-36.969a22.511,22.511,0,0,0-.667-5.449Z" transform="translate(60.18 14.032)"/>
      <path id="Path_1253" data-name="Path 1253" class="cls-9" d="M205.05,211.4c0,6.8,2.375,11.564,6.229,13.809h0l7.921,4.505,1.887-3.155a22.168,22.168,0,0,0,6.115-2.391,44.321,44.321,0,0,0,15.907-17.273L212.206,189a44.516,44.516,0,0,0-7.156,22.4Z" transform="translate(60.142 20.753)"/>
      <path id="Path_1254" data-name="Path 1254" class="cls-14" d="M247.409,184.661l-8.685-5.009h0c-3.855-2.179-9.141-1.854-15,1.529A42.629,42.629,0,0,0,209.48,195.7l30.9,17.891a42.776,42.776,0,0,0,5.465-19.615,22.476,22.476,0,0,0-.683-5.449Z" transform="translate(62.917 14.032)"/>
      <path id="Path_1255" data-name="Path 1255" class="cls-3" d="M231.475,184.138c-11.792,6.8-21.355,23.356-21.355,36.969s9.564,19.127,21.355,12.328,21.339-23.356,21.339-36.969S243.267,177.242,231.475,184.138Z" transform="translate(63.318 15.856)"/>
      <path id="Path_1256" data-name="Path 1256" class="cls-5" d="M231.4,194.838a12.474,12.474,0,0,1-.13,1.9,12.751,12.751,0,0,1-.423,1.952,20.346,20.346,0,0,1-.8,2.114c-.342.732-.748,1.5-1.22,2.326l-2.96,5.156,5.3-3.074a.342.342,0,0,1,.407,0,.716.716,0,0,1,.163.52v3.448a1.626,1.626,0,0,1-.163.716,1.089,1.089,0,0,1-.407.5l-11.157,6.506a.342.342,0,0,1-.407,0,.716.716,0,0,1-.163-.52v-2.8a5.53,5.53,0,0,1,.13-1.122,3.985,3.985,0,0,1,.488-1.155l6.311-10.6a7.384,7.384,0,0,0,.927-2.082,6.265,6.265,0,0,0,.2-1.464,4.882,4.882,0,0,0,0-.6,1.5,1.5,0,0,0-.244-.667.813.813,0,0,0-.537-.39,1.3,1.3,0,0,0-.943.244,3.074,3.074,0,0,0-.96.862,5.008,5.008,0,0,0-.569,1.025,4.114,4.114,0,0,0-.293.976l-.146.683a1.626,1.626,0,0,1-.846,1.236l-2.6,1.5a.244.244,0,0,1-.325,0,.569.569,0,0,1-.13-.439,13.89,13.89,0,0,1,.374-2.928,15.238,15.238,0,0,1,1.09-3.09,13.761,13.761,0,0,1,1.822-2.83,9.158,9.158,0,0,1,2.57-2.163,5.026,5.026,0,0,1,2.456-.8,2.716,2.716,0,0,1,1.789.667,4.1,4.1,0,0,1,1.09,1.805,8.979,8.979,0,0,1,.309,2.586Z" transform="translate(69.156 21.241)"/>
      <path id="Path_1257" data-name="Path 1257" class="cls-3" d="M197.544,284.329a80.981,80.981,0,0,1-5.5-31.2c0-26.023-8.994-44.369-23.6-53.136l-1.48-.862a44.711,44.711,0,0,0-26.966-4.6,81.208,81.208,0,0,1,5.53,31.179c0,26.2,9.124,44.646,23.925,53.347l45.719,26.934A45.02,45.02,0,0,1,197.544,284.329Z" transform="translate(19.392 23.938)"/>
      <path id="Path_1258" data-name="Path 1258" class="cls-11" d="M197.544,284.329a80.981,80.981,0,0,1-5.5-31.2c0-26.023-8.994-44.369-23.6-53.136l-1.48-.862a44.711,44.711,0,0,0-26.966-4.6,81.208,81.208,0,0,1,5.53,31.179c0,26.2,9.124,44.646,23.925,53.347l45.719,26.934A45.02,45.02,0,0,1,197.544,284.329Z" transform="translate(19.392 23.938)"/>
      <path id="Path_1259" data-name="Path 1259" class="cls-12" d="M181.454,236.173h0a2.212,2.212,0,0,0-1.545.146l-17.4,7.84a2.066,2.066,0,0,1-2.9-1.334c-.683-2.2-12.6-4.717-13.581-6.6l6.685-16.622Z" transform="translate(23.169 39.922)"/>
      <path id="Path_1260" data-name="Path 1260" class="cls-7" d="M208.787,235.349h0a1.627,1.627,0,0,0-1.513,0l-12.849-29.731a2.635,2.635,0,0,0-1.025-3.4L180.893,194.9a2.635,2.635,0,0,0-3.464.813L162.97,217.458a4.879,4.879,0,0,1-3.79,1.87,35.585,35.585,0,0,0-5.042.244V203.666l-9.661-5.562h0a1.626,1.626,0,0,0-1.626.146l-19.517,11.288a5.286,5.286,0,0,0-2.407,3.627l-1.952,21.762a7.205,7.205,0,0,1-2.033,4.05,119.922,119.922,0,0,0-10.865,11.6,3.741,3.741,0,0,1-3.838,1.09L89.7,247.288a3.041,3.041,0,0,0-3.529,1.3L71.791,273.343a3.074,3.074,0,0,0,.634,3.708l10.068,8.669a3.725,3.725,0,0,1,.976,3.871,115.7,115.7,0,0,0-4.522,15.158,7.238,7.238,0,0,1-2.5,3.79L58.552,321.112a5.254,5.254,0,0,0-2,3.838v22.575a1.626,1.626,0,0,0,.7,1.448h0l22.624,13.012-8.246,16.655a2.619,2.619,0,0,0,1.025,3.4l30.772,17.891a2.635,2.635,0,0,0,3.464-.813l13.987-14.3a1.626,1.626,0,0,0,.748,1.334l28.658,16.541.764-22.445s-5.937-7.693-5.937-9.092l31.244-34.025a3.09,3.09,0,0,0,3.529-1.3l14.378-24.9a3.074,3.074,0,0,0-.634-3.708l13.841-44.06a5.318,5.318,0,0,0,1.984-3.838Zm-75.744,94.919c-8.392,4.879-15.321,5.888-20.363,3.546-5.92-2.765,42.076-85.031,47.167-80.542,4.082,3.643,6.294,10.377,6.294,19.794C166.076,294.162,151.276,319.778,133.043,330.269Z" transform="translate(-32.887 24.238)"/>
      <path id="Path_1261" data-name="Path 1261" class="cls-3" d="M148.986,251.831l-8.685-5.009h0c-3.855-2.179-9.141-1.854-15,1.529-11.792,6.8-21.355,23.356-21.355,36.969,0,6.8,2.391,11.564,6.246,13.809h0l7.9,4.505,1.887-3.155A21.711,21.711,0,0,0,126.1,298.1c11.792-6.815,21.355-23.372,21.355-36.985a23.356,23.356,0,0,0-.667-5.449Z" transform="translate(-3.192 56.111)"/>
      <path id="Path_1262" data-name="Path 1262" class="cls-9" d="M103.9,278.6c0,6.8,2.375,11.564,6.213,13.809h0l7.9,4.505,1.887-3.155a21.78,21.78,0,0,0,6.115-2.391,44.321,44.321,0,0,0,15.89-17.354l-30.9-17.891A44.353,44.353,0,0,0,103.9,278.6Z" transform="translate(-3.223 62.8)"/>
      <path id="Path_1263" data-name="Path 1263" class="cls-14" d="M146.28,251.831l-8.685-5.009h-.081c-3.855-2.179-9.141-1.854-15,1.529a42.483,42.483,0,0,0-14.248,14.524l30.9,17.891a42.775,42.775,0,0,0,5.465-19.615,23.357,23.357,0,0,0-.667-5.449Z" transform="translate(-0.485 56.111)"/>
      <path id="Path_1264" data-name="Path 1264" class="cls-3" d="M130.309,251.241c-11.792,6.815-21.339,23.356-21.339,36.969s9.547,19.127,21.339,12.328,21.355-23.356,21.355-36.969S142.1,244.443,130.309,251.241Z" transform="translate(-0.047 57.92)"/>
      <path id="Path_1265" data-name="Path 1265" class="cls-5" d="M118.311,269.477a.781.781,0,0,1-.114-.6,2.292,2.292,0,0,1,.228-.716l4.554-7.986c.1-.2.244-.423.407-.7a1.626,1.626,0,0,1,.553-.569l2.586-1.5a.293.293,0,0,1,.39,0,.667.667,0,0,1,.179.52v21.014a1.724,1.724,0,0,1-.179.716.943.943,0,0,1-.39.488l-2.765,1.626a.293.293,0,0,1-.407,0,.651.651,0,0,1-.163-.5V267.054l-2.521,4.375a.878.878,0,0,1-.423.423.293.293,0,0,1-.374-.13Z" transform="translate(5.722 63.561)"/>
      <path id="Path_1266" data-name="Path 1266" class="cls-12" d="M172.992,216.612l-3.887,7.937-12.524,14.329-14.638-8.506L121.32,218.45a3.432,3.432,0,0,0,1.041-1.008l14.459-21.729a2.635,2.635,0,0,1,3.432-.829l12.621,7.286,19.094,10.995A2.635,2.635,0,0,1,172.992,216.612Z" transform="translate(7.69 24.238)"/>
      <path id="Path_1267" data-name="Path 1267" class="cls-12" d="M77.464,263.82a5.741,5.741,0,0,1-1.317,1.4L58.256,277.791a4.473,4.473,0,0,0-1.236,1.431l30.073,17.419,23.714-13.483Z" transform="translate(-32.591 67.624)"/>
      <path id="Path_1268" data-name="Path 1268" class="cls-12" d="M82.781,226.85a3.041,3.041,0,0,0-2.342,1.431L66.061,253.117a2.993,2.993,0,0,0-.325,1.919l31.472,18.2,19.68-26.609Z" transform="translate(-27.156 44.464)"/>
      <path id="Path_1269" data-name="Path 1269" class="cls-12" d="M148.214,213.386v7.156l-17.4,10.051L96.33,210.67a5.2,5.2,0,0,1,2.017-2.44l19.517-11.288a2.017,2.017,0,0,1,.976-.293,1.22,1.22,0,0,1,.6.146l9.417,5.416.244.146,13.012,7.514Z" transform="translate(-7.965 25.545)"/>
      <path id="Path_1270" data-name="Path 1270" class="cls-13" d="M227.148,269.49V246.915a1.448,1.448,0,0,0-2.212-1.431l-17.4,7.84a2.066,2.066,0,0,1-2.9-1.334,39.638,39.638,0,0,0-3.92-8.636,4.879,4.879,0,0,1-.26-4.212L212.1,215.752a2.635,2.635,0,0,0-1.025-3.4l-12.6-7.221a2.619,2.619,0,0,0-3.464.813L180.55,227.674a4.879,4.879,0,0,1-3.79,1.887,38.236,38.236,0,0,0-9.4.96,2.082,2.082,0,0,1-2.619-1.838l-1.9-19a1.448,1.448,0,0,0-2.358-1.2L140.963,219.77a5.188,5.188,0,0,0-2.326,3.643l-1.968,21.746a7.205,7.205,0,0,1-2.033,4.066,119.923,119.923,0,0,0-10.865,11.5,3.741,3.741,0,0,1-3.838,1.09l-12.54-4.375a3.041,3.041,0,0,0-3.529,1.3l-14.378,24.9a3.058,3.058,0,0,0,.634,3.692l10.068,8.685a3.725,3.725,0,0,1,.976,3.871A114.975,114.975,0,0,0,96.626,315a7.238,7.238,0,0,1-2.5,3.79L76.23,331.36a5.221,5.221,0,0,0-1.984,3.887v22.575a1.464,1.464,0,0,0,2.228,1.448l17.4-7.856a2.065,2.065,0,0,1,2.9,1.35,39.034,39.034,0,0,0,3.887,8.62,4.879,4.879,0,0,1,.26,4.229l-11.6,23.307a2.619,2.619,0,0,0,1.025,3.4l12.589,7.27a2.635,2.635,0,0,0,3.464-.813l14.459-21.746a4.879,4.879,0,0,1,3.773-1.87,40.014,40.014,0,0,0,9.4-.878,2.082,2.082,0,0,1,2.619,1.838l1.9,19a1.464,1.464,0,0,0,2.358,1.2l19.517-11.288a5.221,5.221,0,0,0,2.326-3.643l2.017-21.746a7.254,7.254,0,0,1,2.033-4.066A115.743,115.743,0,0,0,177.655,344.1a3.725,3.725,0,0,1,3.855-1.09l12.54,4.375a3.09,3.09,0,0,0,3.529-1.3l14.378-24.9a3.074,3.074,0,0,0-.634-3.708L201.255,308.8a3.741,3.741,0,0,1-.976-3.871,121.744,121.744,0,0,0,4.522-15.158,7.173,7.173,0,0,1,2.5-3.79L225.2,273.41a5.27,5.27,0,0,0,1.952-3.92Zm-76.443,70.994c-18.249,10.539-33.033,2-33.033-19.062s14.784-46.679,33.033-57.218,33.033-1.984,33.033,19.078S168.938,329.961,150.705,340.485Z" transform="translate(-21.809 30.644)"/>
      <path id="Path_1271" data-name="Path 1271" class="cls-3" d="M228.31,209.677a44.711,44.711,0,0,0-26.918-4.6,80.51,80.51,0,0,0-30.528,10.881c-43.329,25.015-78.85,84.087-82.3,135.093L42,323.642c3.432-51.005,39.035-110.094,82.314-135.109,22.526-13.012,42.938-14.378,57.836-6.083l1.757,1.041Z" transform="translate(-42 13.396)"/>
    </g>
    <g id="freepik--Character--inject-3" transform="translate(548.313 196.42)">
      <path id="Path_1272" data-name="Path 1272" class="cls-7" d="M25.015,0H57.544V34.562a24.4,24.4,0,0,1-24.4,24.4H24.4A24.4,24.4,0,0,1,0,34.562V24.917A24.917,24.917,0,0,1,25.015,0Z" transform="translate(108.321 58.959) rotate(180)"/>
      <path id="Path_1273" data-name="Path 1273" class="cls-7" d="M419.475,146.267l-4.213,3.757a2.83,2.83,0,1,1,4.212-3.757Z" transform="translate(-315.024 -143.095)"/>
      <path id="Path_1274" data-name="Path 1274" class="cls-7" d="M420.31,150.516l-5.53-1.187a2.83,2.83,0,0,1,3.367-2.163,2.8,2.8,0,0,1,2.163,3.35Z" transform="translate(-314.786 -141.879)"/>
      <path id="Path_1275" data-name="Path 1275" class="cls-7" d="M388.953,358.087a75.413,75.413,0,0,1-10.946,9.531,4.716,4.716,0,0,0-1.529,1.626c-.5,1.073-1.317,3.725,3.578,5.432a18.2,18.2,0,0,0,15.126-1.448c4.017-2.521,4.2-7.758,7.986-10.735,2.814-2.212,6.327-2.781,8.6-5.676,1.626-2.017,1.171-4.7.342-8.018-.895-3.611-1.317-6.359-2.5-6.083l.2,1.626c-1.5,2.375-9.255,3.09-12.7,1.448a139.968,139.968,0,0,1-8.148,12.3Z" transform="translate(-339.021 -19.347)"/>
      <path id="Path_1276" data-name="Path 1276" class="cls-15" d="M383.144,365.472h0c1.171-1.073,2.31-2.163,3.4-3.367a90.061,90.061,0,0,0,6.327-9.32,10.442,10.442,0,0,0,1.773-6.685l-.96-8.913,12.28-.878,1.431,12.052h0c.293,2.716-1.968,5.14-5.953,8.588s-9.076,11.483-12.7,13.5-6.2,1.935-7.742.911S379.257,369.457,383.144,365.472Z" transform="translate(-336.595 -23.349)"/>
      <path id="Path_1277" data-name="Path 1277" class="cls-7" d="M420.592,353.559v-1.854c-.732,2.163-4.115,11.483-9.222,16.151-4.082,3.725-9.629,8.018-11.044,12.15s7.726,5.758,11.531,5.075c4.424-.781,10.133-3.253,13.256-7.108,2.179-2.684,3.578-5.871,5.14-7.986s5.156-4.473,6-6.929c.472-1.35-.081-4.278-.732-6.766s-1.252-4.8-2.033-4.587v1.415a10.263,10.263,0,0,1-6.506,2.179C425.146,355.446,420.576,354.991,420.592,353.559Z" transform="translate(-323.933 -13.713)"/>
      <path id="Path_1278" data-name="Path 1278" class="cls-15" d="M405.331,375.192c1.269-1.122,2.537-2.228,3.692-3.253,3.578-3.253,6.294-8.8,7.872-12.572a18.1,18.1,0,0,0,1.35-6.8V345.2h12.9v11.971h0v.325h0c-.618,2.684-6.506,9.759-9.905,14.459-2.261,3.123-6.506,7.091-11.662,7.774C404.664,380.413,402.175,378.884,405.331,375.192Z" transform="translate(-321.585 -17.78)"/>
      <path id="Path_1279" data-name="Path 1279" class="cls-16" d="M444.233,230.75c10.019,21.859-.358,98.839-.358,98.839.309,3.546,4.359,10.523,5.871,26.137,1.789,18.444-2.8,64.749-2.8,64.749a13.987,13.987,0,0,1-13.012.521s-12.312-69.742-14.638-88.088c-2.017-16-5.888-53.673-5.888-53.673L402.4,332.761s4.212,9.206,4.879,16.037c1.041,10.783,0,57.495,0,57.495s-4.408,3.351-12.865,2.114c0,0-14.313-65.058-15.451-78.069C378.3,322.6,387.1,227.53,387.1,227.53Z" transform="translate(-337.246 -91.494)"/>
      <path id="Path_1280" data-name="Path 1280" class="cls-7" d="M409.066,269.6l-3.253-17.891s-13.743-2.846-19.973-8.7a35.571,35.571,0,0,0,16.265,10.8l3.659,15.614-6.392,47.33Z" transform="translate(-332.915 -81.797)"/>
      <path id="Path_1281" data-name="Path 1281" class="cls-15" d="M437.824,233.411c-.1-1.431-2.781-16.736-4.635-25.291L415.2,213.634l3.253,15.744,15.159,12.166C438.3,240.6,437.921,234.843,437.824,233.411Z" transform="translate(-314.523 -103.653)"/>
      <path id="Path_1282" data-name="Path 1282" class="cls-17" d="M378.9,203.83l-8.506,15.6,13.223,11.336,12.117-19.208Z" transform="translate(-342.594 -106.341)"/>
      <path id="Path_1283" data-name="Path 1283" class="cls-3" d="M408.36,182.47c-8.425.1-17.712,3.155-20.9,9.759l-13.19,27.194s7.449,10.913,19.273,10.149Z" transform="translate(-340.163 -119.722)"/>
      <path id="Path_1284" data-name="Path 1284" class="cls-9" d="M408.36,182.47c-8.425.1-17.712,3.155-20.9,9.759l-13.19,27.194s7.449,10.913,19.273,10.149Z" transform="translate(-340.163 -119.722)"/>
      <path id="Path_1285" data-name="Path 1285" class="cls-3" d="M424.069,183.081h0a25.34,25.34,0,0,1,16.948,13.857,21.924,21.924,0,0,1,.6,16.525l-8.945,25.861s4.2,10.116,9.043,19.68c-22.429,12.524-50.42,5.937-57.186-3.253-.276-1.952.1-10.686-.439-20.623-.586-10.6-2.033-22.559-.374-29.113,3.09-12.166,8.9-23.583,20.428-23.583Z" transform="translate(-334.728 -119.747)"/>
      <path id="Path_1286" data-name="Path 1286" class="cls-3" d="M410.28,182.83c7.661,1.09,18.9,2.635,22.77,20.819,3.92,18.444,5.058,24.852,5.058,24.852s-6.294,7.319-18.981,7.254l-3.952-13.971Z" transform="translate(-317.605 -119.496)"/>
      <path id="Path_1287" data-name="Path 1287" class="cls-9" d="M416.654,218.738s-2.586-8.214-4.164-14.9a103.454,103.454,0,0,0,2.082,20.916Z" transform="translate(-316.221 -106.334)"/>
      <path id="Path_1288" data-name="Path 1288" class="cls-15" d="M392.808,151.1c-3.041,1.805-6.782,9.433-6.408,25.421.309,13.548,4.7,16.9,6.912,17.891s6.506.374,10.588-.309v8.132s-5.709,6.636-5.351,10.36,8.246,4.619,13.6.976a34.415,34.415,0,0,0,8.767-9.189v-19.7a5.2,5.2,0,0,0,7.368.7c4.57-3.041,4.733-10.539,2.082-13.239s-8.376-1.838-9.45,1.887c0,0-6.587.244-15.37-4.587A24.673,24.673,0,0,1,392.808,151.1Z" transform="translate(-332.581 -139.373)"/>
      <path id="Path_1289" data-name="Path 1289" class="cls-7" d="M395.691,165.254a1.7,1.7,0,1,0,1.781-1.618A1.7,1.7,0,0,0,395.691,165.254Z" transform="translate(-326.746 -131.522)"/>
      <path id="Path_1290" data-name="Path 1290" class="cls-17" d="M396.932,171.7l-3.952,1.252a2.017,2.017,0,0,0,2.57,1.415,2.163,2.163,0,0,0,1.382-2.667Z" transform="translate(-328.443 -126.468)"/>
      <path id="Path_1291" data-name="Path 1291" class="cls-7" d="M387.235,162.708l3.448-2.391a2,2,0,0,0-2.863-.585,2.179,2.179,0,0,0-.586,2.976Z" transform="translate(-332.261 -134.197)"/>
      <path id="Path_1292" data-name="Path 1292" class="cls-7" d="M387.591,164.482a1.711,1.711,0,1,0,3.415.211,1.7,1.7,0,1,0-3.4-.146Z" transform="translate(-331.821 -131.969)"/>
      <path id="Path_1293" data-name="Path 1293" class="cls-17" d="M394.716,163.28l-.277,10.247-5.4-1.675Z" transform="translate(-330.911 -131.743)"/>
      <path id="Path_1294" data-name="Path 1294" class="cls-17" d="M397.15,180.1c4.359-.569,13.321-3.155,14.719-6.7a9.222,9.222,0,0,1-3.139,4.522c-2.684,2.31-11.58,4.879-11.58,4.879Z" transform="translate(-325.83 -125.404)"/>
      <path id="Path_1295" data-name="Path 1295" class="cls-13" d="M353.3,203.25l49.46,13.028,14.605,61.4-47.037-13.662Z" transform="translate(-353.3 -106.704)"/>
      <path id="Path_1296" data-name="Path 1296" class="cls-2" d="M370.275,228.22c-.455,1.269-3.172,4.749-8.929,4.473l-.716-2.537Z" transform="translate(-348.708 -91.062)"/>
      <path id="Path_1297" data-name="Path 1297" class="cls-2" d="M373.36,229.41c.211,1.626,3.578,4.652,9.271,6.506,6.506,2.163,16.395,1.025,16.395,1.025l-.895-3.058Z" transform="translate(-340.733 -90.316)"/>
      <path id="Path_1298" data-name="Path 1298" class="cls-2" d="M362.361,209.75l-.407-1.887c-.228-1.041,2.684-1.09,6.506-.1l7.286,1.887c3.806.992,7.075,2.635,7.3,3.676l.407,1.887Z" transform="translate(-347.886 -104.323)"/>
      <path id="Path_1299" data-name="Path 1299" class="cls-16" d="M360.094,205.322c-.13-.651,1.041-.829,2.635-.39l2.879.8s-.862-4.082,5.546-2.651,7.807,6.05,7.807,6.05l3.09.878c1.626.488,3.253,1.4,3.448,2.049l.358,1.171-25.486-6.7Z" transform="translate(-349.05 -107.003)"/>
      <path id="Path_1300" data-name="Path 1300" class="cls-16" d="M362.532,205.878c2.342.553,3.253.878,3.659,2.472a23.4,23.4,0,0,1,.553,3.253l11.288,2.976s-.553-2.326-.716-3.253.211-1.464,2-.976l.146-.732L361.8,205.13Z" transform="translate(-347.975 -105.526)"/>
      <path id="Path_1301" data-name="Path 1301" class="cls-16" d="M362.161,209.859l-.407-1.887c-.228-1.041,2.684-1.09,6.506-.1l7.286,1.887c3.806.992,7.075,2.635,7.3,3.676l.407,1.887Z" transform="translate(-348.011 -104.254)"/>
      <path id="Path_1302" data-name="Path 1302" class="cls-15" d="M460.7,234.691,445.54,222.525s-33.5,5.969-37.408,6.278a10.328,10.328,0,0,1-9.759-6.343c-1.5-3.855-4.131-3.383-4.131-3.383l1.529,6.506c.374,1.626-9.059,2.846-14.3,1.073s-12.8.8-8.132,7.921,13.825,7.953,20.152,7.953a65.37,65.37,0,0,0,7.937-.537c2.049-.26,4.082-.472,6.148-.618C420.477,240.416,454.795,236.545,460.7,234.691Z" transform="translate(-341.659 -96.801)"/>
      <path id="Path_1303" data-name="Path 1303" class="cls-15" d="M357.77,214.7l2.2,7.839c.423,1.5,6.18,4.245,9.759,5.237s7.628,2.179,5.9,7.27c-1.626,4.684-7.579,5.758-10.621,5.628s-7.221-3.041-8.864-7.742c-2.1-5.985-.96-12.377-1.789-15.874S355.948,212.62,357.77,214.7Z" transform="translate(-352.744 -100.216)"/>
    </g>
  </g>
</svg>
