<svg xmlns="http://www.w3.org/2000/svg" width="58.491" height="50" viewBox="0 0 58.491 50">
  <defs>
    <style>
      .cls-1 {
        fill: #4e5ad3;
      }
    </style>
  </defs>
  <g id="strategy" transform="translate(-8 -48.001)">
    <path id="Path_531" data-name="Path 531" class="cls-1" d="M61.774,53.661H32.682a9.43,9.43,0,0,0-17.288,0H12.717A4.722,4.722,0,0,0,8,58.378V84.793a4.722,4.722,0,0,0,4.717,4.717H31.193l-1.336,3.774H25.925a.943.943,0,0,0-.943.943v2.83a.943.943,0,0,0,.943.943H48.566a.943.943,0,0,0,.943-.943v-2.83a.943.943,0,0,0-.943-.943H44.515L43.179,89.51H61.774a4.722,4.722,0,0,0,4.717-4.717V58.378A4.722,4.722,0,0,0,61.774,53.661ZM31.585,57.434a7.514,7.514,0,0,1-2.038,5.15.845.845,0,0,0-.067-.093l-4.251-5.1,3.926-5.5A7.528,7.528,0,0,1,31.585,57.434Zm-7.547-7.547a7.5,7.5,0,0,1,3.584.907l-4.07,5.7h-7a7.556,7.556,0,0,1,7.486-6.6ZM23.6,58.378,28.03,63.7a.929.929,0,0,0,.081.085,7.539,7.539,0,0,1-11.559-5.406ZM47.623,95.17v.943H26.868V95.17ZM31.859,93.284l1.336-3.774h7.984l1.336,3.774ZM64.6,84.793a2.834,2.834,0,0,1-2.83,2.83H12.717a2.834,2.834,0,0,1-2.83-2.83V83.85H64.6Zm0-2.83H9.887V58.378a2.834,2.834,0,0,1,2.83-2.83h2.077a9.434,9.434,0,1,0,18.488,0H61.774a2.834,2.834,0,0,1,2.83,2.83Z"/>
    <path id="Path_532" data-name="Path 532" class="cls-1" d="M47.4,360H40.925a.925.925,0,1,0,0,1.849H47.4a.925.925,0,1,0,0-1.849Z" transform="translate(-28.302 -275.178)"/>
    <path id="Path_533" data-name="Path 533" class="cls-1" d="M121.849,360h-.925a.925.925,0,1,0,0,1.849h.925a.925.925,0,1,0,0-1.849Z" transform="translate(-98.779 -275.178)"/>
    <path id="Path_534" data-name="Path 534" class="cls-1" d="M232.962,144a2.777,2.777,0,0,0-2.774,2.774,2.743,2.743,0,0,0,.272,1.195h0l-3.7,3.7h0a2.765,2.765,0,0,0-2.39,0h0l-3.7-3.7h0a2.743,2.743,0,0,0,.272-1.195,2.774,2.774,0,0,0-5.547,0,2.743,2.743,0,0,0,.272,1.195h0l-3.7,3.7h0a2.743,2.743,0,0,0-1.195-.272,2.774,2.774,0,1,0,2.774,2.774,2.743,2.743,0,0,0-.272-1.195h0l3.7-3.7h0a2.765,2.765,0,0,0,2.39,0h0l3.7,3.7h0a2.743,2.743,0,0,0-.272,1.195,2.774,2.774,0,0,0,5.547,0,2.743,2.743,0,0,0-.272-1.195h0l3.7-3.7h0a2.743,2.743,0,0,0,1.195.272,2.774,2.774,0,1,0,0-5.547Zm-22.189,11.094a.925.925,0,1,1,.925-.925A.925.925,0,0,1,210.774,155.094Zm7.4-7.4a.925.925,0,1,1,.925-.925A.925.925,0,0,1,218.17,147.7Zm7.4,7.4a.925.925,0,1,1,.925-.925A.925.925,0,0,1,225.566,155.094Zm7.4-7.4a.925.925,0,1,1,.925-.925A.925.925,0,0,1,232.962,147.7Z" transform="translate(-175.717 -84.597)"/>
    <path id="Path_535" data-name="Path 535" class="cls-1" d="M96.925,233.849h9.245a.925.925,0,1,0,0-1.849H96.925a.925.925,0,1,0,0,1.849Z" transform="translate(-77.573 -162.284)"/>
    <path id="Path_536" data-name="Path 536" class="cls-1" d="M96.925,257.849h9.245a.925.925,0,0,0,0-1.849H96.925a.925.925,0,1,0,0,1.849Z" transform="translate(-77.573 -183.452)"/>
    <path id="Path_537" data-name="Path 537" class="cls-1" d="M96.925,281.849H99.7a.925.925,0,0,0,0-1.849H96.925a.925.925,0,1,0,0,1.849Z" transform="translate(-77.604 -204.619)"/>
  </g>
</svg>
