<svg xmlns="http://www.w3.org/2000/svg" xmlns:xlink="http://www.w3.org/1999/xlink" width="510.707" height="332.61" viewBox="0 0 510.707 332.61"><defs><style>.cls-1{fill:#e0e0e0}.cls-2{fill:#ebebeb}.cls-3{fill:#f5f5f5}.cls-4{fill:#fafafa}.cls-5{fill:#263238}.cls-6{fill:#ffbe9d}.cls-16,.cls-7{fill:#fff}.cls-8{fill:#eb996e}.cls-9{fill:#455a64}.cls-10{fill:#4f5bd3}.cls-11,.cls-12{opacity:.4}.cls-13{fill:url(#linear-gradient)}.cls-14,.cls-21{opacity:.2}.cls-15,.cls-16{opacity:.5}.cls-17{fill:#3e3e3e}.cls-18{fill:url(#linear-gradient-2)}.cls-19{opacity:.1}.cls-20{opacity:.3}</style><linearGradient id="linear-gradient" x1=".336" x2=".5" y1="-.142" y2="1" gradientUnits="objectBoundingBox"><stop offset="0" stop-color="#8693f3"/><stop offset="1" stop-color="#4f5bd3"/></linearGradient><linearGradient id="linear-gradient-2" x1=".5" y1="0" xlink:href="#linear-gradient"/></defs><g id="Sharing_Ideas-pana" data-name="Sharing Ideas-pana" transform="translate(-71.73 -68.75)"><g id="freepik--background-complete--inject-372" transform="translate(78.483 68.75)"><path id="Path_541" d="M328.013,205.67l41.871,23.185-1.576,2.958-41.5-23.626,1.2-2.517" class="cls-1" data-name="Path 541" transform="translate(-117.403 -89.641)"/><path id="Path_542" d="M325.8,202.549l1.924-2.949,1.119.695-1.72,2.974Z" class="cls-1" data-name="Path 542" transform="translate(-117.248 -88.715)"/><path id="Path_543" d="M370.558,228.7l2.152,1.246-7.017,44.735-3.313.042Z" class="cls-1" data-name="Path 543" transform="translate(-122.83 -93.155)"/><path id="Path_544" d="M351,287.6s5.085-5.161,11.949-4.779A14.821,14.821,0,0,1,373.3,287.57Z" class="cls-1" data-name="Path 544" transform="translate(-121.093 -101.409)"/><path id="Path_545" d="M322.856,222.921l-16.576-9.576,4.788-8.288a9.576,9.576,0,0,1,13.076-3.508h0a9.576,9.576,0,0,1,3.5,13.076Z" class="cls-1" data-name="Path 545" transform="translate(-114.27 -88.817)"/><rect id="Rectangle_28" width="53.125" height="2.585" class="cls-2" data-name="Rectangle 28" transform="translate(147.469 185.814) rotate(180)"/><path id="Path_546" d="M256.131,281.3,266.1,243.95H224.615L215.59,281.3Z" class="cls-2" data-name="Path 546" transform="translate(-100.433 -95.482)"/><path id="Path_547" d="M218.52,278.777h37.058L264.2,245.99H226.96Z" class="cls-1" data-name="Path 547" transform="translate(-100.88 -95.793)"/><rect id="Rectangle_29" width="2.686" height="128.096" class="cls-3" data-name="Rectangle 29" transform="translate(83.811 193.466)"/><rect id="Rectangle_30" width="2.686" height="127.732" class="cls-2" data-name="Rectangle 30" transform="translate(86.497 193.831)"/><rect id="Rectangle_31" width="2.686" height="128.096" class="cls-2" data-name="Rectangle 31" transform="translate(249.109 193.466)"/><rect id="Rectangle_32" width="2.686" height="127.732" class="cls-1" data-name="Rectangle 32" transform="translate(251.787 193.831)"/><rect id="Rectangle_33" width="203.796" height="10.508" class="cls-1" data-name="Rectangle 33" transform="translate(72.227 186.018)"/><rect id="Rectangle_34" width="89.717" height="17.389" class="cls-2" data-name="Rectangle 34" transform="translate(160.732 196.526)"/><path id="Path_548" d="M326.28,309.15a1.992,1.992,0,1,1-.58-1.414,2,2,0,0,1,.58,1.414Z" class="cls-1" data-name="Path 548" transform="translate(-116.711 -105.125)"/><path id="Path_549" d="M147.823,357.873h35.236a4.491,4.491,0,0,0,4.491-4.491V342.517a7.567,7.567,0,0,0-7.567-7.568H147.56Z" class="cls-2" data-name="Path 549" transform="translate(-90.053 -109.366)"/><path id="Path_550" d="M175.675,368.829H106.39a3.39,3.39,0,0,1-3.39-3.39h0a3.39,3.39,0,0,1,3.39-3.39h69.294a3.39,3.39,0,0,1,3.39,3.39h0a3.39,3.39,0,0,1-3.4,3.39Z" class="cls-2" data-name="Path 550" transform="translate(-83.254 -113.501)"/><path id="Path_551" d="M88.708,254.518l38.134-.678,24.2,91.454-51.616.517L79.954,265.636a8.991,8.991,0,0,1,8.754-11.118Z" class="cls-1" data-name="Path 551" transform="translate(-79.699 -96.991)"/><path id="Path_552" d="M110.676,370.05,99.27,436.335H102.4l15-66.285Z" class="cls-2" data-name="Path 552" transform="translate(-82.685 -114.722)"/><path id="Path_553" d="M142.287,370.05,130.16,436.335h3.127L149,370.05Z" class="cls-1" data-name="Path 553" transform="translate(-87.398 -114.722)"/><path id="Path_554" d="M178.352,370.05l13.525,66.285h-3.127L171.64,370.05Z" class="cls-2" data-name="Path 554" transform="translate(-93.727 -114.722)"/><path id="Path_555" d="M130.16,253.835l18.864,91.522H163.5l-15.135-80.886a13.025,13.025,0,0,0-12.8-10.661Z" class="cls-2" data-name="Path 555" transform="translate(-87.398 -96.986)"/><rect id="Rectangle_35" width="53.125" height="2.585" class="cls-2" data-name="Rectangle 35" transform="translate(375.172 182.95)"/><path id="Path_556" d="M510.916,280.967,500.95,243.63h41.481l9.025,37.337Z" class="cls-2" data-name="Path 556" transform="translate(-143.973 -95.433)"/><path id="Path_557" d="M549.384,278.455H512.327l-8.627-32.8h37.253Z" class="cls-1" data-name="Path 557" transform="translate(-144.392 -95.743)"/><rect id="Rectangle_36" width="2.686" height="128.367" class="cls-3" data-name="Rectangle 36" transform="translate(475.718 321.563) rotate(180)"/><rect id="Rectangle_37" width="2.686" height="128.003" class="cls-2" data-name="Rectangle 37" transform="translate(473.032 321.554) rotate(180)"/><rect id="Rectangle_38" width="2.686" height="129.63" class="cls-2" data-name="Rectangle 38" transform="translate(310.429 322.817) rotate(180)"/><rect id="Rectangle_39" width="2.686" height="129.257" class="cls-1" data-name="Rectangle 39" transform="translate(307.742 322.817) rotate(180)"/><rect id="Rectangle_40" width="203.796" height="10.508" class="cls-1" data-name="Rectangle 40" transform="translate(487.302 196.254) rotate(180)"/><rect id="Rectangle_41" width="89.717" height="17.389" class="cls-2" data-name="Rectangle 41" transform="translate(398.806 213.644) rotate(180)"/><path id="Path_558" d="M492.65,308.82a2,2,0,1,0,2-2A2,2,0,0,0,492.65,308.82Z" class="cls-1" data-name="Path 558" transform="translate(-142.706 -105.074)"/><path id="Path_559" d="M573.187,357.873H537.943a4.483,4.483,0,0,1-4.483-4.491V342.517a7.559,7.559,0,0,1,7.559-7.568H573.45Z" class="cls-2" data-name="Path 559" transform="translate(-148.933 -109.366)"/><path id="Path_560" d="M538.84,368.829h69.294a3.39,3.39,0,0,0,3.39-3.39h0a3.39,3.39,0,0,0-3.39-3.39H538.84a3.39,3.39,0,0,0-3.39,3.39h0A3.39,3.39,0,0,0,538.84,368.829Z" class="cls-2" data-name="Path 560" transform="translate(-149.236 -113.501)"/><path id="Path_561" d="M626.659,254.518l-38.134-.678L564.34,345.294l51.616.517,19.491-80.175a9,9,0,0,0-8.788-11.118Z" class="cls-1" data-name="Path 561" transform="translate(-153.644 -96.991)"/><path id="Path_562" d="M614.27,370.05l11.4,66.285h-3.119l-15-66.285Z" class="cls-2" data-name="Path 562" transform="translate(-160.237 -114.722)"/><path id="Path_563" d="M582.531,370.05l12.127,66.285h-3.127L575.82,370.05Z" class="cls-1" data-name="Path 563" transform="translate(-155.396 -114.722)"/><path id="Path_564" d="M546.215,370.05,532.69,436.335h3.127l17.109-66.285Z" class="cls-2" data-name="Path 564" transform="translate(-148.815 -114.722)"/><path id="Path_565" d="M592.048,253.835l-18.864,91.522H558.71l15.126-80.886a13.033,13.033,0,0,1,12.813-10.661Z" class="cls-2" data-name="Path 565" transform="translate(-152.785 -96.986)"/><rect id="Rectangle_42" width="1.949" height="17.423" class="cls-1" data-name="Rectangle 42" transform="translate(389.264 59.43)"/><rect id="Rectangle_43" width="1.949" height="17.423" class="cls-1" data-name="Rectangle 43" transform="translate(453.423 59.43)"/><rect id="Rectangle_44" width="81.59" height="7" class="cls-2" data-name="Rectangle 44" transform="translate(382.07 52.43)"/><rect id="Rectangle_45" width="11.245" height="52.43" class="cls-3" data-name="Rectangle 45" transform="translate(436.296)"/><path id="Path_566" d="M603.288,115.379a2.22,2.22,0,1,1-.65-1.578,2.229,2.229,0,0,1,.65,1.578Z" class="cls-1" data-name="Path 566" transform="translate(-158.907 -75.524)"/><rect id="Rectangle_46" width="3.441" height="21.423" class="cls-1" data-name="Rectangle 46" transform="translate(440.33 13.889)"/><rect id="Rectangle_47" width="11.245" height="52.43" class="cls-2" data-name="Rectangle 47" transform="translate(424.873)"/><path id="Path_567" d="M589.8,115.379a2.22,2.22,0,1,1-.65-1.578,2.229,2.229,0,0,1,.65,1.578Z" class="cls-4" data-name="Path 567" transform="translate(-156.848 -75.524)"/><rect id="Rectangle_48" width="3.441" height="21.423" class="cls-4" data-name="Rectangle 48" transform="translate(428.907 13.889)"/><rect id="Rectangle_49" width="11.245" height="52.43" class="cls-1" data-name="Rectangle 49" transform="translate(413.992)"/><path id="Path_568" d="M576.957,115.379a2.221,2.221,0,1,1-.65-1.578,2.229,2.229,0,0,1,.65,1.578Z" class="cls-4" data-name="Path 568" transform="translate(-154.889 -75.524)"/><rect id="Rectangle_50" width="3.441" height="21.423" class="cls-4" data-name="Rectangle 50" transform="translate(418.026 13.889)"/><path id="Path_569" d="M550.908,121.007l13.516-46.125-4.661-2.042L545.9,119.33Z" class="cls-1" data-name="Path 569" transform="translate(-150.831 -69.374)"/></g><g id="freepik--Floor--inject-372" transform="translate(71.73 390.982)"><path id="Path_570" d="M582.437,449.246c0,.127-114.334.22-255.345.22s-255.362-.093-255.362-.22S186.039,449,327.092,449,582.437,449.127,582.437,449.246Z" class="cls-5" data-name="Path 570" transform="translate(-71.73 -449)"/></g><g id="freepik--character-2--inject-372" transform="translate(313.474 110.957)"><path id="Path_571" d="M487.487,165.424l-14.593-1.161c-.085-1.695,0-8.279,0-8.279s-6.059-.941-6.135-7,1.051-19.974,1.051-19.974h0A21.041,21.041,0,0,1,489,131.671l.9.686Z" class="cls-6" data-name="Path 571" transform="translate(-373.746 -119.889)"/><path id="Path_572" d="M469.38,141.34a.89.89,0,0,0,.059-1.246.847.847,0,1,0-.059,1.246Z" class="cls-5" data-name="Path 572" transform="translate(-373.934 -121.805)"/><path id="Path_573" d="M467.888,139.843c.1.11.695-.347,1.525-.356s1.441.432,1.534.322-.051-.237-.314-.441a2.068,2.068,0,0,0-2.441,0C467.93,139.58,467.846,139.775,467.888,139.843Z" class="cls-5" data-name="Path 573" transform="translate(-373.918 -121.671)"/><path id="Path_574" d="M479.173,140.8a.847.847,0,1,0,.669-.121A.847.847,0,0,0,479.173,140.8Z" class="cls-5" data-name="Path 574" transform="translate(-375.584 -121.929)"/><path id="Path_575" d="M478.588,140.686c.093.11.686-.356,1.525-.356s1.441.424,1.534.322-.051-.237-.314-.441a2.051,2.051,0,0,0-1.229-.381,1.949,1.949,0,0,0-1.212.415C478.631,140.449,478.546,140.643,478.588,140.686Z" class="cls-5" data-name="Path 575" transform="translate(-375.55 -121.803)"/><path id="Path_576" d="M474.252,147.694a3.966,3.966,0,0,0-1.347-.288c-.22,0-.39-.076-.407-.195a1.136,1.136,0,0,1,.153-.619l.661-1.695a23.317,23.317,0,0,0,1.432-4.457,23.517,23.517,0,0,0-1.873,4.3c-.22.585-.424,1.152-.627,1.695a1.441,1.441,0,0,0-.119.907.576.576,0,0,0,.373.356,1.279,1.279,0,0,0,.373.042A4.288,4.288,0,0,0,474.252,147.694Z" class="cls-5" data-name="Path 576" transform="translate(-374.561 -121.896)"/><path id="Path_577" d="M477.1,150.05a15.558,15.558,0,0,1-4.093,1.195,2.3,2.3,0,0,0,2.72.915C477.544,151.5,477.1,150.05,477.1,150.05Z" class="cls-7" data-name="Path 577" transform="translate(-374.701 -123.362)"/><path id="Path_578" d="M474.057,160.646a14.143,14.143,0,0,0,7.9-2.246s-1.864,4.356-7.915,3.813Z" class="cls-8" data-name="Path 578" transform="translate(-374.858 -124.636)"/><path id="Path_579" d="M467.824,130.267a10.012,10.012,0,0,0,8.474,0c3.263-1.339,6.974-1.83,7.737-1.144s.686,3.941,3.729,5.085c0,0-.669,6.152,1.814,6.118s1.644-9.711,1.644-9.711l-5.8-3.39-6.483-1.695-6.254.415-4.89.958Z" class="cls-5" data-name="Path 579" transform="translate(-373.904 -119.621)"/><path id="Path_580" d="M493.093,140.646c.1-.042,4.161-1.229,4.034,2.907s-4.237,3.161-4.237,3.042S493.093,140.646,493.093,140.646Z" class="cls-6" data-name="Path 580" transform="translate(-377.734 -121.898)"/><path id="Path_581" d="M494.4,145.3s.076.051.195.119a.763.763,0,0,0,.542,0,1.779,1.779,0,0,0,.847-1.576,2.33,2.33,0,0,0-.169-1.042.848.848,0,0,0-.525-.568.373.373,0,0,0-.432.186c-.059.11,0,.195-.059.2s-.085-.076,0-.246a.423.423,0,0,1,.169-.254.56.56,0,0,1,.4-.093,1.025,1.025,0,0,1,.737.669,2.45,2.45,0,0,1,.212,1.161,1.864,1.864,0,0,1-1.11,1.754.762.762,0,0,1-.652-.127C494.408,145.393,494.391,145.308,494.4,145.3Z" class="cls-8" data-name="Path 581" transform="translate(-377.964 -122.137)"/><path id="Path_582" d="M472,138.194c-.136.237-.924,0-1.873,0s-1.763.076-1.873-.178.7-.847,1.915-.8S472.148,137.974,472,138.194Z" class="cls-5" data-name="Path 582" transform="translate(-373.974 -121.404)"/><path id="Path_583" d="M482.974,138.194c-.136.237-.924,0-1.873,0s-1.763.076-1.873-.178.7-.847,1.915-.8S483.118,137.974,482.974,138.194Z" class="cls-5" data-name="Path 583" transform="translate(-375.648 -121.404)"/><path id="Path_584" d="M485.132,128.94a14.406,14.406,0,0,0,2.407,2.8,4.8,4.8,0,0,0,3.39,1.195,2.924,2.924,0,0,0,2.619-2.229,2.118,2.118,0,0,0-2.059-2.458,1.288,1.288,0,1,0-.449-2.381c1.059-.059,1.39-1.695.653-2.458a3.093,3.093,0,0,0-3-.508,18.17,18.17,0,0,1-3.068.847,6.77,6.77,0,0,1-4.559-1.763,19.492,19.492,0,0,0-4.085-2.856,9.322,9.322,0,0,0-6.025-.136,9.643,9.643,0,0,0-4.415,2.424,5.669,5.669,0,0,0-1.695,4.627,4.042,4.042,0,0,0,3.254,3.449,10.957,10.957,0,0,0,7.118-1.017c3.39-1.881,9.839-.737,9.839-.737Z" class="cls-5" data-name="Path 584" transform="translate(-373.451 -118.557)"/><path id="Path_585" d="M491.791,125.664a.848.848,0,0,1-.263.153,7.037,7.037,0,0,1-.788.356,13.154,13.154,0,0,1-3.11.788,14.05,14.05,0,0,1-4.746-.161,34.151,34.151,0,0,1-5.483-1.907,12.118,12.118,0,0,0-5.525-1.025,5.389,5.389,0,0,0-3.907,2.085,4.042,4.042,0,0,0-.686,2.924,7.191,7.191,0,0,0,.331,1.1,1.649,1.649,0,0,1-.186-.246,2.865,2.865,0,0,1-.314-.847,4.135,4.135,0,0,1,.6-3.135,5.652,5.652,0,0,1,4.118-2.313,12.118,12.118,0,0,1,5.729,1.025,36.265,36.265,0,0,0,5.407,1.915,14.745,14.745,0,0,0,4.627.254A22.038,22.038,0,0,0,491.791,125.664Z" class="cls-9" data-name="Path 585" transform="translate(-373.788 -119.297)"/><path id="Path_586" d="M496.3,133.809c.042,0-.144.407-.653.847a4.237,4.237,0,0,1-4.949.415c-.576-.364-.847-.712-.788-.746a7.847,7.847,0,0,1,.932.466,4.525,4.525,0,0,0,4.618-.39C495.976,134.063,496.247,133.767,496.3,133.809Z" class="cls-9" data-name="Path 586" transform="translate(-377.278 -120.883)"/><path id="Path_587" d="M495.734,131.228c.1.059-.314.763-1.169,1.2s-1.695.373-1.695.254.7-.246,1.466-.644S495.641,131.144,495.734,131.228Z" class="cls-9" data-name="Path 587" transform="translate(-377.731 -120.489)"/><path id="Path_588" d="M464.977,133.516c-.051,0-.144-.212-.127-.585a2.339,2.339,0,0,1,.542-1.33,2.237,2.237,0,0,1,1.229-.737,1.248,1.248,0,0,1,.593,0,3.471,3.471,0,0,0-1.483.991C465.1,132.6,465.138,133.516,464.977,133.516Z" class="cls-5" data-name="Path 588" transform="translate(-373.455 -120.429)"/><path id="Path_589" d="M463.44,126.78a16.469,16.469,0,0,0,1.39,2.136,15.785,15.785,0,0,0,2,1.593,3.3,3.3,0,0,1-2.322-1.3A3.389,3.389,0,0,1,463.44,126.78Z" class="cls-9" data-name="Path 589" transform="translate(-373.24 -119.811)"/><path id="Path_590" d="M398.69,213.958s18.025,22.88,26.779,18.643,24.457-18.643,24.457-18.643l-8.695-8.728-17.609,15.482-21.7-12.355Z" class="cls-6" data-name="Path 590" transform="translate(-363.361 -131.781)"/><path id="Path_591" d="M497.029,242.792l-45.956-2.178c-.119-5.025,2-40.608,2-40.608l-2.542,4.729-13.1-11.677,11.5-15.465a22.677,22.677,0,0,1,15.152-8.966c1.78-.237,3.127-.356,4.008-.466a25.745,25.745,0,0,0,15.525,0h0a21.185,21.185,0,0,1,6.432,1.229,26.482,26.482,0,0,1,10.262,6.644h0l13.7,23.024-16.643,10.491-2.39-7.245Z" class="cls-9" data-name="Path 591" transform="translate(-369.272 -126.125)"/><path id="Path_592" d="M524.12,439.61l1.441,6.059s9.923,12.889,12.983,12.254c2.008-.407-.458-3.771-4.237-13.559l-.8-4.042Z" class="cls-10" data-name="Path 592" transform="translate(-382.499 -167.542)"/><path id="Path_593" d="M539.182,456.87a.706.706,0,0,1-.085.178,1.094,1.094,0,0,1-.415.39,1.6,1.6,0,0,1-.847.195,2.3,2.3,0,0,1-1.127-.415,48.105,48.105,0,0,1-4.991-4.652,64.2,64.2,0,0,1-4.44-5.195c-.525-.7-.941-1.271-1.22-1.695l-.313-.466a1.042,1.042,0,0,1-.1-.169,1.042,1.042,0,0,1,.1.169l.347.441,1.263,1.636c1.085,1.364,2.635,3.212,4.466,5.144a57.692,57.692,0,0,0,4.932,4.678,1.83,1.83,0,0,0,1.9.263A1.424,1.424,0,0,0,539.182,456.87Z" class="cls-5" data-name="Path 593" transform="translate(-382.731 -168.371)"/><path id="Path_594" d="M539.225,454.071s-.314,0-.847.042a4.745,4.745,0,0,0-1.78.678,3.584,3.584,0,0,0-1.339,1.339c-.237.432-.305.737-.339.729a1.805,1.805,0,0,1,.212-.8,3.467,3.467,0,0,1,1.356-1.441,4.237,4.237,0,0,1,1.89-.627A1.525,1.525,0,0,1,539.225,454.071Z" class="cls-5" data-name="Path 594" transform="translate(-384.147 -169.733)"/><path id="Path_595" d="M528.288,449.419a10.356,10.356,0,0,0,.178-1.136,4.686,4.686,0,0,0-.492-2.661,4.4,4.4,0,0,0-1.9-1.907,8.979,8.979,0,0,0-1.076-.4,1.1,1.1,0,0,1,.314,0,3.212,3.212,0,0,1,.847.254,4.237,4.237,0,0,1,2.008,1.949,4.5,4.5,0,0,1,.458,2.763,4.319,4.319,0,0,1-.195.847A.847.847,0,0,1,528.288,449.419Z" class="cls-5" data-name="Path 595" transform="translate(-382.633 -168.107)"/><path id="Path_596" d="M524.869,440.82a6.385,6.385,0,0,1,.542,1.9c.186,1.076.381,1.924.339,1.941a6.1,6.1,0,0,1-.525-1.907C525.038,441.684,524.818,440.837,524.869,440.82Z" class="cls-5" data-name="Path 596" transform="translate(-382.612 -167.727)"/><path id="Path_597" d="M535.915,446.214c0,.059-.559,0-1.229.195a9.259,9.259,0,0,1-1.186.364,2.127,2.127,0,0,1,1.144-.551A2.195,2.195,0,0,1,535.915,446.214Z" class="cls-5" data-name="Path 597" transform="translate(-383.93 -168.536)"/><path id="Path_598" d="M536.228,447.437c0,.051-.475,0-1.025.144s-.949.381-.983.331a1.542,1.542,0,0,1,.941-.525,1.458,1.458,0,0,1,1.068.051Z" class="cls-5" data-name="Path 598" transform="translate(-384.04 -168.717)"/><path id="Path_599" d="M537.161,448.957a4.815,4.815,0,0,0-1.068,0,5.826,5.826,0,0,0-.983.424,1.322,1.322,0,0,1,.941-.61A1.288,1.288,0,0,1,537.161,448.957Z" class="cls-5" data-name="Path 599" transform="translate(-384.176 -168.932)"/><path id="Path_600" d="M534.9,445.268a1.162,1.162,0,0,1-.331-.042,5.413,5.413,0,0,1-.847-.237,7.358,7.358,0,0,1-1.237-.542c-.22-.127-.449-.263-.678-.424a1.017,1.017,0,0,1-.5-.763.585.585,0,0,1,.754-.475,1.534,1.534,0,0,1,.695.458,12.845,12.845,0,0,1,.915,1c.237.3.424.542.542.72s.178.288.161.3-.305-.364-.847-.932c-.254-.28-.568-.61-.932-.949a1.389,1.389,0,0,0-.61-.407c-.22-.059-.508.059-.517.3s.212.449.415.593a7.2,7.2,0,0,0,.661.424,7.554,7.554,0,0,0,1.195.576C534.437,445.141,534.911,445.234,534.9,445.268Z" class="cls-5" data-name="Path 600" transform="translate(-383.596 -168.023)"/><path id="Path_601" d="M534.928,444.979a1.076,1.076,0,0,1,0-.305,5.025,5.025,0,0,1,.059-.847,4.78,4.78,0,0,1,.313-1.2,2.678,2.678,0,0,1,.39-.636.678.678,0,0,1,.8-.246.763.763,0,0,1,.271.788,2.911,2.911,0,0,1-.212.712,3.583,3.583,0,0,1-.712,1.017,4.184,4.184,0,0,1-.636.542.848.848,0,0,1-.263.152,7.225,7.225,0,0,0,.8-.788,3.712,3.712,0,0,0,.644-.992,2.449,2.449,0,0,0,.195-.669c0-.22,0-.5-.178-.593a.457.457,0,0,0-.559.212,2.789,2.789,0,0,0-.373.576,5.015,5.015,0,0,0-.339,1.144A8.67,8.67,0,0,1,534.928,444.979Z" class="cls-5" data-name="Path 601" transform="translate(-384.146 -167.861)"/><g id="Group_92" class="cls-11" data-name="Group 92" transform="translate(142.367 275.211)"><path id="Path_602" d="M525.695,446.235,525,443.32s2.432.449,3.059,2.271a7.526,7.526,0,0,1,.475,3.11l5.288,5.695s1.322-2.593,3.72-1.966c0,0,1.89,4.152,1.83,5.195s-1.263.915-1.695.72a21.581,21.581,0,0,1-4.729-3.737,109.51,109.51,0,0,1-7.254-8.373Z" data-name="Path 602" transform="translate(-525 -443.32)"/></g><path id="Path_603" d="M464.093,441.731l-.042-8.084,15.152-.186.186,11.864-.932.076c-4.186.28-21.27,1.144-24.075.331C451.255,444.79,464.093,441.731,464.093,441.731Z" class="cls-10" data-name="Path 603" transform="translate(-371.783 -166.604)"/><g id="Group_93" class="cls-11" data-name="Group 93" transform="translate(102.114 274.229)"><path id="Path_604" d="M477.5,446.567a5.313,5.313,0,0,1,1.89-3.254,5.161,5.161,0,0,1,3.534-1.144l.051,4.237Z" data-name="Path 604" transform="translate(-477.5 -442.161)"/></g><path id="Path_605" d="M457.815,445.25s-4.491,1.356-3.924,2.093,17.872.517,25.49-.254v-.33l-20.177.424S458.7,445.275,457.815,445.25Z" class="cls-12" data-name="Path 605" transform="translate(-371.776 -168.403)"/><path id="Path_606" d="M479.6,447h-.263l-.746.051-2.754.152c-2.322.119-5.534.229-9.084.28s-6.779,0-9.1,0l-2.754-.076h11.847c3.551,0,6.779-.144,9.093-.22l2.72-.186H479.6Z" class="cls-5" data-name="Path 606" transform="translate(-371.783 -168.67)"/><path id="Path_607" d="M459.883,447.381a6.435,6.435,0,0,0-.534-1.305A5.773,5.773,0,0,0,458.4,445a2.025,2.025,0,0,1,1.11.941A2.068,2.068,0,0,1,459.883,447.381Z" class="cls-5" data-name="Path 607" transform="translate(-372.471 -168.365)"/><path id="Path_608" d="M465.242,444.844a2.014,2.014,0,0,1-.483-.576c-.22-.339-.373-.653-.331-.678s.254.229.483.576S465.285,444.785,465.242,444.844Z" class="cls-5" data-name="Path 608" transform="translate(-373.39 -168.149)"/><path id="Path_609" d="M466.657,444.128c0,.042-.271-.119-.542-.347s-.449-.449-.415-.492.271.119.542.356S466.691,444.094,466.657,444.128Z" class="cls-5" data-name="Path 609" transform="translate(-373.584 -168.103)"/><path id="Path_610" d="M467.577,442.515a1.737,1.737,0,0,1-.788.11.4.4,0,1,1,.788-.11Z" class="cls-5" data-name="Path 610" transform="translate(-373.75 -167.931)"/><path id="Path_611" d="M467.684,441.39a1.568,1.568,0,0,1-.847.263,1.458,1.458,0,0,1-.907-.11,5.083,5.083,0,0,1,.9-.068A4.623,4.623,0,0,1,467.684,441.39Z" class="cls-5" data-name="Path 611" transform="translate(-373.62 -167.814)"/><path id="Path_612" d="M464.254,443.269a2.541,2.541,0,0,1-.974,0,6.326,6.326,0,0,1-1.042-.212,3.1,3.1,0,0,1-.593-.237.5.5,0,0,1-.246-.305.4.4,0,0,1,.136-.39,1.788,1.788,0,0,1,2.22.5,1.62,1.62,0,0,1,.322.644.619.619,0,0,1,0,.263,2.889,2.889,0,0,0-.458-.848,1.762,1.762,0,0,0-.847-.525,1.5,1.5,0,0,0-1.161.093c-.153.119-.085.3.085.4a3.148,3.148,0,0,0,.551.229,7.492,7.492,0,0,0,1.008.246C463.881,443.244,464.246,443.244,464.254,443.269Z" class="cls-5" data-name="Path 612" transform="translate(-372.928 -167.897)"/><path id="Path_613" d="M464.447,443.23a1.046,1.046,0,0,1-.119-.669,1.542,1.542,0,0,1,.254-.72.966.966,0,0,1,.805-.5.39.39,0,0,1,.305.441,1.136,1.136,0,0,1-.161.441,3.273,3.273,0,0,1-.449.593c-.305.305-.542.424-.559.4s.195-.169.458-.483a3,3,0,0,0,.4-.593c.136-.2.22-.576,0-.619s-.483.229-.636.424a1.7,1.7,0,0,0-.263.636,3.914,3.914,0,0,0-.034.653Z" class="cls-5" data-name="Path 613" transform="translate(-373.375 -167.806)"/><path id="Path_614" d="M482.84,442.1s-.432,0-1.119.059a4.737,4.737,0,0,0-3.924,3.212c-.229.653-.246,1.085-.28,1.085a.951.951,0,0,1,0-.305,4.016,4.016,0,0,1,.153-.847,4.61,4.61,0,0,1,4.042-3.3,4.228,4.228,0,0,1,.847,0,1.088,1.088,0,0,1,.28.1Z" class="cls-5" data-name="Path 614" transform="translate(-375.386 -167.903)"/><path id="Path_615" d="M481.857,434.71a28.657,28.657,0,0,1,.17,3.11,26.057,26.057,0,0,1,0,3.11,51.97,51.97,0,0,1-.153-6.22Z" class="cls-5" data-name="Path 615" transform="translate(-376.048 -166.795)"/><path id="Path_616" d="M474.432,445.648a8.96,8.96,0,0,1-2.212.246,8.6,8.6,0,0,1-2.22-.152c0-.051,1,0,2.22,0S474.424,445.6,474.432,445.648Z" class="cls-5" data-name="Path 616" transform="translate(-374.241 -168.462)"/><path id="Path_617" d="M478.653,445.6s-.076.212-.178.441-.152.424-.2.424-.076-.237,0-.5S478.619,445.565,478.653,445.6Z" class="cls-5" data-name="Path 617" transform="translate(-375.496 -168.455)"/><path id="Path_618" d="M479.9,443.939a1.007,1.007,0,0,1-.212.356c-.152.161-.314.263-.347.229s.059-.195.212-.356S479.9,443.9,479.9,443.939Z" class="cls-5" data-name="Path 618" transform="translate(-375.665 -168.202)"/><path id="Path_619" d="M481.754,443.146c0,.051-.212.051-.432.136s-.381.2-.424.169.085-.246.364-.339S481.771,443.1,481.754,443.146Z" class="cls-5" data-name="Path 619" transform="translate(-375.903 -168.07)"/><path id="Path_620" d="M483.169,442.784c0,.051-.068.127-.195.178s-.237.051-.254,0,.068-.127.186-.178S483.152,442.741,483.169,442.784Z" class="cls-5" data-name="Path 620" transform="translate(-376.182 -168.021)"/><path id="Path_621" d="M453.76,253.66l7.076,157.154,23.592.492-3.915-131.562,26.533,132.571h22.44L499.521,253.66" class="cls-5" data-name="Path 621" transform="translate(-371.763 -139.171)"/><path id="Path_622" d="M515.27,438.18l.534,2.322,23.067.314-.356-3.635Z" class="cls-9" data-name="Path 622" transform="translate(-381.149 -167.172)"/><path id="Path_623" d="M485.111,438.08c.136,0,.254.3.28.686s-.076.7-.212.712-.254-.3-.28-.686S484.984,438.08,485.111,438.08Z" class="cls-9" data-name="Path 623" transform="translate(-376.514 -167.309)"/><path id="Path_624" d="M484.836,431.36c.135,0,.271.627.3,1.415s-.051,1.432-.186,1.432-.271-.627-.3-1.415S484.7,431.368,484.836,431.36Z" class="cls-9" data-name="Path 624" transform="translate(-376.476 -166.284)"/><path id="Path_625" d="M484.633,424.64c.136,0,.263.636.288,1.424s-.068,1.424-.2,1.424-.263-.627-.288-1.415S484.5,424.648,484.633,424.64Z" class="cls-9" data-name="Path 625" transform="translate(-376.442 -165.258)"/><path id="Path_626" d="M484.471,417.92c.136,0,.254.636.28,1.415s-.076,1.432-.212,1.432-.263-.627-.28-1.415S484.336,417.92,484.471,417.92Z" class="cls-9" data-name="Path 626" transform="translate(-376.417 -164.233)"/><path id="Path_627" d="M484.311,411.19c.127,0,.254.636.271,1.424s-.068,1.424-.2,1.432-.263-.636-.28-1.424S484.176,411.2,484.311,411.19Z" class="cls-9" data-name="Path 627" transform="translate(-376.392 -163.206)"/><path id="Path_628" d="M484.123,404.47c.127,0,.263.627.28,1.415s-.059,1.432-.195,1.432-.263-.627-.288-1.415S483.987,404.47,484.123,404.47Z" class="cls-9" data-name="Path 628" transform="translate(-376.364 -162.181)"/><path id="Path_629" d="M483.865,397.75c.127,0,.271.627.305,1.407s-.051,1.432-.186,1.441-.271-.627-.305-1.415S483.729,397.75,483.865,397.75Z" class="cls-9" data-name="Path 629" transform="translate(-376.327 -161.156)"/><path id="Path_630" d="M483.585,391c.136,0,.271.627.305,1.415s-.059,1.424-.186,1.432-.271-.627-.305-1.415S483.45,391,483.585,391Z" class="cls-9" data-name="Path 630" transform="translate(-376.284 -160.126)"/><path id="Path_631" d="M483.344,384.31c.136,0,.263.627.3,1.415s-.059,1.424-.195,1.432-.271-.627-.3-1.415S483.208,384.31,483.344,384.31Z" class="cls-9" data-name="Path 631" transform="translate(-376.247 -159.105)"/><path id="Path_632" d="M483.133,377.59c.127,0,.263.627.28,1.415s-.059,1.424-.195,1.432-.263-.636-.288-1.415S482.988,377.59,483.133,377.59Z" class="cls-9" data-name="Path 632" transform="translate(-376.213 -158.08)"/><path id="Path_633" d="M482.961,370.87c.127,0,.254.627.28,1.415s-.076,1.424-.212,1.432-.263-.636-.28-1.415S482.817,370.87,482.961,370.87Z" class="cls-9" data-name="Path 633" transform="translate(-376.186 -157.054)"/><path id="Path_634" d="M482.8,364.14c.136,0,.254.636.271,1.424s-.076,1.424-.212,1.432-.263-.636-.271-1.424S482.666,364.148,482.8,364.14Z" class="cls-9" data-name="Path 634" transform="translate(-376.162 -156.027)"/><path id="Path_635" d="M482.688,357.42c.127,0,.254.636.263,1.424s-.085,1.424-.22,1.424-.254-.627-.271-1.415S482.553,357.42,482.688,357.42Z" class="cls-9" data-name="Path 635" transform="translate(-376.142 -155.002)"/><path id="Path_636" d="M482.609,350.7c.136,0,.246.636.254,1.424s-.093,1.424-.229,1.424-.246-.636-.254-1.424S482.473,350.7,482.609,350.7Z" class="cls-9" data-name="Path 636" transform="translate(-376.13 -153.977)"/><path id="Path_637" d="M482.567,344c.136,0,.246.644.246,1.424s-.1,1.432-.237,1.432-.246-.636-.246-1.424S482.432,344,482.567,344Z" class="cls-9" data-name="Path 637" transform="translate(-376.123 -152.954)"/><path id="Path_638" d="M482.556,337.25c.136,0,.246.636.246,1.424s-.11,1.424-.246,1.424-.246-.636-.246-1.424S482.42,337.25,482.556,337.25Z" class="cls-9" data-name="Path 638" transform="translate(-376.12 -151.925)"/><path id="Path_639" d="M482.586,330.53c.135,0,.246.636.237,1.424s-.119,1.424-.254,1.424-.237-.644-.229-1.424S482.45,330.53,482.586,330.53Z" class="cls-9" data-name="Path 639" transform="translate(-376.124 -150.899)"/><path id="Path_640" d="M482.653,323.8c.136,0,.237.644.229,1.432s-.127,1.424-.263,1.415-.237-.636-.229-1.424S482.517,323.8,482.653,323.8Z" class="cls-9" data-name="Path 640" transform="translate(-376.132 -149.872)"/><path id="Path_641" d="M482.761,317.08c.136,0,.229.644.22,1.432s-.136,1.415-.271,1.415-.229-.644-.22-1.424S482.625,317.08,482.761,317.08Z" class="cls-9" data-name="Path 641" transform="translate(-376.147 -148.847)"/><path id="Path_642" d="M482.891,310.35c.136,0,.237.644.22,1.432s-.144,1.424-.28,1.424-.229-.644-.212-1.432S482.764,310.35,482.891,310.35Z" class="cls-9" data-name="Path 642" transform="translate(-376.167 -147.82)"/><path id="Path_643" d="M483.092,303.63c.136,0,.22.644.195,1.432s-.161,1.424-.322,1.424-.22-.644-.186-1.432S482.965,303.621,483.092,303.63Z" class="cls-9" data-name="Path 643" transform="translate(-376.19 -146.795)"/><path id="Path_644" d="M483.448,296.91c.136,0,.2.652.153,1.432s-.195,1.415-.322,1.415-.212-.652-.161-1.441S483.312,296.9,483.448,296.91Z" class="cls-9" data-name="Path 644" transform="translate(-376.24 -145.77)"/><path id="Path_645" d="M484.025,290.21c.136,0,.178.661.1,1.441s-.246,1.407-.381,1.39-.178-.652-.1-1.441S483.889,290.193,484.025,290.21Z" class="cls-9" data-name="Path 645" transform="translate(-376.317 -144.747)"/><path id="Path_646" d="M484.675,285.23c.127,0,.195.347.144.737s-.212.678-.347.661-.2-.347-.136-.737S484.539,285.213,484.675,285.23Z" class="cls-9" data-name="Path 646" transform="translate(-376.425 -143.987)"/><path id="Path_647" d="M461.38,439.334l24.957.407-.195-4.161-24.762.136Z" class="cls-9" data-name="Path 647" transform="translate(-372.926 -166.928)"/><path id="Path_648" d="M537.543,435.67c.127,0,.288.271.347.652s0,.712-.127.737-.288-.271-.347-.661S537.407,435.7,537.543,435.67Z" class="cls-9" data-name="Path 648" transform="translate(-384.524 -166.941)"/><path id="Path_649" d="M536.493,429.22c.136,0,.347.576.466,1.33s.119,1.381,0,1.407-.339-.576-.466-1.331S536.366,429.245,536.493,429.22Z" class="cls-9" data-name="Path 649" transform="translate(-384.372 -165.957)"/><path id="Path_650" d="M535.432,422.78c.136,0,.339.568.466,1.322s.119,1.39,0,1.407-.339-.568-.466-1.322S535.3,422.805,535.432,422.78Z" class="cls-9" data-name="Path 650" transform="translate(-384.21 -164.975)"/><path id="Path_651" d="M534.362,416.34c.127,0,.339.568.466,1.322s.119,1.381,0,1.407-.339-.576-.466-1.322S534.227,416.357,534.362,416.34Z" class="cls-9" data-name="Path 651" transform="translate(-384.047 -163.992)"/><path id="Path_652" d="M533.273,409.9c.136,0,.347.568.475,1.322s.119,1.381,0,1.407-.339-.576-.466-1.33S533.137,409.917,533.273,409.9Z" class="cls-9" data-name="Path 652" transform="translate(-383.881 -163.009)"/><path id="Path_653" d="M532.18,403.46c.127,0,.339.568.475,1.322s.119,1.381,0,1.407-.347-.576-.475-1.33S532.01,403.477,532.18,403.46Z" class="cls-9" data-name="Path 653" transform="translate(-383.711 -162.027)"/><path id="Path_654" d="M531.073,397c.136,0,.347.568.475,1.322s.127,1.381,0,1.407-.347-.568-.475-1.322S530.946,397.042,531.073,397Z" class="cls-9" data-name="Path 654" transform="translate(-383.545 -161.041)"/><path id="Path_655" d="M529.981,390.58c.136,0,.347.568.475,1.322s.127,1.381,0,1.407-.347-.568-.475-1.322S529.828,390.605,529.981,390.58Z" class="cls-9" data-name="Path 655" transform="translate(-383.377 -160.062)"/><path id="Path_656" d="M528.841,384.15c.127,0,.347.568.475,1.322s.135,1.381,0,1.407-.348-.568-.483-1.322S528.705,384.175,528.841,384.15Z" class="cls-9" data-name="Path 656" transform="translate(-383.203 -159.081)"/><path id="Path_657" d="M527.7,377.72c.135,0,.347.568.483,1.314s.136,1.39,0,1.407-.348-.568-.483-1.313S527.566,377.737,527.7,377.72Z" class="cls-9" data-name="Path 657" transform="translate(-383.03 -158.099)"/><path id="Path_658" d="M526.562,371.29c.127,0,.347.568.483,1.314s.136,1.381,0,1.407-.348-.568-.483-1.322S526.426,371.307,526.562,371.29Z" class="cls-9" data-name="Path 658" transform="translate(-382.856 -157.118)"/><path id="Path_659" d="M525.4,364.86c.136,0,.356.568.492,1.314s.136,1.381,0,1.407-.347-.568-.483-1.313S525.276,364.885,525.4,364.86Z" class="cls-9" data-name="Path 659" transform="translate(-382.68 -156.137)"/><path id="Path_660" d="M524.242,358.43c.127,0,.347.568.483,1.322s.144,1.381,0,1.4-.347-.559-.483-1.313S524.106,358.455,524.242,358.43Z" class="cls-9" data-name="Path 660" transform="translate(-382.502 -155.156)"/><path id="Path_661" d="M523.063,352c.135,0,.356.559.491,1.314s.144,1.381,0,1.407-.347-.568-.483-1.322S522.936,352,523.063,352Z" class="cls-9" data-name="Path 661" transform="translate(-382.323 -154.175)"/><path id="Path_662" d="M521.881,345.58c.135,0,.356.568.492,1.322s.144,1.373,0,1.4-.347-.559-.492-1.314S521.746,345.605,521.881,345.58Z" class="cls-9" data-name="Path 662" transform="translate(-382.141 -153.196)"/><path id="Path_663" d="M520.691,339.16c.127,0,.347.568.491,1.314s.144,1.381,0,1.407-.347-.559-.491-1.313S520.555,339.185,520.691,339.16Z" class="cls-9" data-name="Path 663" transform="translate(-381.96 -152.216)"/><path id="Path_664" d="M519.482,332.74c.136,0,.356.568.5,1.314s.144,1.381,0,1.407-.347-.559-.492-1.314S519.355,332.765,519.482,332.74Z" class="cls-9" data-name="Path 664" transform="translate(-381.776 -151.236)"/><path id="Path_665" d="M518.27,326.32c.127,0,.356.568.492,1.314s.153,1.381,0,1.407-.356-.559-.5-1.313S518.135,326.345,518.27,326.32Z" class="cls-9" data-name="Path 665" transform="translate(-381.59 -150.257)"/><path id="Path_666" d="M517.042,319.91c.136,0,.356.559.5,1.313s.153,1.381,0,1.407-.356-.568-.5-1.314S516.914,319.935,517.042,319.91Z" class="cls-9" data-name="Path 666" transform="translate(-381.403 -149.279)"/><path id="Path_667" d="M515.81,313.49c.127,0,.356.568.5,1.313s.153,1.381,0,1.407-.356-.559-.508-1.314S515.674,313.515,515.81,313.49Z" class="cls-9" data-name="Path 667" transform="translate(-381.214 -148.299)"/><path id="Path_668" d="M514.561,307.08c.136,0,.364.559.508,1.314s.153,1.381,0,1.407-.356-.559-.508-1.313S514.434,307.105,514.561,307.08Z" class="cls-9" data-name="Path 668" transform="translate(-381.024 -147.321)"/><path id="Path_669" d="M513.311,300.67c.136,0,.356.559.508,1.314s.153,1.381,0,1.407-.364-.568-.508-1.313S513.175,300.7,513.311,300.67Z" class="cls-9" data-name="Path 669" transform="translate(-380.834 -146.343)"/><path id="Path_670" d="M512.042,294.26c.135,0,.364.568.508,1.314s.161,1.381,0,1.407-.364-.559-.508-1.313S511.915,294.294,512.042,294.26Z" class="cls-9" data-name="Path 670" transform="translate(-380.64 -145.365)"/><path id="Path_671" d="M510.771,287.86c.136,0,.364.559.508,1.305s.161,1.381,0,1.407-.364-.559-.508-1.305S510.635,287.885,510.771,287.86Z" class="cls-9" data-name="Path 671" transform="translate(-380.446 -144.389)"/><path id="Path_672" d="M509.491,281.45c.127,0,.356.559.508,1.314s.169,1.373,0,1.407-.364-.559-.508-1.313S509.355,281.484,509.491,281.45Z" class="cls-9" data-name="Path 672" transform="translate(-380.251 -143.411)"/><path id="Path_673" d="M508.191,275.05c.136,0,.364.559.517,1.314s.17,1.373,0,1.4-.364-.559-.517-1.3S508.064,275.075,508.191,275.05Z" class="cls-9" data-name="Path 673" transform="translate(-380.052 -142.434)"/><path id="Path_674" d="M507.2,270.23c.127,0,.3.254.381.636s0,.712-.1.737-.305-.254-.381-.636S507.069,270.255,507.2,270.23Z" class="cls-9" data-name="Path 674" transform="translate(-379.897 -141.699)"/><path id="Path_675" d="M406.1,154.562s-17.177,12.711-11.864,31.982,17.465,21.313,23.389,23.728,20.135,6.508,26.948,15.389l22.8-17.465a76.269,76.269,0,0,1-8.881-28.423c-1.78-16.584-8.881-24.279-14.508-27.829S422.972,140.665,406.1,154.562Z" class="cls-13" data-name="Path 675" transform="translate(-362.526 -122.832)"/><path id="Path_676" d="M462.043,217.283l-.331-.305-.958-.932-3.644-3.61c-3.127-3.161-7.686-7.72-12.932-13.72-1.3-1.508-2.652-3.093-4.008-4.8s-2.771-3.457-4.068-5.423a19.05,19.05,0,0,1-2.949-6.661,10.754,10.754,0,0,1,1.119-7.576,7.254,7.254,0,0,1,7.084-3.39A5.441,5.441,0,0,1,445,173.005a6.915,6.915,0,0,1,1.263,4.135,9.44,9.44,0,0,1-1.1,4.237,18.142,18.142,0,0,1-2.542,3.635,51.174,51.174,0,0,1-6.576,6.178,52.12,52.12,0,0,1-7.5,5.017,16.822,16.822,0,0,1-4.169,1.551,10.949,10.949,0,0,1-4.39.085,8.22,8.22,0,0,1-3.915-1.822,6.381,6.381,0,0,1-2.093-3.678,5.711,5.711,0,0,1,.661-4.085,5.085,5.085,0,0,1,3.39-2.254,7.627,7.627,0,0,1,3.949.263,10.414,10.414,0,0,1,3.322,1.941,43.05,43.05,0,0,1,4.89,5.39l8.279,10.042,11.949,14.533c1.4,1.695,2.491,3.042,3.237,3.966l.847,1.042c.186.237.271.364.271.364s-.11-.11-.305-.339l-.847-1.008-3.3-3.915-12.084-14.474-8.389-9.957a42.661,42.661,0,0,0-4.856-5.33,10.17,10.17,0,0,0-3.186-1.864,7.2,7.2,0,0,0-3.746-.237,4.678,4.678,0,0,0-3.085,2.076,5.279,5.279,0,0,0-.6,3.788,5.983,5.983,0,0,0,1.958,3.432,7.838,7.838,0,0,0,3.72,1.695,12.712,12.712,0,0,0,8.271-1.6,51.437,51.437,0,0,0,7.432-4.974,50.256,50.256,0,0,0,6.517-6.118,17.533,17.533,0,0,0,2.5-3.542,8.932,8.932,0,0,0,1.059-4.051,6.559,6.559,0,0,0-1.169-3.881,4.966,4.966,0,0,0-3.39-1.966,6.839,6.839,0,0,0-6.678,3.212,10.39,10.39,0,0,0-1.085,7.3,18.585,18.585,0,0,0,2.873,6.525c1.271,1.949,2.686,3.712,4.025,5.415s2.695,3.3,3.983,4.8c5.2,6.017,9.728,10.61,12.821,13.8L460.789,216l.924.958A2.655,2.655,0,0,1,462.043,217.283Z" class="cls-5" data-name="Path 676" transform="translate(-365.674 -126.53)"/><path id="Path_677" d="M453.53,236.3l22.719-17.745,11.22,14.33-.644,13.016-8.525,7.042-14.211-3.271Z" class="cls-1" data-name="Path 677" transform="translate(-371.728 -133.814)"/><path id="Path_678" d="M491.261,250.8a7.779,7.779,0,0,0-6.017,1.619,7.626,7.626,0,0,0-2.644,5.568Z" class="cls-9" data-name="Path 678" transform="translate(-376.164 -138.722)"/><path id="Path_679" d="M487.9,234.61a7.083,7.083,0,0,1-1.11.271,30.574,30.574,0,0,0-2.975.8,27.965,27.965,0,0,0-15.584,12.3c-.67,1.119-1.153,2.059-1.466,2.72a5.862,5.862,0,0,1-.517,1.008,5.146,5.146,0,0,1,.364-1.085,22.307,22.307,0,0,1,1.347-2.8,26.583,26.583,0,0,1,15.762-12.449,23.786,23.786,0,0,1,3.042-.661,5.369,5.369,0,0,1,1.136-.1Z" class="cls-5" data-name="Path 679" transform="translate(-373.669 -136.264)"/><path id="Path_680" d="M484.792,230.42a6.047,6.047,0,0,1-1.11.271,30.56,30.56,0,0,0-2.974.8,27.914,27.914,0,0,0-15.584,12.3c-.669,1.11-1.152,2.051-1.466,2.712a5.857,5.857,0,0,1-.517,1.008,5.008,5.008,0,0,1,.364-1.076,22.331,22.331,0,0,1,1.347-2.8,26.524,26.524,0,0,1,15.762-12.44,22.669,22.669,0,0,1,3.042-.669A5.372,5.372,0,0,1,484.792,230.42Z" class="cls-5" data-name="Path 680" transform="translate(-373.195 -135.625)"/><path id="Path_681" d="M481.592,226.62a6.05,6.05,0,0,1-1.11.271,30.562,30.562,0,0,0-2.974.8,27.914,27.914,0,0,0-15.584,12.3c-.669,1.11-1.152,2.051-1.466,2.712a5.858,5.858,0,0,1-.517,1.008,5.01,5.01,0,0,1,.364-1.076,21.767,21.767,0,0,1,1.347-2.8,26.584,26.584,0,0,1,15.762-12.449,23.786,23.786,0,0,1,3.042-.661,5.372,5.372,0,0,1,1.136-.1Z" class="cls-5" data-name="Path 681" transform="translate(-372.706 -135.045)"/><g id="Group_94" class="cls-14" data-name="Group 94" transform="translate(33.656 39.879)"><path id="Path_682" d="M425.167,207.914c-.051.593-.9,1.127-2.483,1.4a16.287,16.287,0,0,1-6.686-.525,24.949,24.949,0,0,1-8.991-4.568,26.592,26.592,0,0,1-10.262-22.253,25.077,25.077,0,0,1,2.373-9.8,16.2,16.2,0,0,1,3.941-5.423c1.237-1.034,2.186-1.33,2.669-.983,1.042.763-.068,3.754-.661,8.279a33.9,33.9,0,0,0-.186,7.8,25.863,25.863,0,0,0,7.508,16.313,34.261,34.261,0,0,0,6.051,4.915C422.261,205.533,425.26,206.618,425.167,207.914Z" class="cls-7" data-name="Path 682" transform="translate(-396.716 -165.616)"/></g><g id="Group_95" class="cls-14" data-name="Group 95" transform="translate(68.117 82.866)"><path id="Path_683" d="M444.871,218.213a4.034,4.034,0,1,1-5.847-1.169,4.237,4.237,0,0,1,5.847,1.169Z" class="cls-7" data-name="Path 683" transform="translate(-437.381 -216.343)"/></g><path id="Path_684" d="M377.143,186.86c0,.119-4.508.22-10.076.22S357,186.945,357,186.86s4.508-.22,10.076-.22S377.143,186.733,377.143,186.86Z" class="cls-5" data-name="Path 684" transform="translate(-357 -128.945)"/><path id="Path_685" d="M378.949,174.6a60.379,60.379,0,0,1-10.059-2.542,30.416,30.416,0,0,1,5.085,1.042A30.838,30.838,0,0,1,378.949,174.6Z" class="cls-5" data-name="Path 685" transform="translate(-358.814 -126.72)"/><path id="Path_686" d="M388.957,162.039c-.068.1-3.686-2.263-8.076-5.262s-7.889-5.525-7.822-5.627,3.678,2.254,8.076,5.262A95.415,95.415,0,0,1,388.957,162.039Z" class="cls-5" data-name="Path 686" transform="translate(-359.45 -123.529)"/><path id="Path_687" d="M403.353,147.991a25.294,25.294,0,0,1-3.449-3.144,23.87,23.87,0,0,1-3.144-3.457,25.291,25.291,0,0,1,3.449,3.144A23.725,23.725,0,0,1,403.353,147.991Z" class="cls-5" data-name="Path 687" transform="translate(-363.066 -122.041)"/><path id="Path_688" d="M421.878,139.353c-.119.051-2.034-4.517-4.288-10.169s-3.991-10.322-3.881-10.364,2.034,4.517,4.288,10.169S421.988,139.311,421.878,139.353Z" class="cls-5" data-name="Path 688" transform="translate(-365.652 -118.597)"/><path id="Path_689" d="M440.485,137.875a31.742,31.742,0,0,1-.568-5.195,31.007,31.007,0,0,1-.127-5.22,31.755,31.755,0,0,1,.568,5.195,31.01,31.01,0,0,1,.127,5.22Z" class="cls-5" data-name="Path 689" transform="translate(-369.623 -119.915)"/><path id="Path_690" d="M457.46,122.1c.119,0-1.152,4.508-2.839,9.983s-3.144,9.9-3.263,9.864,1.161-4.508,2.839-9.991S457.35,122.066,457.46,122.1Z" class="cls-5" data-name="Path 690" transform="translate(-371.396 -119.097)"/><path id="Path_691" d="M515.288,206l-13.559,8.525,2.195,5.762L473.586,232.77l-8.3.381-6.127-1.136s-.534.712.491,1.8a8.754,8.754,0,0,0,3.229,1.517l-4.585,4.144,5.932,7.534L484.56,242.1c11.262-1.915,38.083-7.288,38.185-15.118C522.855,219.923,515.288,206,515.288,206Z" class="cls-6" data-name="Path 691" transform="translate(-372.455 -131.899)"/><path id="Path_692" d="M396.61,189.419c.314-.924,1.076-1.585,1.907-1.144h0a1.466,1.466,0,0,1,.28,1.424l-2.661,8.652h0l2.542-6.118c.314-.924,1.153-1.483,1.695-.983a1.543,1.543,0,0,1,.2,1.407l-2.28,7.229,1.864-4.483c.39-1.025.847-1.3,1.373-1.076s.534.983.407,1.381l-1.585,5.3c.347,1.017,1.517,4.237.39,6.025-.059.093.11.39.11.492l.534.61-3.449,3.254c-1.788-1.585-3.432-8.245-3.949-10.771a8.008,8.008,0,0,1,.186-4.322Z" class="cls-6" data-name="Path 692" transform="translate(-362.612 -129.173)"/></g><g id="freepik--character-1--inject-372" transform="translate(216.885 115.329)"><path id="Path_693" d="M280.14,443.531v-1.3l-14.152-.695-.068,5.347.847.059c3.881.246,19.736.991,22.338.229C292.063,446.319,280.14,443.531,280.14,443.531Z" class="cls-10" data-name="Path 693" transform="translate(-246.514 -172.209)"/><g id="Group_96" class="cls-15" data-name="Group 96" transform="translate(19.473 270.555)"><path id="Path_694" d="M271.085,447.04a4.906,4.906,0,0,0-1.771-3.017A4.745,4.745,0,0,0,266,443v3.932Z" class="cls-7" data-name="Path 694" transform="translate(-266 -442.985)"/></g><path id="Path_695" d="M285.968,445.74s4.178,1.246,3.652,1.932-16.584.534-23.66-.144v-.314l18.72.331S285.146,445.765,285.968,445.74Z" class="cls-16" data-name="Path 695" transform="translate(-246.52 -172.85)"/><path id="Path_696" d="M265.73,447.46a1.153,1.153,0,0,0,.246,0l.695.042,2.542.136c2.161.1,5.135.195,8.432.229s6.279,0,8.474-.059l2.542-.085h.695a.842.842,0,0,0,.237,0H277.687c-3.288,0-6.279-.11-8.474-.178l-2.542-.085h-.941Z" class="cls-5" data-name="Path 696" transform="translate(-246.485 -173.112)"/><path id="Path_697" d="M288.076,447.726a5.556,5.556,0,0,1,.483-1.212,6.655,6.655,0,0,1,.847-.975,1.932,1.932,0,0,0-1.025.847,1.89,1.89,0,0,0-.305,1.339Z" class="cls-5" data-name="Path 697" transform="translate(-249.892 -172.819)"/><path id="Path_698" d="M283.209,445.389a3.019,3.019,0,0,0,.441-.542c.2-.322.347-.6.305-.627s-.237.22-.441.534S283.166,445.364,283.209,445.389Z" class="cls-5" data-name="Path 698" transform="translate(-249.151 -172.618)"/><path id="Path_699" d="M281.869,444.729a2.2,2.2,0,0,0,.5-.322c.246-.212.415-.424.381-.458s-.254.11-.5.33S281.835,444.695,281.869,444.729Z" class="cls-5" data-name="Path 699" transform="translate(-248.947 -172.576)"/><path id="Path_700" d="M281,443.285a1.763,1.763,0,0,0,.737.1,1.542,1.542,0,0,0,.737-.076,1.848,1.848,0,0,0-.737-.093,1.611,1.611,0,0,0-.737.068Z" class="cls-5" data-name="Path 700" transform="translate(-248.815 -172.463)"/><path id="Path_701" d="M280.75,442.19a1.381,1.381,0,0,0,.847.246,1.424,1.424,0,0,0,.847-.1,4.232,4.232,0,0,0-.847-.068,5.4,5.4,0,0,0-.847-.076Z" class="cls-5" data-name="Path 701" transform="translate(-248.777 -172.308)"/><path id="Path_702" d="M283.78,443.927a2.424,2.424,0,0,0,.907,0,5.265,5.265,0,0,0,.958-.2,3.008,3.008,0,0,0,.559-.229.449.449,0,0,0,.22-.271.347.347,0,0,0-.127-.364,1.7,1.7,0,0,0-2.059.466,1.627,1.627,0,0,0-.3.6.353.353,0,0,0,0,.237,2.544,2.544,0,0,1,.415-.763,1.61,1.61,0,0,1,.78-.492,1.4,1.4,0,0,1,1.076.076c.144.11.085.28-.076.373a2.686,2.686,0,0,1-.508.212,6.561,6.561,0,0,1-.932.237C284.127,443.9,283.78,443.9,283.78,443.927Z" class="cls-5" data-name="Path 702" transform="translate(-249.239 -172.385)"/><path id="Path_703" d="M283.85,443.894a.958.958,0,0,0,.11-.627,1.484,1.484,0,0,0-.246-.661.847.847,0,0,0-.746-.466.356.356,0,0,0-.28.415,1.11,1.11,0,0,0,.144.4,2.821,2.821,0,0,0,.424.551,1.321,1.321,0,0,0,.517.373,5.27,5.27,0,0,1-.424-.449,2.6,2.6,0,0,1-.4-.559c-.127-.186-.2-.534,0-.576s.458.212.593.39a1.534,1.534,0,0,1,.254.593,4.915,4.915,0,0,1,.051.619Z" class="cls-5" data-name="Path 703" transform="translate(-249.072 -172.301)"/><path id="Path_704" d="M266.11,442.913s.407,0,1.042.042a4.491,4.491,0,0,1,2.254.958,4.55,4.55,0,0,1,1.4,2.008,9.569,9.569,0,0,1,.254,1.008v-.28a4.587,4.587,0,0,0-.144-.763,4.415,4.415,0,0,0-1.407-2.11,4.339,4.339,0,0,0-2.356-.941,4.424,4.424,0,0,0-.771,0C266.212,442.871,266.11,442.9,266.11,442.913Z" class="cls-5" data-name="Path 704" transform="translate(-246.543 -172.404)"/><path id="Path_705" d="M274.08,446.187a11.676,11.676,0,0,0,4.11.042c0-.051-.924,0-2.059,0S274.088,446.136,274.08,446.187Z" class="cls-5" data-name="Path 705" transform="translate(-247.759 -172.916)"/><path id="Path_706" d="M270.83,446.129s.076.195.161.407.144.4.195.4.076-.22,0-.466S270.864,446.1,270.83,446.129Z" class="cls-5" data-name="Path 706" transform="translate(-247.263 -172.908)"/><path id="Path_707" d="M269.62,444.6a.9.9,0,0,0,.195.331c.144.153.288.237.322.2s-.051-.178-.195-.322S269.654,444.565,269.62,444.6Z" class="cls-5" data-name="Path 707" transform="translate(-247.079 -172.675)"/><path id="Path_708" d="M267.87,443.867c0,.051.195.051.407.127s.347.186.39.152-.085-.229-.339-.314S267.861,443.825,267.87,443.867Z" class="cls-5" data-name="Path 708" transform="translate(-246.812 -172.553)"/><path id="Path_709" d="M266.63,443.535c0,.051.059.119.178.169s.22.042.237,0-.059-.119-.178-.161S266.647,443.493,266.63,443.535Z" class="cls-5" data-name="Path 709" transform="translate(-246.623 -172.509)"/><path id="Path_710" d="M300.024,444.2l.042-1.3-14.1-1.025-.195,5.347.847.076c3.864.347,19.7,1.458,22.321.754C311.871,447.278,300.024,444.2,300.024,444.2Z" class="cls-10" data-name="Path 710" transform="translate(-249.543 -172.261)"/><g id="Group_97" class="cls-15" data-name="Group 97" transform="translate(36.244 270.836)"><path id="Path_711" d="M290.866,447.5a4.856,4.856,0,0,0-1.695-3.051,4.745,4.745,0,0,0-3.254-1.127l-.127,3.924Z" class="cls-7" data-name="Path 711" transform="translate(-285.79 -443.316)"/></g><path id="Path_712" d="M305.8,446.64s4.144,1.339,3.6,2.017-16.584.144-23.643-.7v-.314l18.711.771S304.988,446.648,305.8,446.64Z" class="cls-16" data-name="Path 712" transform="translate(-249.541 -172.987)"/><path id="Path_713" d="M285.54,447.8h.237l.695.059,2.542.195c2.152.153,5.135.314,8.474.424s6.271.144,8.432.144h0c-2.152,0-5.135-.085-8.432-.195s-6.271-.254-8.423-.373l-2.542-.136h-.695Z" class="cls-5" data-name="Path 713" transform="translate(-249.508 -173.164)"/><path id="Path_714" d="M307.859,448.612a6.387,6.387,0,0,1,.517-1.2,6.061,6.061,0,0,1,.907-.949,1.89,1.89,0,0,0-1.042.847,1.924,1.924,0,0,0-.381,1.305Z" class="cls-5" data-name="Path 714" transform="translate(-252.912 -172.96)"/><path id="Path_715" d="M303.05,446.134a1.76,1.76,0,0,0,.466-.525c.22-.322.356-.593.314-.619s-.246.212-.458.525a1.628,1.628,0,0,0-.322.619Z" class="cls-5" data-name="Path 715" transform="translate(-252.179 -172.735)"/><path id="Path_716" d="M301.73,445.451a2.282,2.282,0,0,0,.508-.314c.246-.2.424-.407.4-.449s-.263.11-.508.314S301.7,445.417,301.73,445.451Z" class="cls-5" data-name="Path 716" transform="translate(-251.978 -172.688)"/><path id="Path_717" d="M300.94,443.988a1.745,1.745,0,0,0,.729.11,1.636,1.636,0,0,0,.737-.051,1.747,1.747,0,0,0-.729-.119A1.547,1.547,0,0,0,300.94,443.988Z" class="cls-5" data-name="Path 717" transform="translate(-251.858 -172.573)"/><path id="Path_718" d="M300.68,442.88a1.381,1.381,0,0,0,.847.263,1.314,1.314,0,0,0,.847-.085,5.415,5.415,0,0,0-.847-.085A5.482,5.482,0,0,0,300.68,442.88Z" class="cls-5" data-name="Path 718" transform="translate(-251.818 -172.414)"/><path id="Path_719" d="M303.66,444.692a2.38,2.38,0,0,0,.907,0,5.242,5.242,0,0,0,.966-.178,2.871,2.871,0,0,0,.559-.212.441.441,0,0,0,.229-.271.356.356,0,0,0-.119-.364,1.7,1.7,0,0,0-2.068.415,1.559,1.559,0,0,0-.314.593.543.543,0,0,0,0,.246,2.542,2.542,0,0,1,.441-.754,1.627,1.627,0,0,1,.788-.483,1.381,1.381,0,0,1,1.068.11c.144.11.085.28-.076.373a3.387,3.387,0,0,1-.517.195,6.247,6.247,0,0,1-.941.212C304.007,444.675,303.66,444.666,303.66,444.692Z" class="cls-5" data-name="Path 719" transform="translate(-252.273 -172.505)"/><path id="Path_720" d="M303.735,444.68a.924.924,0,0,0,.119-.627,1.39,1.39,0,0,0-.22-.669.915.915,0,0,0-.737-.483.364.364,0,0,0-.3.407,1.1,1.1,0,0,0,.144.407,2.545,2.545,0,0,0,.407.559,1.408,1.408,0,0,0,.508.39,5.132,5.132,0,0,1-.415-.466,3.454,3.454,0,0,1-.364-.551c-.119-.195-.186-.542.042-.576s.449.22.576.4a1.458,1.458,0,0,1,.237.6A3.962,3.962,0,0,1,303.735,444.68Z" class="cls-5" data-name="Path 720" transform="translate(-252.11 -172.417)"/><path id="Path_721" d="M286,443.257s.4,0,1.034.068a4.39,4.39,0,0,1,3.585,3.059c.195.61.2,1.017.237,1.008a.907.907,0,0,0,0-.28,3.605,3.605,0,0,0-.127-.763,4.28,4.28,0,0,0-3.686-3.144,3.281,3.281,0,0,0-.771,0,.764.764,0,0,0-.271.051Z" class="cls-5" data-name="Path 721" transform="translate(-249.578 -172.46)"/><path id="Path_722" d="M293.92,446.717a7.779,7.779,0,0,0,2.042.254,8.049,8.049,0,0,0,2.059-.11c0-.051-.924,0-2.051-.059A18.345,18.345,0,0,0,293.92,446.717Z" class="cls-5" data-name="Path 722" transform="translate(-250.786 -172.996)"/><path id="Path_723" d="M290.67,446.589s.068.195.153.407.136.407.178.407.085-.22,0-.466S290.7,446.555,290.67,446.589Z" class="cls-5" data-name="Path 723" transform="translate(-250.291 -172.979)"/><path id="Path_724" d="M289.49,445a.9.9,0,0,0,.195.339c.144.153.28.246.314.212s-.051-.178-.186-.331A.678.678,0,0,0,289.49,445Z" class="cls-5" data-name="Path 724" transform="translate(-250.111 -172.737)"/><path id="Path_725" d="M287.76,444.257c0,.051.195.051.4.136s.356.195.39.161-.076-.229-.331-.322S287.751,444.215,287.76,444.257Z" class="cls-5" data-name="Path 725" transform="translate(-249.847 -172.613)"/><path id="Path_726" d="M286.53,443.894c0,.042.059.119.17.169s.229.051.246,0-.059-.119-.178-.169S286.547,443.851,286.53,443.894Z" class="cls-5" data-name="Path 726" transform="translate(-249.659 -172.563)"/><path id="Path_727" d="M293.11,254.753s11.389,75.683,9.737,79.344-11.533,79.149-11.533,79.149L263,412.916s15.694-86.691,15.338-88.089S256.9,248.66,256.9,248.66Z" class="cls-17" data-name="Path 727" transform="translate(-245.138 -142.78)"/><path id="Path_728" d="M282.085,257.283,249.841,246.47l-1.127,2.669a33.049,33.049,0,0,0-.407,24.635l22.033,57.743a42.779,42.779,0,0,1,2.8,12.762l3.39,68.514,22.033,1.542S297,358.33,296.983,340.754c0-13.254-9.567-55.243-14.923-75.522" class="cls-17" data-name="Path 728" transform="translate(-243.494 -142.446)"/><path id="Path_729" d="M263.34,317.88a1.369,1.369,0,0,1,.127.254c.076.195.178.441.314.763.271.695.669,1.695,1.169,2.924,1.008,2.542,2.449,6.254,4.237,10.8s3.873,10.008,6.2,16.033a31.591,31.591,0,0,1,.847,4.932q.28,2.542.5,5.169c.288,3.508.525,7.144.737,10.872.847,14.923,1.195,28.44,1.458,38.227.093,4.873.178,8.822.229,11.584v4a1.735,1.735,0,0,1,0,.28,1.427,1.427,0,0,1,0-.28v-.847c0-.746-.059-1.8-.11-3.144-.093-2.771-.22-6.72-.373-11.584-.339-9.779-.771-23.3-1.585-38.21-.212-3.72-.441-7.364-.729-10.864-.136-1.754-.305-3.474-.492-5.152a31.931,31.931,0,0,0-.847-4.847c-2.3-6.042-4.373-11.483-6.11-16.1s-3.118-8.254-4.093-10.847l-1.093-2.957c-.119-.322-.2-.576-.271-.771A1.468,1.468,0,0,1,263.34,317.88Z" class="cls-5" data-name="Path 729" transform="translate(-246.121 -153.341)"/><path id="Path_730" d="M304.052,359.527a1.571,1.571,0,0,1,0-.254v-.746c0-.686,0-1.644-.042-2.864,0-2.542,0-6.1-.068-10.525v-7.271a23.721,23.721,0,0,0-.195-4.008c-.254-1.373-.509-2.78-.78-4.237-1.076-5.779-2.254-12.127-3.491-18.8-2.432-13.33-4.644-25.423-6.246-34.168-.771-4.356-1.4-7.881-1.839-10.364-.212-1.2-.364-2.144-.483-2.822-.051-.305-.085-.542-.11-.737a.953.953,0,0,1,0-.254,1.648,1.648,0,0,1,.068.246c.042.186.093.432.153.729.136.669.322,1.61.559,2.8.475,2.474,1.152,6,1.983,10.339,1.635,8.771,3.89,20.83,6.373,34.151,1.229,6.669,2.4,13.016,3.457,18.8.263,1.441.517,2.856.771,4.237a24.654,24.654,0,0,1,.169,4.068c0,2.61,0,5.042,0,7.271,0,4.424-.059,8.008-.076,10.525v3.61A1.058,1.058,0,0,1,304.052,359.527Z" class="cls-5" data-name="Path 730" transform="translate(-250.309 -144.888)"/><path id="Path_731" d="M292.958,256.46a3.253,3.253,0,0,1,.653,1.305,9.559,9.559,0,0,1-.381,6.915,3.39,3.39,0,0,1-.78,1.229,16.407,16.407,0,0,0,1.178-4.678,15.881,15.881,0,0,0-.669-4.771Z" class="cls-5" data-name="Path 731" transform="translate(-250.562 -143.97)"/><path id="Path_732" d="M269.5,254.34a1.863,1.863,0,0,1,0,.737,6.491,6.491,0,0,1-.483,1.949,7.4,7.4,0,0,1-1.695,2.474,7.212,7.212,0,0,1-3.195,1.8,7.127,7.127,0,0,1-3.669-.093,7.33,7.33,0,0,1-2.644-1.381,6.44,6.44,0,0,1-1.347-1.491,2.179,2.179,0,0,1-.331-.661A12.077,12.077,0,0,0,258,259.586a6.966,6.966,0,0,0,10.728-2.686,11.372,11.372,0,0,0,.771-2.559Z" class="cls-5" data-name="Path 732" transform="translate(-245.022 -143.646)"/><path id="Path_733" d="M269.011,124.48c-9.322,0-12.127,8.474-12.652,10.4a18.44,18.44,0,0,0-.195,5.932,11.035,11.035,0,0,1-.847,5.8c-1.958,3.542-7.271,4.779-8.093,8.745-.542,2.6,1.212,5.347.415,7.889-.678,2.169-2.991,3.39-3.991,5.457-1.161,2.373-.314,5.186.542,7.678.237.669.551,1.432,1.229,1.652a2.322,2.322,0,0,0,1.314-.1l18.237-5.042" class="cls-5" data-name="Path 733" transform="translate(-243.03 -123.833)"/><path id="Path_734" d="M353.618,219.084H357.2c3.263-.322,5.085-.373,6.008-1.237,1.22-1.161-.458-2.3-.458-2.3s2.364-.847,2.135-2.254c-.144-.983-1.271-1.093-1.271-1.093s2.085-.847,2.5-1.695c.559-1.186-.907-1.814-.907-1.814,2.839-1.754,2.585-3.491,1.924-3.661s-2.873.847-2.873.847c-1.873.534-6.983,2.093-5.085-.72s2.288-5.7,1.847-6.551a1.059,1.059,0,0,0-1.949.483,12.559,12.559,0,0,1-1.339,3.169,8.383,8.383,0,0,1-1.695,2.152c-.805.712-1.508,1.28-2.127,1.754l-3.195,3.085Z" class="cls-6" data-name="Path 734" transform="translate(-259.453 -135.067)"/><path id="Path_735" d="M366.725,210.19a7.879,7.879,0,0,1-1.593,1.093,16.1,16.1,0,0,1-1.881.949,10.176,10.176,0,0,1-1.186.415,1.984,1.984,0,0,1-.72.076,1.017,1.017,0,0,1-.729-.424,1.263,1.263,0,0,1,.246-1.483,6.151,6.151,0,0,1,1.017-.78l1.737-1.152a8.014,8.014,0,0,1,1.695-.975,8.292,8.292,0,0,1-1.483,1.229l-1.695,1.237a6.143,6.143,0,0,0-.924.729.847.847,0,0,0-.195.958c.161.263.593.271.974.17a9.4,9.4,0,0,0,1.136-.381,19.771,19.771,0,0,0,1.89-.847,9.464,9.464,0,0,1,1.712-.814Z" class="cls-8" data-name="Path 735" transform="translate(-260.941 -136.562)"/><path id="Path_736" d="M365.556,214.255a4.8,4.8,0,0,1-1.229.72l-1.4.678-.847.39a1.771,1.771,0,0,1-1.085.169.848.848,0,0,1-.525-.39.915.915,0,0,1-.076-.627,1.923,1.923,0,0,1,.559-.847,7.848,7.848,0,0,1,1.22-1,3.212,3.212,0,0,1,1.305-.619,10.012,10.012,0,0,1-1.127.847,9.772,9.772,0,0,0-1.1,1.025,1.619,1.619,0,0,0-.432.661.373.373,0,0,0,.3.491c.483.11,1.135-.314,1.644-.5l1.424-.585A4.541,4.541,0,0,1,365.556,214.255Z" class="cls-8" data-name="Path 736" transform="translate(-260.926 -137.298)"/><path id="Path_737" d="M364.463,217.585a3.169,3.169,0,0,1-1.347.847,6.823,6.823,0,0,1-1.695.475,1.508,1.508,0,0,1-1.119-.263,1,1,0,0,1-.364-.576.924.924,0,0,1,.153-.686,2.923,2.923,0,0,1,.9-.754l.847-.534c.559-.33,1.085-.6,1.525-.847a4.873,4.873,0,0,1,1.491-.576,6.778,6.778,0,0,1-1.347.847c-.415.246-.915.542-1.458.847l-.847.551a2.644,2.644,0,0,0-.771.636.483.483,0,0,0,.119.678,1.085,1.085,0,0,0,.805.195,7.236,7.236,0,0,0,1.627-.364C363.912,217.856,364.429,217.492,364.463,217.585Z" class="cls-8" data-name="Path 737" transform="translate(-260.857 -137.594)"/><path id="Path_738" d="M360.923,221.922a.28.28,0,0,1-.263,0,.78.78,0,0,1-.508-.508,1.186,1.186,0,0,1,.195-1.051,2.543,2.543,0,0,1,.941-.78,8.339,8.339,0,0,1,2.737-1.2,13.2,13.2,0,0,1-2.542,1.576,2.541,2.541,0,0,0-.847.644.983.983,0,0,0-.22.729C360.55,221.812,360.94,221.871,360.923,221.922Z" class="cls-8" data-name="Path 738" transform="translate(-260.885 -138.16)"/><path id="Path_739" d="M298.844,186.78s3.152,9.381,3.39,9.932c1.915,5.085,4.085,12.491,6.483,13.389s31.719-5.085,31.719-5.085l4.483,15.313s-23.507,8.525-36.219,8.373c-11.915-.144-15.321-1.5-19.491-11.118s-8.949-20.677-9.949-27.041" class="cls-18" data-name="Path 739" transform="translate(-248.55 -133.338)"/><path id="Path_740" d="M345.772,223.693a7,7,0,0,1-.695.305c-.449.195-1.136.458-2.017.788-1.763.644-4.339,1.508-7.567,2.449s-7.093,1.975-11.4,3.059a72.828,72.828,0,0,1-14.237,2.491,26.05,26.05,0,0,1-3.822-.1,15.831,15.831,0,0,1-3.644-.763,17.635,17.635,0,0,1-5.974-3.644,35.861,35.861,0,0,1-7.017-9.491c-1.585-2.966-2.669-5.466-3.39-7.195-.364-.847-.644-1.542-.847-2a3.157,3.157,0,0,1-.254-.712,3.859,3.859,0,0,1,.339.678l.89,1.966c.78,1.695,1.907,4.178,3.517,7.118a36.286,36.286,0,0,0,7.017,9.322,17.288,17.288,0,0,0,5.839,3.542,15.822,15.822,0,0,0,3.551.737,26.413,26.413,0,0,0,3.763.093,73.64,73.64,0,0,0,14.143-2.441c4.3-1.059,8.178-2.051,11.406-2.957s5.822-1.695,7.627-2.313l2.042-.7a3.711,3.711,0,0,1,.729-.229Z" class="cls-5" data-name="Path 740" transform="translate(-249.412 -136.71)"/><path id="Path_741" d="M317.11,223.207v.051c.271-.322.559-.678.847-1.076A6.542,6.542,0,0,0,319,220.2a10.035,10.035,0,0,0,.6-2.729.847.847,0,0,1,1.491-.686c.475.619.593,2.991-.5,5.542s2.771.525,4.237-.186,5.932-2.7,6.491-2.441c.847.39.559,1.347-.847,2.025s-5.6,3.008-5.195,3.737,7.627-2.991,7.627-2.991,1.407-1.042,1.907-.212c.915,1.5-7.025,4.89-7.788,5.195-.534.212-.11,1.017.449.763s7.084-3.873,8.025-2.356c.72,1.161-6.5,2.847-7.44,4.347s5.347-1.83,5.991-.695c.246.424.364.78-3.525,2.169a95.572,95.572,0,0,1-10.127,2.542Z" class="cls-6" data-name="Path 741" transform="translate(-254.325 -137.868)"/><path id="Path_742" d="M258.648,172.21l23.906,2.034s9.076-1.491,14.118,20.855l-2.72,8.423-2.008,12.932h0l-.949,26.634-44.32-3.263c1.008-6.051,5.729-14,7.313-19.109-1.61-4.025-10.966-20.44-10.957-28.889,0-18.059,15.618-19.618,15.618-19.618" class="cls-18" data-name="Path 742" transform="translate(-243.022 -131.115)"/><g id="Group_98" class="cls-19" data-name="Group 98" transform="translate(37.346 51.281)"><path id="Path_743" d="M287.09,192.509l8.22,1.28a9.914,9.914,0,0,0,2.644.186,3.457,3.457,0,0,0,2.33-1.144c.966-1.186.669-2.958.051-4.364s-1.525-2.729-1.695-4.237Z" data-name="Path 743" transform="translate(-287.09 -184.23)"/></g><path id="Path_744" d="M304.975,213.719l4.483,15.3s-23.482,8.542-36.2,8.381c-11.915-.144-15.321-1.5-19.491-11.118s-8.949-20.677-9.949-27.041c0,0-6.729-29.3,18.931-26.685l.695,22.88s2.839,9.389,3.042,9.932c1.915,5.085,4.4,12.491,6.779,13.389S304.975,213.719,304.975,213.719Z" class="cls-18" data-name="Path 744" transform="translate(-243.02 -131.143)"/><path id="Path_745" d="M249.65,215.638a3.2,3.2,0,0,1,.169.339c.11.237.263.576.449,1.008.4.847.975,2.195,1.763,3.873a64.939,64.939,0,0,0,3.135,5.932,34.9,34.9,0,0,0,5.364,7.135,18.871,18.871,0,0,0,4.1,3.169,9.682,9.682,0,0,0,1.22.619,8.54,8.54,0,0,0,1.288.525,14.09,14.09,0,0,0,2.788.661c3.881.559,8.118,0,12.466-.847s8.889-2.1,13.559-3.33a140.676,140.676,0,0,0,14.406-4.534l-.127.263c-.661-2.22-1.356-4.585-2.059-6.983l-2.449-8.322.246.153c-5.762,1-11.254,2.373-16.542,3.449a66.8,66.8,0,0,1-15.211,1.61h-.127l-.051-.119c-2.186-5.695-3.89-11.017-5.407-15.728s-2.83-8.813-3.915-12.2-2.017-6.017-2.661-7.8l-.746-2.051c-.076-.22-.136-.39-.178-.525s-.059-.178-.059-.178a.6.6,0,0,1,.085.169l.212.517c.178.458.458,1.127.8,2.025.678,1.78,1.619,4.407,2.763,7.771s2.466,7.474,4,12.186,3.263,10.017,5.466,15.686l-.169-.127a67.215,67.215,0,0,0,15.169-1.576c5.271-1.085,10.771-2.466,16.55-3.474h.195l.059.186q1.195,4.093,2.449,8.33c.7,2.39,1.4,4.754,2.059,6.974l.051.195-.186.076a139.279,139.279,0,0,1-14.466,4.534c-4.729,1.229-9.254,2.432-13.635,3.313a37.45,37.45,0,0,1-12.6.8,15.189,15.189,0,0,1-2.847-.695,15.943,15.943,0,0,1-2.542-1.186,19.083,19.083,0,0,1-4.152-3.237,34.973,34.973,0,0,1-5.356-7.228c-1.322-2.3-2.3-4.339-3.076-6.025s-1.322-3.008-1.695-3.907l-.415-1.025Z" class="cls-5" data-name="Path 745" transform="translate(-244.032 -132.571)"/><path id="Path_746" d="M301.406,201s3.11,3.483,3.161,6.483c.085,4.746-1.11,7.186.373,12.372l-4.237,1.025s-.644-1.263-.093-3.974,1.627-6.008,2.1-8.957A10.059,10.059,0,0,0,301.406,201Z" class="cls-20" data-name="Path 746" transform="translate(-251.773 -135.508)"/><path id="Path_747" d="M300.087,219.956a5.292,5.292,0,0,1-.254-1.042,11.416,11.416,0,0,1,0-2.915,30.511,30.511,0,0,1,.907-4.237,37.74,37.74,0,0,0,1.161-5.085,9.949,9.949,0,0,0-.534-5.085,12.831,12.831,0,0,0-2.271-3.542c-1.6-1.822-2.746-2.83-2.686-2.89a4.306,4.306,0,0,1,.847.661,26.185,26.185,0,0,1,2.085,2.017,12.94,12.94,0,0,1,2.415,3.6,10.168,10.168,0,0,1,.593,5.262,35.064,35.064,0,0,1-1.212,5.144,33.139,33.139,0,0,0-.983,4.144,13.373,13.373,0,0,0-.152,2.856,4.483,4.483,0,0,1,.085,1.11Z" class="cls-5" data-name="Path 747" transform="translate(-251.166 -134.617)"/><g id="Group_99" class="cls-14" data-name="Group 99" transform="translate(23.922 69.992)"><path id="Path_748" d="M296.834,221.3l-13.127.3a7.5,7.5,0,0,1-3.076-.356,7.256,7.256,0,0,1-3.042-3.212q-3.457-5.7-6.339-11.72s3.474,11.016,5.644,15.821a2.5,2.5,0,0,0,3.068,1.576,59.361,59.361,0,0,0,16.872-2.407Z" data-name="Path 748" transform="translate(-271.25 -206.31)"/></g><path id="Path_749" d="M254.66,233.25s4.44,16.889,15.83,16.55,22.185-5.22,22.185-5.22l-.508-.525s-19.355,4.169-24.736,1.542C257.219,240.665,254.66,233.25,254.66,233.25Z" class="cls-21" data-name="Path 749" transform="translate(-244.796 -140.429)"/><g id="Group_100" class="cls-19" data-name="Group 100" transform="translate(8.346 41.637)"><path id="Path_750" d="M256.844,172.85c-3.271,2.085-4.491,6.483-3.78,10.3s2.975,7.152,5.44,10.169a2.737,2.737,0,0,0,1.093.924A2.813,2.813,0,0,0,261.53,194l15.525-5.932a3.466,3.466,0,0,1-1.864-2.127" data-name="Path 750" transform="translate(-252.869 -172.85)"/></g><path id="Path_751" d="M253.76,211.395a14.491,14.491,0,0,1,.61-3.458,14.228,14.228,0,0,1,1.042-3.347,13.99,13.99,0,0,1-.61,3.457A14.229,14.229,0,0,1,253.76,211.395Z" class="cls-5" data-name="Path 751" transform="translate(-244.659 -136.056)"/><path id="Path_752" d="M261.861,222.384a10.906,10.906,0,0,1-2.542-1.788,10.568,10.568,0,0,1-2.229-2.135,21.736,21.736,0,0,1,4.746,3.924Z" class="cls-5" data-name="Path 752" transform="translate(-245.167 -138.172)"/><path id="Path_753" d="M269.89,237.644a13.719,13.719,0,0,1,0-3.508,14.158,14.158,0,0,1,.449-3.466,13.647,13.647,0,0,1,0,3.5,14.282,14.282,0,0,1-.449,3.474Z" class="cls-5" data-name="Path 753" transform="translate(-247.103 -140.035)"/><path id="Path_754" d="M283.985,237.83a21.668,21.668,0,0,1-4.525,4.161A21.117,21.117,0,0,1,283.985,237.83Z" class="cls-5" data-name="Path 754" transform="translate(-248.58 -141.127)"/><path id="Path_755" d="M296.691,234.144a13.558,13.558,0,0,1-2.873-1.881A12.98,12.98,0,0,1,291.2,230a13.921,13.921,0,0,1,2.881,1.881,13.733,13.733,0,0,1,2.61,2.263Z" class="cls-5" data-name="Path 755" transform="translate(-250.371 -139.933)"/><path id="Path_756" d="M310.407,231.3a18.174,18.174,0,0,1-2.017,3.39,17.347,17.347,0,0,1-2.39,3.135,18.175,18.175,0,0,1,2.017-3.39A17.729,17.729,0,0,1,310.407,231.3Z" class="cls-5" data-name="Path 756" transform="translate(-252.63 -140.131)"/><path id="Path_757" d="M287.894,216.2a13.627,13.627,0,0,1-2.542-2.381,14.185,14.185,0,0,1-2.212-2.686,13.441,13.441,0,0,1,2.542,2.381A14.041,14.041,0,0,1,287.894,216.2Z" class="cls-5" data-name="Path 757" transform="translate(-249.142 -137.054)"/><path id="Path_758" d="M298.618,204.15a15.941,15.941,0,0,1-3.288,4.085A15.938,15.938,0,0,1,298.618,204.15Z" class="cls-5" data-name="Path 758" transform="translate(-251.002 -135.989)"/><path id="Path_759" d="M283.532,203.165c-.093.093-1.263-1.017-2.89-2.119s-3.093-1.788-3.042-1.907A11.559,11.559,0,0,1,283.532,203.165Z" class="cls-5" data-name="Path 759" transform="translate(-248.296 -135.224)"/><path id="Path_760" d="M249.986,192.17a8.475,8.475,0,0,1-1.424-2.347,8.6,8.6,0,0,1-1.042-2.542,17.21,17.21,0,0,1,2.466,4.9Z" class="cls-5" data-name="Path 760" transform="translate(-243.707 -133.415)"/><path id="Path_761" d="M311.542,218.449a8.009,8.009,0,0,1-2.364-1.025A7.763,7.763,0,0,1,307,216a15.051,15.051,0,0,1,4.534,2.441Z" class="cls-5" data-name="Path 761" transform="translate(-252.782 -137.797)"/><path id="Path_762" d="M339.974,219.652a9.412,9.412,0,0,1-2.144-1.924A9.508,9.508,0,0,1,336,215.5a18.99,18.99,0,0,1,3.974,4.152Z" class="cls-5" data-name="Path 762" transform="translate(-257.207 -137.72)"/><path id="Path_763" d="M349.759,219.53a22.031,22.031,0,0,1-2.347,3.788,22.543,22.543,0,0,1-2.712,3.5,22.039,22.039,0,0,1,2.347-3.754,22.546,22.546,0,0,1,2.712-3.534Z" class="cls-5" data-name="Path 763" transform="translate(-258.534 -138.335)"/><path id="Path_764" d="M256.42,247.084A19.246,19.246,0,0,1,253.59,242,19.246,19.246,0,0,1,256.42,247.084Z" class="cls-5" data-name="Path 764" transform="translate(-244.633 -141.764)"/><path id="Path_765" d="M296.11,251.6a22.659,22.659,0,0,1-6.22.754A22.66,22.66,0,0,1,296.11,251.6Z" class="cls-5" data-name="Path 765" transform="translate(-250.172 -143.228)"/><path id="Path_766" d="M292.108,133.507a11.643,11.643,0,0,0,2.356,9.745c1.4,1.695,3.39,3.186,3.635,5.373.339,2.83-2.449,5.415-1.873,8.195.475,2.28,2.907,3.474,4.466,5.186a8.016,8.016,0,0,1,.949,9.2c-1.3,2.22-3.8,4.144-3.457,6.695a13.481,13.481,0,0,0,1.034,2.788,2.7,2.7,0,0,1-.288,2.8,3.229,3.229,0,0,1-1.856.712,50.046,50.046,0,0,1-14.754,0l2.635-50.718Z" class="cls-5" data-name="Path 766" transform="translate(-249.017 -125.207)"/><path id="Path_767" d="M265.756,166,264.4,134.942l12.33-9.322,11.211,5.474s.373,14.076,0,20.186-6.525,6.779-6.525,6.779.144,3.576.28,7.33a7.974,7.974,0,0,1-8.042,8.279h0A7.983,7.983,0,0,1,265.756,166Z" class="cls-6" data-name="Path 767" transform="translate(-246.282 -124.007)"/><path id="Path_768" d="M290.489,144.03a.78.78,0,1,1-.78-.78A.78.78,0,0,1,290.489,144.03Z" class="cls-5" data-name="Path 768" transform="translate(-250.025 -126.697)"/><path id="Path_769" d="M291.1,143c-.1.093-.678-.39-1.517-.441s-1.475.364-1.559.246.059-.229.339-.424a2.1,2.1,0,0,1,1.254-.33,2.051,2.051,0,0,1,1.2.483C291.076,142.753,291.153,142.948,291.1,143Z" class="cls-5" data-name="Path 769" transform="translate(-249.883 -126.513)"/><path id="Path_770" d="M279.806,144.03a.788.788,0,1,1-.78-.78A.78.78,0,0,1,279.806,144.03Z" class="cls-5" data-name="Path 770" transform="translate(-248.393 -126.697)"/><path id="Path_771" d="M280.1,143c-.1.093-.678-.39-1.517-.441s-1.474.364-1.559.246.059-.229.339-.424a2.1,2.1,0,0,1,1.254-.33,2.076,2.076,0,0,1,1.2.483C280.068,142.753,280.153,142.948,280.1,143Z" class="cls-5" data-name="Path 771" transform="translate(-248.205 -126.513)"/><path id="Path_772" d="M283.054,163.357a15.254,15.254,0,0,1-8.084-2.737s2.025,4.576,8.144,4.322Z" class="cls-8" data-name="Path 772" transform="translate(-247.895 -129.347)"/><path id="Path_773" d="M284.216,150.229a5.347,5.347,0,0,1,1.381-.169c.212,0,.424,0,.466-.2a1.2,1.2,0,0,0-.119-.678c-.186-.551-.373-1.136-.576-1.746-.4-1.237-.746-2.364-.975-3.186a5.637,5.637,0,0,1-.314-1.356,5.861,5.861,0,0,1,.542,1.28c.288.805.669,1.924,1.068,3.161.195.61.373,1.195.551,1.754a1.313,1.313,0,0,1,.085.847.542.542,0,0,1-.356.305,1.493,1.493,0,0,1-.364,0A6.085,6.085,0,0,1,284.216,150.229Z" class="cls-5" data-name="Path 773" transform="translate(-249.285 -126.642)"/><path id="Path_774" d="M283.31,152.39a1.966,1.966,0,0,0-.847.5.847.847,0,0,0-.212.907.915.915,0,0,0,1.059.449,1.1,1.1,0,0,0,.771-.576.847.847,0,0,0-.1-.932.712.712,0,0,0-.9-.136" class="cls-8" data-name="Path 774" transform="translate(-248.998 -128.091)"/><path id="Path_775" d="M284.375,153.608c0,.119-.686.314-1.432-.119s-.958-1.136-.847-1.169.441.449,1.059.788S284.366,153.489,284.375,153.608Z" class="cls-5" data-name="Path 775" transform="translate(-248.978 -128.08)"/><path id="Path_776" d="M276.373,124.4a14.406,14.406,0,0,0-16.948,16.271c.339,2.195,1.178,4.432.6,6.576-.763,2.856-3.83,4.652-4.568,7.525-.907,3.525,2.051,6.966,1.983,10.618,0,1.958-.949,3.788-1.415,5.7a12.991,12.991,0,0,0,5.085,13.415,1.992,1.992,0,0,0,.991.424,2.136,2.136,0,0,0,1-.271l13.466-6.144c-2.542-3.771-5.144-7.932-4.763-12.449.2-2.339,1.212-4.695.593-6.957-.492-1.788-1.89-3.135-3.119-4.525s-2.381-3.076-2.186-4.915c.22-2.093,2.152-3.78,2.127-5.932,0-1.483-1.017-2.754-1.517-4.152a8.7,8.7,0,0,1,1.017-7.161,25.644,25.644,0,0,1,4.907-5.585" class="cls-5" data-name="Path 776" transform="translate(-244.892 -123.782)"/><path id="Path_777" d="M270.118,130.906a14.482,14.482,0,0,1-1.178,3.78c-.4,1.237-.339,2.83.847,3.618a3.312,3.312,0,0,0,1.008.424,10.822,10.822,0,0,0,4.627-.169l.2-3.466a4.644,4.644,0,0,0,1.695,2.737,3.466,3.466,0,0,0,3.3.5,2.025,2.025,0,0,0,1.195-2.652,4.217,4.217,0,0,0,3.263,2.542,13.685,13.685,0,0,0,4.474-.093c-.729-1.152-.246-2.593.186-3.856s.754-2.8-.195-3.8a13.1,13.1,0,0,0-1.068-.847,11.134,11.134,0,0,1-1.754-2.449c-1.991-2.873-6.3-4.11-9.881-3.11a10.169,10.169,0,0,0-7.093,7.279" class="cls-5" data-name="Path 777" transform="translate(-246.941 -123.716)"/></g><g id="freepik--speech-bubble--inject-372" transform="translate(157.006 91.249)"><path id="Path_778" d="M198.562,95.317a3.483,3.483,0,0,1-.475.051l-1.39.1a15.888,15.888,0,0,0-2.237.305,12.139,12.139,0,0,0-1.415.271l-1.585.432a26.27,26.27,0,0,0-7.542,3.737,26.8,26.8,0,0,0-7.406,8.245,28.093,28.093,0,0,0-2.593,5.932,28.5,28.5,0,0,0-1.136,6.923,30.158,30.158,0,0,0,.068,3.7,15.974,15.974,0,0,0,.246,1.873,13.053,13.053,0,0,0,.364,1.89,26.678,26.678,0,0,0,2.856,7.415,26.364,26.364,0,0,0,12.44,11.3,24.3,24.3,0,0,0,8.762,1.966,23.634,23.634,0,0,0,9.161-1.322l.9-.322.119-.051.1.059,12.881,6.534-.381.33q-2.059-6.406-3.991-12.381v-.153l.11-.11a27.549,27.549,0,0,0,6.779-11.245,28.262,28.262,0,0,0,.975-11.966,27.533,27.533,0,0,0-9.195-17.262,25.126,25.126,0,0,0-11.72-5.686l-2-.339-1.483-.1-.907-.068a1.229,1.229,0,0,1-.305-.042h1.22l1.483.068,2.025.3a26.939,26.939,0,0,1,5.415,1.627,27.965,27.965,0,0,1,6.432,4.008,27.5,27.5,0,0,1,5.932,7.169,28.152,28.152,0,0,1,3.525,10.262,28.567,28.567,0,0,1-.958,12.177,27.965,27.965,0,0,1-6.856,11.466l.059-.271,4.008,12.372.2.627-.585-.3-12.881-6.534h.22l-.915.339A24.312,24.312,0,0,1,197.571,150a24.9,24.9,0,0,1-8.966-2.025,27.423,27.423,0,0,1-15.55-19.1,13.73,13.73,0,0,1-.364-1.924c-.076-.644-.212-1.271-.246-1.915a31.072,31.072,0,0,1-.051-3.763,29,29,0,0,1,1.186-7.025,28.185,28.185,0,0,1,2.661-6,27.05,27.05,0,0,1,7.567-8.3,25.9,25.9,0,0,1,7.627-3.686l1.6-.415a12.085,12.085,0,0,1,1.432-.246,14.05,14.05,0,0,1,2.254-.254l1.4-.042Z" class="cls-5" data-name="Path 778" transform="translate(-172.359 -95.3)"/><path id="Path_779" d="M207.293,121.739h-1.881L201.293,116V112.24s-2.924-.178-2.542,4.754,0,3.669,0,3.669-6.195,0-6.712.568c-.373.39-.542,6.542-.61,9.881a3.61,3.61,0,0,0,2.542,3.635,2.653,2.653,0,0,0,.669.093c1.542,0,9.44-1.263,9.44-1.263h3.254Z" class="cls-18" data-name="Path 779" transform="translate(-175.268 -97.884)"/><path id="Path_780" d="M215.738,122.23l-1.161,12.915H211.34V122.493Z" class="cls-18" data-name="Path 780" transform="translate(-178.307 -99.409)"/></g></g></svg>