<svg xmlns="http://www.w3.org/2000/svg" id="best" width="69.6" height="69.6" viewBox="0 0 69.6 69.6"><defs><style>.cls-1{fill:#4f5bd3}</style></defs><path id="Path_1319" d="M85.951 19.72h3.329v1.16A8.13 8.13 0 0 0 97.4 29h2.32v8.12H89.28a3.484 3.484 0 0 0-3.48 3.48v6.96h2.32V40.6a1.161 1.161 0 0 1 1.16-1.16h27.84a1.161 1.161 0 0 1 1.16 1.16v6.96h2.32V40.6a3.484 3.484 0 0 0-3.48-3.48h-10.44V29H109a8.13 8.13 0 0 0 8.12-8.12v-1.16h3.329a5.957 5.957 0 0 0 5.951-5.951V11.6a3.484 3.484 0 0 0-3.48-3.48h-5.8V6.96a2.323 2.323 0 0 0 2.32-2.32V2.32A2.323 2.323 0 0 0 117.12 0H89.28a2.323 2.323 0 0 0-2.32 2.32v2.32a2.323 2.323 0 0 0 2.32 2.32v1.16h-5.8A3.484 3.484 0 0 0 80 11.6v2.169a5.957 5.957 0 0 0 5.951 5.951zm18.409 17.4h-2.32V29h2.32zm18.56-26.68a1.161 1.161 0 0 1 1.16 1.16v2.169a3.635 3.635 0 0 1-3.631 3.631h-3.329v-6.96zM89.28 2.32h27.84v2.32H89.28zm25.52 4.64v13.92a5.807 5.807 0 0 1-5.8 5.8H97.4a5.807 5.807 0 0 1-5.8-5.8V6.96zM82.32 11.6a1.161 1.161 0 0 1 1.16-1.16h5.8v6.96h-3.329a3.635 3.635 0 0 1-3.631-3.631zm0 0" class="cls-1" data-name="Path 1319" transform="translate(-68.4)"/><path id="Path_1320" d="M127.44 410.32V408h-2.32v2.32h-3.48V408h-2.32v2.32h-18.56V408h-2.32v2.32h-3.48V408h-2.32v2.32a4.645 4.645 0 0 0-4.64 4.64v1.16a2.323 2.323 0 0 0 2.32 2.32h39.44a2.323 2.323 0 0 0 2.32-2.32v-1.16a4.645 4.645 0 0 0-4.64-4.64zm-37.12 5.8v-1.16a2.323 2.323 0 0 1 2.32-2.32h34.8a2.323 2.323 0 0 1 2.32 2.32v1.16zm0 0" class="cls-1" data-name="Path 1320" transform="translate(-75.24 -348.84)"/><path id="Path_1321" d="M66.12 290.32A2.323 2.323 0 0 0 63.8 288h-2.32a2.323 2.323 0 0 0-2.32 2.32V292l-7.66 4.787a2.31 2.31 0 0 0-1.62-.664h-2.32a2.31 2.31 0 0 0-1.62.664L38.28 292v-1.68a2.323 2.323 0 0 0-2.32-2.32h-2.32a2.323 2.323 0 0 0-2.32 2.32V292l-7.66 4.787a2.31 2.31 0 0 0-1.62-.664h-2.32a2.31 2.31 0 0 0-1.62.664L10.44 292v-1.68A2.323 2.323 0 0 0 8.12 288H5.8a2.323 2.323 0 0 0-2.32 2.32H0v2.32h3.48a2.323 2.323 0 0 0 2.32 2.32h2.32a2.31 2.31 0 0 0 1.62-.664l7.66 4.787v1.677a2.323 2.323 0 0 0 2.32 2.32h2.32a2.323 2.323 0 0 0 2.32-2.32v-1.677l7.66-4.787a2.31 2.31 0 0 0 1.62.664h2.32a2.31 2.31 0 0 0 1.62-.664l7.66 4.787v1.677a2.323 2.323 0 0 0 2.32 2.32h2.32a2.323 2.323 0 0 0 2.32-2.32v-1.677l7.66-4.787a2.31 2.31 0 0 0 1.62.664h2.32a2.323 2.323 0 0 0 2.32-2.32h3.48v-2.32zm-58 2.32H5.8v-2.32h2.32zm13.92 8.12h-2.32v-2.32h2.32zm13.92-8.12h-2.32v-2.32h2.32zm13.92 8.12h-2.32v-2.32h2.32zm13.92-8.12h-2.32v-2.32h2.32zm0 0" class="cls-1" data-name="Path 1321" transform="translate(0 -246.24)"/><path id="Path_1322" d="M160 291.48v2.32h2.32v-2.32a1.161 1.161 0 0 1 1.16-1.16h2.32V288h-2.32a3.484 3.484 0 0 0-3.48 3.48zm0 0" class="cls-1" data-name="Path 1322" transform="translate(-136.8 -246.24)"/><path id="Path_1323" d="M285.8 293.8v-2.32a3.484 3.484 0 0 0-3.48-3.48H280v2.32h2.32a1.161 1.161 0 0 1 1.16 1.16v2.32zm0 0" class="cls-1" data-name="Path 1323" transform="translate(-239.4 -246.24)"/></svg>