<svg xmlns="http://www.w3.org/2000/svg" id="compare" width="70" height="58.71" viewBox="0 0 70 58.71">
    <defs>
        <style>
            .cls-1{fill:#4f5bd3}
        </style>
    </defs>
    <path id="Path_1307" d="M74.048 48h-62.1A3.956 3.956 0 0 0 8 51.952v50.806a3.956 3.956 0 0 0 3.952 3.952h62.1A3.956 3.956 0 0 0 78 102.758V51.952A3.956 3.956 0 0 0 74.048 48zm1.694 54.758a1.7 1.7 0 0 1-1.694 1.694h-62.1a1.7 1.7 0 0 1-1.694-1.694V57.032h65.488zm0-47.984H10.258v-2.822a1.7 1.7 0 0 1 1.694-1.694h62.1a1.7 1.7 0 0 1 1.694 1.694z" class="cls-1" data-name="Path 1307" transform="translate(-8 -48)"/>
    <path id="Path_1308" d="M33.038 74.077h1.038a1.038 1.038 0 0 0 0-2.077h-1.038a1.038 1.038 0 0 0 0 2.077z" class="cls-1" data-name="Path 1308" transform="translate(-28.885 -68.885)"/>
    <path id="Path_1309" d="M65.038 74.077h1.038a1.038 1.038 0 1 0 0-2.077h-1.038a1.038 1.038 0 0 0 0 2.077z" class="cls-1" data-name="Path 1309" transform="translate(-56.731 -68.885)"/>
    <path id="Path_1310" d="M97.038 74.077h1.038a1.038 1.038 0 0 0 0-2.077h-1.038a1.038 1.038 0 1 0 0 2.077z" class="cls-1" data-name="Path 1310" transform="translate(-83.53 -68.885)"/>
    <path id="Path_1311" d="M65.654 136H49.038A1.038 1.038 0 0 0 48 137.038v16.615a1.038 1.038 0 0 0 1.038 1.038h16.616a1.038 1.038 0 0 0 1.038-1.038v-16.615A1.038 1.038 0 0 0 65.654 136zm-1.038 16.615H50.077v-14.538h14.538z" class="cls-1" data-name="Path 1311" transform="translate(-42.808 -123.053)"/>
    <path id="Path_1312" d="M90.181 171.048l-4.024-10.385a1.038 1.038 0 0 0-.963-.663h-.005a1.039 1.039 0 0 0-.964.653l-4.154 10.385a1.039 1.039 0 1 0 1.929.771l1.4-3.5h3.492l1.353 3.491a1.038 1.038 0 0 0 1.937-.75zm-5.95-4.817l.942-2.357.914 2.357z" class="cls-1" data-name="Path 1312" transform="translate(-70.651 -143.813)"/>
    <path id="Path_1313" d="M337.654 280h-16.616a1.038 1.038 0 0 0-1.038 1.038v16.615a1.038 1.038 0 0 0 1.038 1.038h16.615a1.038 1.038 0 0 0 1.038-1.038v-16.615a1.038 1.038 0 0 0-1.037-1.038zm-1.038 16.615h-14.539v-14.538h14.538z" class="cls-1" data-name="Path 1313" transform="translate(-273.885 -245.175)"/>
    <path id="Path_1314" d="M359.085 308.169a3.081 3.081 0 0 0 .184-1.054 3.12 3.12 0 0 0-3.115-3.115h-3.115a1.038 1.038 0 0 0-1.039 1.038v10.385a1.038 1.038 0 0 0 1.038 1.038h5.712a3.639 3.639 0 0 0 3.635-3.635v-1.038a3.64 3.64 0 0 0-3.3-3.619zm-5.008-2.092h2.077a1.038 1.038 0 1 1 0 2.077h-2.077zm6.231 6.75a1.559 1.559 0 0 1-1.558 1.558h-4.673v-4.154h4.673a1.559 1.559 0 0 1 1.558 1.558z" class="cls-1" data-name="Path 1314" transform="translate(-301.731 -267.001)"/>
    <path id="Path_1315" d="M201.038 202.077h22.846v6.231a1.038 1.038 0 1 0 2.077 0v-7.269a1.038 1.038 0 0 0-1.038-1.039h-23.885a1.038 1.038 0 0 0 0 2.077z" class="cls-1" data-name="Path 1315" transform="translate(-171.435 -178.188)"/>
    <path id="Path_1316" d="M136.923 295.269h-22.846v-6.231a1.038 1.038 0 0 0-2.077 0v7.269a1.038 1.038 0 0 0 1.038 1.038h23.885a1.038 1.038 0 1 0 0-2.077z" class="cls-1" data-name="Path 1316" transform="translate(-96.527 -253.56)"/>
</svg>
