<svg xmlns="http://www.w3.org/2000/svg" xmlns:xlink="http://www.w3.org/1999/xlink" width="434.733" height="349.1" viewBox="0 0 434.733 349.1">
  <defs>
    <style>
      .cls-1 {
        fill: #f5f5f5;
      }

      .cls-2 {
        fill: #fff;
      }

      .cls-3 {
        opacity: 0.15;
      }

      .cls-4 {
        fill: #4f5bd3;
      }

      .cls-5 {
        fill: #263238;
      }

      .cls-6 {
        fill: #cf7a64;
      }

      .cls-7 {
        fill: #ce7a63;
      }

      .cls-8 {
        fill: url(#linear-gradient);
      }

      .cls-9 {
        opacity: 0.2;
      }

      .cls-10 {
        fill: #4e5ad3;
      }

      .cls-11 {
        fill: #ba4d3c;
      }

      .cls-12 {
        fill: #3a45b6;
      }

      .cls-13 {
        fill: #7600b7;
      }

      .cls-14 {
        fill: #ffc3bd;
      }

      .cls-15 {
        fill: #ed847e;
      }

      .cls-16 {
        fill: #ffb573;
      }

      .cls-17 {
        fill: #ed893e;
      }

      .cls-18 {
        fill: url(#linear-gradient-2);
      }

      .cls-19 {
        opacity: 0.1;
      }

      .cls-20 {
        fill: url(#linear-gradient-3);
      }
    </style>
    <linearGradient id="linear-gradient" x1="0.5" x2="0.5" y2="1" gradientUnits="objectBoundingBox">
      <stop offset="0" stop-color="#8693f3"/>
      <stop offset="1" stop-color="#4f5bd3"/>
    </linearGradient>
    <linearGradient id="linear-gradient-2" x1="0.5" x2="0.537" y2="1.177" gradientUnits="objectBoundingBox">
      <stop offset="0" stop-color="#4f5bd3"/>
      <stop offset="1" stop-color="#8693f3"/>
    </linearGradient>
    <linearGradient id="linear-gradient-3" x1="0.5" x2="0.5" y2="1" gradientUnits="objectBoundingBox">
      <stop offset="0" stop-color="#4f5bd3"/>
      <stop offset="1" stop-color="#4e5ad3"/>
    </linearGradient>
  </defs>
  <g id="People_watching_the_news-rafiki" data-name="People watching the news-rafiki" transform="translate(48 -17)">
    <g id="freepik--Shadow--inject-7" transform="translate(-48 344.183)">
      <ellipse id="freepik--path--inject-7" class="cls-1" cx="187.694" cy="10.958" rx="187.694" ry="10.958"/>
    </g>
    <g id="freepik--TV--inject-7" transform="translate(139.718 17)">
      <path id="Path_299" data-name="Path 299" class="cls-2" d="M444.947,201.173H212.355L203.11,67.37h232.6Z" transform="translate(-200.525 -64.95)"/>
      <g id="Group_49" data-name="Group 49" class="cls-3" transform="translate(11.994 12.914)">
        <path id="Path_300" data-name="Path 300" class="cls-4" d="M283.565,127.358H216.218L212.83,78.21h67.337Z" transform="translate(-212.83 -78.21)"/>
        <path id="Path_301" data-name="Path 301" class="cls-4" d="M360.355,127.358H293.018L289.63,78.21h67.337Z" transform="translate(-215.284 -78.21)"/>
        <path id="Path_302" data-name="Path 302" class="cls-4" d="M287.625,186.288H220.288L216.9,137.14h67.337Z" transform="translate(-212.96 -80.093)"/>
        <path id="Path_303" data-name="Path 303" class="cls-4" d="M364.425,186.288H297.088L293.7,137.14h67.337Z" transform="translate(-215.414 -80.093)"/>
        <path id="Path_304" data-name="Path 304" class="cls-4" d="M437.165,127.358H369.818L366.43,78.21h67.337Z" transform="translate(-217.739 -78.21)"/>
        <path id="Path_305" data-name="Path 305" class="cls-4" d="M441.225,186.288H373.888L370.5,137.14h67.337Z" transform="translate(-217.869 -80.093)"/>
      </g>
      <path id="Path_306" data-name="Path 306" class="cls-5" d="M339.041,108.334c-4.395-7-9.942-6.215-14.085-4.308L323.02,117.2C327.463,127.346,343.446,115.333,339.041,108.334Z" transform="translate(-204.357 -66.079)"/>
      <path id="Path_307" data-name="Path 307" class="cls-6" d="M309.658,148.24c-.048.852-.106,1.481-.174,2.207s-.174,1.394-.271,2.081c-.2,1.384-.445,2.749-.736,4.114a53.989,53.989,0,0,1-2.449,8.1,35.4,35.4,0,0,1-4.114,7.744,23.892,23.892,0,0,1-6.776,6.544l.455-.339a7.145,7.145,0,0,1-2.1,1.22,6.776,6.776,0,0,1-2.168.416,8.771,8.771,0,0,1-3.272-.523,17.773,17.773,0,0,1-4.25-2.246,44.686,44.686,0,0,1-6.137-5.315c-1.839-1.878-3.543-3.814-5.169-5.808s-3.156-4.017-4.618-6.186a2.314,2.314,0,0,1,3.5-2.972h0c1.762,1.665,3.572,3.388,5.4,5.014s3.669,3.253,5.547,4.743A44.307,44.307,0,0,0,287.955,171a10.182,10.182,0,0,0,2.478,1.065c.3.068.523.058.426,0a1.268,1.268,0,0,0-.832.31l.445-.348a16.457,16.457,0,0,0,4.037-4.521,32.061,32.061,0,0,0,2.9-6.06,50.6,50.6,0,0,0,1.878-6.825c.252-1.171.465-2.352.639-3.533l.242-1.772c.068-.561.145-1.22.184-1.665v-.116a4.647,4.647,0,0,1,9.264.639Z" transform="translate(-202.583 -67.379)"/>
      <path id="Path_308" data-name="Path 308" class="cls-7" d="M261.048,152.554l-2.991,1.752a1.568,1.568,0,0,0-.077,2.546l1.82,1.578a4.028,4.028,0,0,0,1.626.871l7.464,2.052,3.65-1.936c-1.026-3.7-6.776-5.344-6.776-5.344l-3.243-1.53a1.549,1.549,0,0,0-1.471.01Z" transform="translate(-202.259 -67.666)"/>
      <path id="Path_309" data-name="Path 309" class="cls-5" d="M297.344,152a27.1,27.1,0,0,1-.784,3.8s7.493,7.831,14.143,7.919a3.8,3.8,0,0,0,.726-3.282Z" transform="translate(-203.512 -67.654)"/>
      <path id="Path_310" data-name="Path 310" class="cls-4" d="M304.492,138.327c-6.68,4.84-6.592,9.99-8.122,14.2,3.011,5.44,15.169,8.858,15.169,8.858S313.824,131.57,304.492,138.327Z" transform="translate(-203.506 -67.186)"/>
      <path id="Path_311" data-name="Path 311" class="cls-8" d="M301.93,144.118c-.087,13.678,8.954,24.017,10.648,38.441l34.443-.833c-1.936-14.046-1.452-12.643,1.607-39.787a6.041,6.041,0,0,0-5.285-6.525c-2.594-.29-5.808-.561-9.119-.629a115.479,115.479,0,0,0-16.718.474c-3.572.426-7.357,1.123-10.242,1.7C303.934,137.642,302,140.653,301.93,144.118Z" transform="translate(-203.683 -67.101)"/>
      <path id="Path_312" data-name="Path 312" class="cls-2" d="M319.2,142.631c-1.936.155-4.84,2.556-6.283,5.75-5.053-15.9,4.889-13.107,4.889-13.107Z" transform="translate(-203.989 -67.114)"/>
      <path id="Path_313" data-name="Path 313" class="cls-2" d="M323.7,143.179c1.936-.068,6.3,2.856,7.744,6.079,14.279-18.577,3.485-14.521,3.485-14.521Z" transform="translate(-204.379 -67.091)"/>
      <path id="Path_314" data-name="Path 314" class="cls-7" d="M331.225,115.35c-.532,5.421-.62,15.324,3.495,18.819,0,0-5.876,6.873-13.146,9.119a1.471,1.471,0,0,1-1.51-.465,9.129,9.129,0,0,1-2.062-8.18c5.857-1.607,5.266-6.06,3.814-10.223Z" transform="translate(-204.189 -66.483)"/>
      <path id="Path_315" data-name="Path 315" class="cls-9" d="M327.528,119.18,322,124.543a18.882,18.882,0,0,1,.8,2.9c2.256-.4,5.16-3,5.169-5.411A8.315,8.315,0,0,0,327.528,119.18Z" transform="translate(-204.325 -66.606)"/>
      <path id="Path_316" data-name="Path 316" class="cls-7" d="M335.669,104.5c-1.258,8.819-1.6,12.585-6.505,16.457a12.062,12.062,0,0,1-19.535-7.551c-1.3-8.277.968-21.3,10.058-23.572S336.928,95.665,335.669,104.5Z" transform="translate(-203.919 -65.655)"/>
      <path id="Path_317" data-name="Path 317" class="cls-5" d="M347.041,78.549c-7.957-1.7-10.571,3.495-11.471,8.015l9.2,10.484C355.25,100.524,359.868,81.3,347.041,78.549Z" transform="translate(-204.758 -65.297)"/>
      <path id="Path_318" data-name="Path 318" class="cls-10" d="M334.689,85.617c-.261-3.069,2.4-4.153,5.285-2.9s7.26,5.169,7.938,9.932-1.394,8.625-4.027,7.89S334.689,85.617,334.689,85.617Z" transform="translate(-204.73 -65.424)"/>
      <path id="Path_319" data-name="Path 319" class="cls-5" d="M344.952,93.845c-3.3-9.574-18.712-16.35-26.912-7.638l10.329,7.1c-.194,5.324,1.22,10.648,6.331,14.646C341.234,113.109,348.165,103.148,344.952,93.845Z" transform="translate(-204.198 -65.423)"/>
      <path id="Path_320" data-name="Path 320" class="cls-5" d="M329.634,95.575c-9.748,5.014-21.249-2.74-21.462,9.458-4.472-7.6-3.03-20.823,8.761-22.2C329.8,81.335,336.382,92.109,329.634,95.575Z" transform="translate(-203.808 -65.44)"/>
      <path id="Path_321" data-name="Path 321" class="cls-5" d="M332.611,103.4c-3.456,2.527-2.9,6.989-2.081,9.322a8.093,8.093,0,0,1,3.069-6.341Z" transform="translate(-204.578 -66.101)"/>
      <path id="Path_322" data-name="Path 322" class="cls-5" d="M322.753,105.742c-.058.726-.494,1.258-.968,1.191s-.813-.716-.755-1.442.484-1.258.968-1.181S322.811,105.026,322.753,105.742Z" transform="translate(-204.293 -66.13)"/>
      <path id="Path_323" data-name="Path 323" class="cls-5" d="M313.063,104.362c-.058.716-.494,1.249-.968,1.181s-.823-.716-.765-1.442.494-1.249.968-1.181S313.121,103.636,313.063,104.362Z" transform="translate(-203.984 -66.086)"/>
      <path id="Path_324" data-name="Path 324" class="cls-5" d="M312.493,102.975l-1.723-.755S311.564,103.7,312.493,102.975Z" transform="translate(-203.966 -66.064)"/>
      <path id="Path_325" data-name="Path 325" class="cls-11" d="M316.312,106.16a17.608,17.608,0,0,1-2.972,4.24,3.33,3.33,0,0,0,2.575.871Z" transform="translate(-204.048 -66.189)"/>
      <path id="Path_326" data-name="Path 326" class="cls-5" d="M318.493,114.49a6.982,6.982,0,0,1-1.239-.077.232.232,0,0,1-.194-.242.194.194,0,0,1,.232-.184,5.44,5.44,0,0,0,4.908-1.549.213.213,0,0,1,.3,0,.2.2,0,0,1,0,.3A5.537,5.537,0,0,1,318.493,114.49Z" transform="translate(-204.167 -66.388)"/>
      <path id="Path_327" data-name="Path 327" class="cls-7" d="M338.082,109.962a5.963,5.963,0,0,1-3.214,3.649c-2.052.92-3.553-.891-3.378-3.059.155-1.936,1.413-4.782,3.659-4.782a3.166,3.166,0,0,1,2.933,4.192Z" transform="translate(-204.628 -66.177)"/>
      <path id="Path_328" data-name="Path 328" class="cls-5" d="M326.057,102.214a.465.465,0,0,1-.319-.145,3.659,3.659,0,0,0-2.9-1.3.455.455,0,0,1-.5-.378.387.387,0,0,1,.339-.474,4.521,4.521,0,0,1,3.7,1.6.416.416,0,0,1,0,.6.358.358,0,0,1-.31.1Z" transform="translate(-204.335 -65.99)"/>
      <path id="Path_329" data-name="Path 329" class="cls-5" d="M311.129,100.446a.513.513,0,0,1-.252-.2.407.407,0,0,1,.136-.581,4.3,4.3,0,0,1,3.921-.126.445.445,0,0,1,.2.581.407.407,0,0,1-.571.174,3.407,3.407,0,0,0-3.1.126A.416.416,0,0,1,311.129,100.446Z" transform="translate(-203.967 -65.965)"/>
      <path id="Path_330" data-name="Path 330" class="cls-5" d="M322.173,104.355l-1.713-.755S321.254,105.091,322.173,104.355Z" transform="translate(-204.275 -66.108)"/>
      <path id="Path_331" data-name="Path 331" class="cls-5" d="M355.814,199.959H308.38c4.84-4.085,3.224-11.094,4.395-15.847l34.443-.833C352.8,187.21,353.955,192.835,355.814,199.959Z" transform="translate(-203.889 -68.654)"/>
      <path id="Path_332" data-name="Path 332" class="cls-6" d="M349.848,140.132c1.771,2.536,3.233,5,4.724,7.56s2.817,5.189,4.056,7.89a77.216,77.216,0,0,1,3.311,8.374,47.5,47.5,0,0,1,2.091,9.109v.3a2.729,2.729,0,0,1,0,.745,34.51,34.51,0,0,1-2.836,8.838q-.968,2.033-2.072,3.93a44.268,44.268,0,0,1-2.488,3.708,2.333,2.333,0,0,1-4.1-2.033v-.136c.339-1.249.745-2.585,1.075-3.872s.668-2.594.968-3.872.513-2.565.726-3.8a35.216,35.216,0,0,0,.368-3.63v1.045a44.528,44.528,0,0,0-2.159-7.367c-.968-2.469-2.052-4.927-3.253-7.357s-2.507-4.84-3.872-7.2-2.836-4.753-4.24-6.931l-.058-.1a4.658,4.658,0,1,1,7.744-5.179Z" transform="translate(-204.941 -67.21)"/>
      <path id="Path_333" data-name="Path 333" class="cls-5" d="M354.059,143.42a31.948,31.948,0,0,0,2.469,3.243s-3.311,9.68-9.409,11.955a4.327,4.327,0,0,1-2.178-2.788Z" transform="translate(-205.058 -67.38)"/>
      <path id="Path_334" data-name="Path 334" class="cls-4" d="M344.1,135.358c6.554.852,8.712,4.7,10.949,8.848-2.043,5.537-10.358,14.095-10.358,14.095S332.223,133.819,344.1,135.358Z" transform="translate(-204.867 -67.12)"/>
      <path id="Path_335" data-name="Path 335" class="cls-7" d="M354.108,187.38l-6.776,1.936a6.437,6.437,0,0,0-3.8,2.9l-.765,1.288a1.752,1.752,0,0,0,.4,2.2l3.369,2.972a2.081,2.081,0,0,0,2.856,0l3.437-3.408s5.044-2.614,4.889-6.379Z" transform="translate(-204.981 -68.785)"/>
      <path id="Path_336" data-name="Path 336" class="cls-7" d="M272.646,159.117c-.649-4.037-4.84-6.592-6.612-8.712a.658.658,0,0,0-1.074.3c-.213.823,1.1,2.41,1.684,2.749.048.755-.106,4.84,2.9,5.74C270.806,159.233,272.646,159.117,272.646,159.117Z" transform="translate(-202.501 -67.598)"/>
      <path id="Path_337" data-name="Path 337" class="cls-12" d="M347.677,181.109a11.985,11.985,0,0,1,.639,1.994.494.494,0,0,1-.416.62c-3.659.474-25.092,3.078-34.995,1.423a.562.562,0,0,1-.474-.513c-.068-.61-.194-1.559-.271-2.168a.484.484,0,0,1,.484-.571c3.4,0,21.3-.2,34.482-1.113a.552.552,0,0,1,.552.329Z" transform="translate(-204.01 -68.574)"/>
      <path id="Path_339" data-name="Path 339" class="cls-2" d="M328.078,181.107a28.577,28.577,0,0,0-7.415.387c-.513.31,0,4.3.484,4.54.968.494,6.331.223,7.289-.058S328.775,181.32,328.078,181.107Z" transform="translate(-204.275 -68.582)"/>
      <path id="Path_340" data-name="Path 340" class="cls-10" d="M445.222,205.163H212.63l-.9-12.943h232.6Z" transform="translate(-200.801 -68.94)"/>
      <path id="Path_341" data-name="Path 341" class="cls-13" d="M429.25,67.37Z" transform="translate(-207.752 -64.95)"/>
      <path id="Path_346" data-name="Path 346" class="cls-5" d="M447.456,203.513H210L200.44,64.87H437.882Zm-232.931-4.84H442.267L433.361,69.71H205.619Z" transform="translate(-200.44 -64.87)"/>
      <path id="Path_347" data-name="Path 347" class="cls-13" d="M445.57,205.423a.755.755,0,0,1,.774-.833.91.91,0,0,1,.891.833.765.765,0,0,1-.774.833A.9.9,0,0,1,445.57,205.423Z" transform="translate(-208.273 -69.335)"/>
      <path id="Path_348" data-name="Path 348" class="cls-2" d="M440.07,205.423a.755.755,0,0,1,.774-.833.91.91,0,0,1,.891.833.765.765,0,0,1-.774.833A.9.9,0,0,1,440.07,205.423Z" transform="translate(-208.098 -69.335)"/>
    </g>
    <g id="freepik--Characters--inject-7" transform="translate(-28.505 161.338)">
      <path id="Path_349" data-name="Path 349" class="cls-14" d="M148.735,314.452l-2.285-1.694a3.291,3.291,0,0,0-2.982-.5l-4.753,1.52a6.186,6.186,0,0,0-4,4.008l-.368,1.181c3.582,3.078,9.68,3.756,9.68,3.756l1.733.4a2.759,2.759,0,0,0,3.349-2.013l.813-3.417a3.166,3.166,0,0,0-1.191-3.233Z" transform="translate(-67.105 -217.109)"/>
      <path id="Path_350" data-name="Path 350" class="cls-14" d="M135.9,283.465l-.823,1.278-.862,1.384c-.561.968-1.1,1.878-1.646,2.836q-1.6,2.9-2.991,5.808c-.929,1.936-1.772,3.988-2.527,6.021a61.526,61.526,0,0,0-1.936,6.147l.077-.891a1.123,1.123,0,0,0,0,.59,2.565,2.565,0,0,0,.6.968,11.762,11.762,0,0,0,3.04,2.275,31.751,31.751,0,0,0,4.124,1.936c1.442.6,3.02,1.113,4.463,1.578l.145.048a2.323,2.323,0,0,1-.687,4.53,37.007,37.007,0,0,1-5.363-.348,30.2,30.2,0,0,1-5.411-1.278,17.627,17.627,0,0,1-5.528-2.953,11.065,11.065,0,0,1-2.517-2.9,9.313,9.313,0,0,1-1.239-4.23,3.3,3.3,0,0,1,0-.7v-.194a58.968,58.968,0,0,1,1.7-7.309,63.017,63.017,0,0,1,2.536-6.98c.968-2.275,2.033-4.482,3.2-6.641.6-1.065,1.21-2.13,1.859-3.185s1.287-2.043,2.11-3.185a4.646,4.646,0,1,1,7.7,5.208Z" transform="translate(-66.544 -215.956)"/>
      <path id="Path_351" data-name="Path 351" class="cls-10" d="M138.6,268.31c2.836,5.6,3.078,12.769-4.085,24.153-5.111.842-15-5.3-15-5.3S125.057,268.465,138.6,268.31Z" transform="translate(-66.631 -215.709)"/>
      <path id="Path_352" data-name="Path 352" class="cls-14" d="M142.53,247.46c1.81,5.479,4.221,15.547.823,19.458,0,0,5.218-1.084,16.776,5.208,2.972-4.84.484-6.166.484-6.166-6.389-1.133-6.825-5.711-6.312-10.077Z" transform="translate(-67.367 -215.043)"/>
      <path id="Path_353" data-name="Path 353" class="cls-5" d="M145.6,268.7a2.623,2.623,0,1,1-2.556-2.672A2.623,2.623,0,0,1,145.6,268.7Z" transform="translate(-67.297 -215.636)"/>
      <path id="Path_354" data-name="Path 354" class="cls-5" d="M149,268.321a2.614,2.614,0,1,1-.721-1.872A2.623,2.623,0,0,1,149,268.321Z" transform="translate(-67.406 -215.624)"/>
      <path id="Path_355" data-name="Path 355" class="cls-5" d="M152.7,268.206a2.614,2.614,0,1,1-.6-1.913,2.623,2.623,0,0,1,.6,1.913Z" transform="translate(-67.524 -215.615)"/>
      <path id="Path_356" data-name="Path 356" class="cls-5" d="M156.127,268.026a2.623,2.623,0,1,1-2.391-2.827A2.623,2.623,0,0,1,156.127,268.026Z" transform="translate(-67.634 -215.609)"/>
      <path id="Path_357" data-name="Path 357" class="cls-5" d="M159.429,268.358a2.614,2.614,0,1,1-.41-1.964A2.614,2.614,0,0,1,159.429,268.358Z" transform="translate(-67.741 -215.611)"/>
      <path id="Path_358" data-name="Path 358" class="cls-5" d="M162.828,268.527a2.623,2.623,0,1,1-2.091-3.059A2.623,2.623,0,0,1,162.828,268.527Z" transform="translate(-67.849 -215.617)"/>
      <path id="Path_359" data-name="Path 359" class="cls-5" d="M160.047,234.769c.242.726.823,1.22,1.3,1.094s.658-.813.407-1.539-.823-1.22-1.288-1.094S159.8,234.033,160.047,234.769Z" transform="translate(-67.923 -214.588)"/>
      <path id="Path_360" data-name="Path 360" class="cls-5" d="M160.27,233.288l1.568-.968S161.4,233.946,160.27,233.288Z" transform="translate(-67.934 -214.559)"/>
      <path id="Path_361" data-name="Path 361" class="cls-15" d="M160.48,236.24a22.4,22.4,0,0,0,4.134,3.988,3.059,3.059,0,0,1-2.41,1.152Z" transform="translate(-67.94 -214.684)"/>
      <path id="Path_362" data-name="Path 362" class="cls-5" d="M160.111,228.411a.407.407,0,0,0,0-.319.445.445,0,0,0-.6-.194,4.714,4.714,0,0,0-2.711,3.156.416.416,0,0,0,.368.484.494.494,0,0,0,.532-.387,3.717,3.717,0,0,1,2.2-2.478A.5.5,0,0,0,160.111,228.411Z" transform="translate(-67.822 -214.416)"/>
      <path id="Path_363" data-name="Path 363" class="cls-14" d="M134.46,237.924c3.272,8.538,4.472,12.207,10.281,15.489,8.712,5,18.557-.271,17.918-9.458-.581-8.277-5.808-20.842-15.489-22.11a11.713,11.713,0,0,0-12.71,16.079Z" transform="translate(-67.08 -214.219)"/>
      <path id="Path_364" data-name="Path 364" class="cls-5" d="M150.679,224.284c2.827-6.776-6.331-9.893-15.421-6.157s-14.085,12.372-8.78,20.038,10.736,22.71-.281,20.7c8.8,8.625,28.393,4.937,33.136-4.54s-3.872-16.757-3.872-16.757S158.308,229.327,150.679,224.284Z" transform="translate(-66.784 -214.054)"/>
      <path id="Path_365" data-name="Path 365" class="cls-5" d="M146.852,226.961c5.3,1.133,11.162-1.481,10.193-6.554-.891-4.685-12.42-8.441-19.613-5.247C129.36,218.752,136.175,224.648,146.852,226.961Z" transform="translate(-67.09 -213.973)"/>
      <path id="Path_366" data-name="Path 366" class="cls-5" d="M126.22,238.39c2.769,4.559,9.487,19.69,1.568,18.848,3.582,1.384,6.641-.348,5.6-8.035A14.782,14.782,0,0,0,126.22,238.39Z" transform="translate(-66.845 -214.753)"/>
      <path id="Path_367" data-name="Path 367" class="cls-14" d="M154.355,241.047a6.263,6.263,0,0,0,4.463,2.42c2.168.077,2.517-2.459,1.307-4.637-1.084-1.936-3.524-4.376-5.392-3.417S152.864,239.227,154.355,241.047Z" transform="translate(-67.71 -214.651)"/>
      <path id="Path_368" data-name="Path 368" class="cls-10" d="M177.939,279.766a173.661,173.661,0,0,1,.716,17.425c.068,3.95.068,7.88,0,12.507a16.06,16.06,0,0,1-15.15,15.789l-7.6.426a16.021,16.021,0,0,1-16.728-13.427c-1.307-8.083-3.959-18.132-8.848-32.333a8.877,8.877,0,0,1,6.941-11.946c1.491-.232,3.088-.455,4.724-.62a121.115,121.115,0,0,1,17.26-.968c1.936.068,3.872.194,5.721.348A14.346,14.346,0,0,1,177.939,279.766Z" transform="translate(-66.958 -215.655)"/>
      <path id="Path_369" data-name="Path 369" class="cls-14" d="M216.143,313.639l-1.665-2.3a3.32,3.32,0,0,0-2.7-1.365l-4.966.029a6.137,6.137,0,0,0-5,2.623l-.716.968c2.507,4.008,8.161,6.5,8.161,6.5l1.53.881a2.74,2.74,0,0,0,3.8-.92l1.8-3.011a3.185,3.185,0,0,0-.242-3.4Z" transform="translate(-69.238 -217.041)"/>
      <path id="Path_370" data-name="Path 370" class="cls-14" d="M179.238,281.224l.745,2.652c.271.968.552,1.839.862,2.759q.891,2.759,1.878,5.5c.668,1.83,1.355,3.65,2.091,5.45s1.5,3.591,2.3,5.373l-.494-.745a8.887,8.887,0,0,0,2.9,2.333,30.54,30.54,0,0,0,4.463,1.936c1.6.581,3.272,1.084,4.985,1.549s3.485.891,5.16,1.268h.106a2.323,2.323,0,0,1-.358,4.579,51.106,51.106,0,0,1-5.808,0,46.9,46.9,0,0,1-5.808-.687A30.974,30.974,0,0,1,186.3,311.5a15.9,15.9,0,0,1-6.07-4.066,2.74,2.74,0,0,1-.31-.436l-.174-.31a100.2,100.2,0,0,1-5.508-11.326c-.813-1.936-1.53-3.921-2.2-5.924-.329-.968-.639-2.014-.968-3.04s-.561-2-.833-3.2a4.649,4.649,0,1,1,9.012-2.285Z" transform="translate(-68.247 -216)"/>
      <path id="Path_371" data-name="Path 371" class="cls-10" d="M169.118,267.6c6.05,1.636,11.529,6.273,15.169,19.216-2.8,4.366-14,7.58-14,7.58S160.173,277.745,169.118,267.6Z" transform="translate(-68.098 -215.687)"/>
      <path id="Path_372" data-name="Path 372" class="cls-16" d="M229.981,266.8a8.257,8.257,0,0,0-3.872-3.785,7.57,7.57,0,0,1-.048-5.121L207,251.48c1.452,6.37,2.585,11.4.174,14.443,3.737,2.362,10.59,6.612,18.131,6.515S231.2,269.486,229.981,266.8Z" transform="translate(-69.427 -215.171)"/>
      <path id="Path_373" data-name="Path 373" class="cls-17" d="M225.22,238.73l1.936,5.992s2.449-.213,3.466-1.675a13.04,13.04,0,0,0-5.4-4.317Z" transform="translate(-70.009 -214.764)"/>
      <path id="Path_374" data-name="Path 374" class="cls-5" d="M224.844,237.945c.3.687.91,1.075,1.355.871s.561-.968.252-1.607-.91-1.075-1.355-.871S224.535,237.219,224.844,237.945Z" transform="translate(-69.992 -214.686)"/>
      <path id="Path_375" data-name="Path 375" class="cls-5" d="M223.7,232.79a.436.436,0,0,1-.407,0,3.437,3.437,0,0,0-3.166.136.44.44,0,0,1-.484-.736,4.289,4.289,0,0,1,3.988-.213.426.426,0,0,1,.232.571.494.494,0,0,1-.165.242Z" transform="translate(-69.825 -214.536)"/>
      <path id="Path_376" data-name="Path 376" class="cls-16" d="M199.8,245.543c4.279,8.151,7.347,13.553,13.8,14.956,12.817,2.711,16.573-4.463,14.821-13.756-1.588-8.354-8.306-20.329-17.986-19.864A12.681,12.681,0,0,0,199.8,245.543Z" transform="translate(-69.149 -214.385)"/>
      <path id="Path_377" data-name="Path 377" class="cls-5" d="M215.008,233.829c4.327-.416,5.866,4.908,4.192,10.716,3.5,3.03,3.117,13.833-10.029,14.095-5.731.116-18.828-9.3-15.489-16.631S215.008,233.829,215.008,233.829Z" transform="translate(-68.984 -214.607)"/>
      <path id="Path_378" data-name="Path 378" class="cls-5" d="M211.891,239.33c6.263-4.153,9.545-9.574,7.909-14.521s-7.686-6.641-13.369-5.353-.8,4.608-.8,4.608-7.618-.968-11.462,2.256,1.191,4.308,1.191,4.308-7.193,6.263-1.578,11.442C198.155,246.107,208.116,241.8,211.891,239.33Z" transform="translate(-68.936 -214.135)"/>
      <path id="Path_379" data-name="Path 379" class="cls-10" d="M199.54,266.606c.649-3.107,2.9-4.308,5.121-5.247s20.687.319,25.111,1.249a60.013,60.013,0,0,1,2.807,5.808Z" transform="translate(-69.188 -215.476)"/>
      <path id="Path_380" data-name="Path 380" class="cls-16" d="M215.33,245.23a7.541,7.541,0,0,0,5.131,2.7c2.662.223,3.514-2.285,2.372-4.54-1.026-2.023-3.65-4.579-6.128-3.746a3.446,3.446,0,0,0-1.375,5.586Z" transform="translate(-69.664 -214.788)"/>
      <path id="Path_381" data-name="Path 381" class="cls-5" d="M235.418,265.045a176.821,176.821,0,0,0-38.8,0,13.194,13.194,0,0,0-11.326,15.489,228.786,228.786,0,0,1,3.582,38.015,28.2,28.2,0,0,0,22.72,27.27,140.122,140.122,0,0,0,22.565,2.749,26.931,26.931,0,0,0,27.531-28.528c-1.433-23.853-11.22-37.008-15.944-47.434A13.117,13.117,0,0,0,235.418,265.045Z" transform="translate(-68.726 -215.571)"/>
      <rect id="Rectangle_22" data-name="Rectangle 22" class="cls-5" width="21.704" height="1.926" transform="translate(27.352 62.572)"/>
      <path id="Path_382" data-name="Path 382" class="cls-16" d="M125.71,275.066l.91,5.808c-1.278,6.07-8.8,3.078-8.8,3.078h-4.2a3.117,3.117,0,0,1-2.9-2.8l-.668-4.066a3.272,3.272,0,0,1,2.372-3.872l3.611-.61a6.388,6.388,0,0,1,3.136.242Z" transform="translate(-66.326 -215.844)"/>
      <path id="Path_383" data-name="Path 383" class="cls-5" d="M199.044,287.806l-9.206,1.568-9.254,1.52-9.2,1.559c-3.049.532-6.1,1.055-9.09,1.617l-1.713.319h-.707c-3.62-.165-6.776-.561-9.99-.968s-6.321-.91-9.438-1.423-6.205-1.094-9.293-1.713-6.137-1.268-9.235-2.013l1.81-14.753c3.059,0,6.166.087,9.245.116l9.206.174c3.059.087,6.1.116,9.1.155s6.012,0,8.6-.116l-2.43.29c3.156-.92,6.283-1.791,9.419-2.594s6.244-1.578,9.371-2.3,6.254-1.442,9.38-2.1,6.244-1.3,9.458-1.859Z" transform="translate(-66.708 -215.612)"/>
      <path id="Path_384" data-name="Path 384" class="cls-16" d="M303.151,309.35l-.571,5.876c1.626,5.982,8.954,2.556,8.954,2.556l4.2-.213a3.146,3.146,0,0,0,2.759-2.962l.426-4.114a3.262,3.262,0,0,0-2.594-3.737l-3.64-.407a6.477,6.477,0,0,0-3.117.426Z" transform="translate(-72.481 -216.924)"/>
      <path id="Path_385" data-name="Path 385" class="cls-5" d="M245.648,270.26c2.488,2.275,4.966,4.647,7.454,6.96l7.4,7.028,14.734,13.94-2.149-1.394a57.564,57.564,0,0,0,6.467,3.04c2.362.91,4.84,1.791,7.386,2.575s5.169,1.51,7.8,2.2c1.326.348,2.652.7,3.979.968l3.872.968-1.113,14.772c-1.694.048-3.136.048-4.685,0s-3.049-.087-4.579-.184q-4.559-.271-9.167-.91c-3.078-.465-6.176-1.016-9.313-1.8a65.828,65.828,0,0,1-9.622-3.195l-.765-.319-1.394-1.036c-2.788-2.159-5.518-4.317-8.209-6.515s-5.363-4.385-8-6.631-5.266-4.453-7.87-6.718-5.179-4.53-7.744-6.892Z" transform="translate(-70.166 -215.771)"/>
      <path id="Path_386" data-name="Path 386" class="cls-10" d="M334.716,315.38h-49.99A11.616,11.616,0,0,0,273.11,327v76.93a11.616,11.616,0,0,0,11.616,11.616H323.1a11.616,11.616,0,0,0,11.617-11.616V349.155a16.892,16.892,0,0,0,0-33.775Z" transform="translate(-71.54 -217.213)"/>
      <path id="Path_387" data-name="Path 387" class="cls-9" d="M310.36,350.27l25.547,9.2v-9.2Z" transform="translate(-72.73 -218.328)"/>
      <path id="Path_388" data-name="Path 388" class="cls-10" d="M267.317,280.6H75.1A9.981,9.981,0,0,0,65,292.062a13.272,13.272,0,0,0,12.817,11.452l11.81,99.3a13.494,13.494,0,0,0,13,11.617H283.261a10.126,10.126,0,0,0,10.232-11.616l-13.136-110.6A13.485,13.485,0,0,0,267.317,280.6Z" transform="translate(-64.885 -216.102)"/>
      <path id="Path_389" data-name="Path 389" class="cls-18" d="M253.979,283.93H67.543a10.213,10.213,0,0,0-2.536,8.228A13.272,13.272,0,0,0,77.824,303.62l11.8,99.3a13.485,13.485,0,0,0,12.991,11.616H277.5a10.359,10.359,0,0,0,2.614-8.393l-13.136-110.6a13.553,13.553,0,0,0-13-11.617Z" transform="translate(-64.886 -216.208)"/>
      <path id="Path_390" data-name="Path 390" class="cls-19" d="M257.232,304.738H82.984a.484.484,0,0,1,0-.968H257.232a.484.484,0,0,1,0,.968Z" transform="translate(-65.448 -216.842)"/>
      <ellipse id="Ellipse_57" data-name="Ellipse 57" class="cls-4" cx="10.794" cy="12.159" rx="10.794" ry="12.159" transform="translate(187.754 75.48) rotate(-46.7)"/>
    </g>
    <g id="freepik--Lamp--inject-7" transform="translate(251.217 190.787)">
      <rect id="Rectangle_23" data-name="Rectangle 23" class="cls-5" width="13.078" height="13.078" rx="2.16" transform="translate(53.389 3.792) rotate(-11.04)"/>
      <path id="Path_391" data-name="Path 391" class="cls-20" d="M392.279,289.753l-34.027,6.641a2,2,0,0,1-2.391-1.936l-.281-36.466a2.014,2.014,0,0,1,1.626-1.936L378.068,252a2,2,0,0,1,2.246,1.229L393.76,287.11a2,2,0,0,1-1.481,2.643Z" transform="translate(-306.897 -246.635)"/>
      <path id="Path_392" data-name="Path 392" class="cls-5" d="M326.428,401.766a.968.968,0,0,1-.968-.968V296.888a1.017,1.017,0,0,1,.213-.62l39.515-47.86a.97.97,0,0,1,1.5,1.229l-39.293,47.6V400.817a.968.968,0,0,1-.968.949Z" transform="translate(-305.935 -246.51)"/>
      <circle id="Ellipse_58" data-name="Ellipse 58" class="cls-5" cx="2.459" cy="2.459" r="2.459" transform="translate(18.035 47.919)"/>
      <path id="Path_393" data-name="Path 393" class="cls-5" d="M369.875,251a2.9,2.9,0,1,1,.451-2.194,2.9,2.9,0,0,1-.451,2.194Z" transform="translate(-307.184 -246.46)"/>
      <path id="Path_394" data-name="Path 394" class="cls-5" d="M329.776,415.337H323V382.588a3.4,3.4,0,0,1,3.388-3.388h0a3.408,3.408,0,0,1,3.388,3.388Z" transform="translate(-305.856 -250.701)"/>
      <path id="Path_395" data-name="Path 395" class="cls-5" d="M310.45,415.62h30.658a5.16,5.16,0,0,1,5.16,5.16H305.29a5.16,5.16,0,0,1,5.16-5.16Z" transform="translate(-305.29 -251.865)"/>
    </g>
  </g>
</svg>
